<svg width="100" height="100" viewBox="0 0 100 100" fill="none" xmlns="http://www.w3.org/2000/svg">
<path d="M49.6201 28C52.2616 28 54.6337 28.503 56.7109 29.5381H56.7119C58.807 30.542 60.4538 32.0553 61.6338 34.0596C62.8737 36.0966 63.46 38.6105 63.46 41.54C63.46 43.6414 63.0089 45.7289 62.125 47.7969L62.126 47.7979C61.2931 49.8383 60.1728 51.8282 58.7705 53.7666L58.7646 53.7744C57.3785 55.6498 55.83 57.4606 54.123 59.209L54.124 59.21C52.4623 60.9527 50.739 62.5952 48.9541 64.1367L48.9531 64.1357C48.0067 64.972 47.0896 65.7665 46.2021 66.5195H64.9004V72.7197H35V67.6953L35.3809 67.3945C38.2059 65.1663 40.8904 62.9192 43.4346 60.6533L43.4404 60.6484C46.0143 58.3914 48.2847 56.1596 50.2539 53.9541C52.2103 51.723 53.718 49.5713 54.792 47.5L54.7959 47.4932L54.7988 47.4873C55.8981 45.4403 56.4199 43.5213 56.4199 41.7197C56.4199 40.3592 56.1814 39.132 55.7178 38.0264L55.7139 38.0166C55.2688 36.9212 54.5555 36.0343 53.5527 35.3428L53.5459 35.3389L53.5391 35.334C52.6438 34.6945 51.3511 34.3203 49.5596 34.3203C47.8286 34.3204 46.477 34.706 45.4404 35.4082L45.4316 35.4141L45.4219 35.4199C44.346 36.114 43.5324 37.0454 42.9707 38.2334L42.7822 38.6816C42.371 39.7425 42.1602 40.912 42.1602 42.2002V43.2002H35.2852L35.2998 42.1855C35.3417 39.2938 35.9512 36.7602 37.1719 34.624L37.1748 34.6182C38.4274 32.4585 40.1456 30.8028 42.3184 29.6729C44.4792 28.5492 46.9215 28 49.6201 28Z" stroke="#418DFF" stroke-width="2"/>
</svg>
