<svg width="100" height="100" viewBox="0 0 100 100" fill="none" xmlns="http://www.w3.org/2000/svg">
<path d="M50.5801 27C53.4129 27 55.8626 27.4997 57.8828 28.5537C59.864 29.5874 61.3906 30.9882 62.417 32.7656H62.418C63.4738 34.5255 63.9999 36.4641 64 38.5596C64 40.123 63.7171 41.612 63.1465 43.0166L63.1426 43.0264C62.5643 44.4054 61.6982 45.6229 60.5586 46.6748C60.0572 47.1377 59.5014 47.5378 58.8965 47.8799C59.5913 48.1949 60.2499 48.5743 60.8711 49.0195C62.3298 50.0362 63.4776 51.3632 64.3096 52.9834C65.1554 54.6305 65.5596 56.5332 65.5596 58.6602C65.5595 61.1029 64.9789 63.3864 63.8184 65.4951L63.8193 65.4961C62.6826 67.5946 60.9834 69.2835 58.7598 70.5664L58.7539 70.5693L58.7471 70.5732C56.4807 71.8372 53.7213 72.4404 50.5195 72.4404C47.7181 72.4404 45.1398 71.9381 42.7998 70.917L42.7803 70.9072C40.4532 69.8299 38.5874 68.2262 37.2031 66.1064C35.7998 63.9575 35.0838 61.3267 35 58.2676L34.9727 57.2402H42.0752L42.0996 58.2148C42.1358 59.6623 42.4772 60.9864 43.1182 62.2012C43.7838 63.349 44.7285 64.279 45.9766 64.9922C47.1958 65.6888 48.6967 66.0595 50.5195 66.0596C52.3535 66.0596 53.8107 65.7047 54.9414 65.0537C56.1146 64.3782 56.9775 63.5066 57.5625 62.4404C58.1563 61.3185 58.4599 60.0649 58.46 58.6602C58.46 56.8638 58.0221 55.5236 57.2393 54.5449L57.2275 54.5303L57.2168 54.5156C56.4277 53.4521 55.3395 52.6647 53.9092 52.1641L53.8955 52.1592L53.8809 52.1533C52.4489 51.6026 50.8525 51.3203 49.0801 51.3203H44.96V45.0596H49.0801C51.6933 45.0596 53.6006 44.4544 54.9258 43.3672C56.2268 42.2997 56.9003 40.8381 56.9004 38.8604C56.9004 37.2711 56.3753 35.9897 55.333 34.9473L55.3213 34.9355C54.3792 33.962 52.8483 33.3799 50.5195 33.3799C48.3621 33.38 46.7527 33.9957 45.5771 35.1377C44.3637 36.3165 43.6554 37.8279 43.4756 39.7344L43.3896 40.6396H36.3262L36.3818 39.5879C36.51 37.1525 37.1754 34.9618 38.3965 33.043C39.6167 31.1256 41.2755 29.644 43.3525 28.6055C45.4379 27.5228 47.8577 27 50.5801 27Z" stroke="#418DFF" stroke-width="2"/>
</svg>
