<svg width="64" height="64" viewBox="0 0 64 64" fill="none" xmlns="http://www.w3.org/2000/svg">
<g clip-path="url(#clip0_440_488)">
<path d="M11.1764 -0.0331994C11.3976 -0.0336669 11.6188 -0.0342423 11.8401 -0.0349157C12.4458 -0.0364405 13.0515 -0.0364124 13.6572 -0.0361171C14.3113 -0.036066 14.9653 -0.0374468 15.6194 -0.0386315C16.8997 -0.0407054 18.1799 -0.0413951 19.4602 -0.0415346C20.5006 -0.0416534 21.5409 -0.0421675 22.5812 -0.0429597C25.5306 -0.0451602 28.4799 -0.0463147 31.4293 -0.0461271C31.5882 -0.0461171 31.7471 -0.0461071 31.9108 -0.0460969C32.0699 -0.0460866 32.229 -0.0460764 32.3929 -0.0460659C34.9741 -0.0459642 37.5553 -0.0483595 40.1365 -0.0518814C42.7867 -0.0554691 45.4369 -0.0571992 48.0871 -0.056983C49.5751 -0.0568999 51.063 -0.0575905 52.551 -0.0602775C53.8171 -0.0625493 55.0833 -0.0631012 56.3494 -0.0614002C56.9956 -0.0605818 57.6417 -0.0605771 58.2879 -0.0627385C58.8791 -0.0646957 59.4703 -0.0643562 60.0615 -0.0621674C60.2756 -0.0617817 60.4898 -0.0622452 60.7039 -0.0636325C60.9946 -0.0653912 61.2851 -0.0640795 61.5757 -0.0619934C61.7373 -0.0620478 61.8989 -0.0621021 62.0653 -0.0621581C62.9175 0.0601259 63.381 0.600904 63.8751 1.25023C64.1535 1.80704 64.0623 2.52107 64.0001 3.12523C63.7401 3.84133 63.2925 4.26251 62.6251 4.62523C62.2301 4.75687 61.9173 4.74446 61.5058 4.73546C60.5935 4.72346 60.5935 4.72346 59.8126 5.13206C59.5768 5.49513 59.4103 5.84822 59.2501 6.25023C59.1921 6.3764 59.134 6.50256 59.0743 6.63255C58.0181 9.09184 57.9967 11.6986 58.9063 14.2112C59.0194 14.4748 59.134 14.7379 59.2501 15.0002C59.3 15.1422 59.35 15.2841 59.4014 15.4304C59.5988 15.8921 59.7435 16.1704 60.1251 16.5002C60.7228 16.657 61.3259 16.6251 61.9381 16.6018C62.5068 16.5943 62.8106 16.7522 63.2501 17.1252C63.8114 17.6826 64.0232 18.103 64.0469 18.8909C64.04 19.6732 63.9155 20.1773 63.3751 20.7502C62.7417 21.2544 62.2645 21.3874 61.4716 21.4009C61.3415 21.4034 61.2114 21.4059 61.0774 21.4084C60.868 21.4116 60.868 21.4116 60.6544 21.4148C60.5108 21.4174 60.3672 21.42 60.2193 21.4227C59.7608 21.4308 59.3023 21.4382 58.8438 21.4455C58.5329 21.4509 58.2221 21.4564 57.9112 21.4619C57.1492 21.4753 56.3871 21.488 55.6251 21.5002C55.7768 21.549 55.9285 21.5978 56.0848 21.6481C56.2874 21.7142 56.4899 21.7803 56.6924 21.8464C56.792 21.8783 56.8916 21.9102 56.9942 21.9431C58.6448 22.485 59.9158 23.4019 61.1251 24.6252C61.2638 24.762 61.2638 24.762 61.4053 24.9016C63.513 27.1077 64.0844 29.967 64.0382 32.9133C63.9448 35.68 62.5611 38.2005 60.5782 40.0974C59.2335 41.236 57.7227 42.0858 56.0001 42.5002C56.0749 42.501 56.1496 42.5017 56.2267 42.5025C57.0075 42.5105 57.7882 42.521 58.5689 42.533C58.86 42.5372 59.1511 42.5407 59.4422 42.5435C59.8614 42.5477 60.2806 42.5543 60.6998 42.5613C60.8292 42.5621 60.9587 42.5629 61.0921 42.5637C62.1097 42.5842 62.8701 42.7662 63.6251 43.5002C64.1441 44.1983 64.0945 45.0435 64.0001 45.8752C63.696 46.5301 63.1505 47.05 62.5001 47.3752C62.3303 47.3737 62.1606 47.3653 61.9913 47.3533C61.3583 47.3288 60.7355 47.3097 60.1251 47.5002C59.5886 48.0044 59.3703 48.5676 59.1251 49.2502C59.0632 49.3996 59.0013 49.549 58.9376 49.7029C57.9572 52.201 58.0156 54.9028 59.0743 57.3679C59.1323 57.4941 59.1903 57.6202 59.2501 57.7502C59.3029 57.8828 59.3558 58.0155 59.4102 58.1521C59.6123 58.5697 59.7658 58.8293 60.1251 59.1252C60.6546 59.2677 61.199 59.2438 61.7432 59.24C62.3688 59.2381 62.7364 59.3876 63.2501 59.7502C63.9604 60.4979 64.0572 61.0969 64.0391 62.1086C63.9691 62.8107 63.6169 63.1603 63.1094 63.6018C62.5714 64.0112 62.3144 64.0161 61.6394 64.017C61.5493 64.0173 61.4593 64.0176 61.3666 64.0179C61.0618 64.0187 60.7571 64.0187 60.4524 64.0186C60.2329 64.019 60.0135 64.0195 59.794 64.02C59.1884 64.0213 58.5829 64.0217 57.9773 64.0221C57.3251 64.0226 56.6729 64.0237 56.0207 64.0248C54.4438 64.0273 52.8669 64.0286 51.2901 64.0297C50.5475 64.0302 49.805 64.0309 49.0625 64.0316C46.5938 64.0337 44.1252 64.0355 41.6566 64.0364C41.0155 64.0366 40.3745 64.0369 39.7334 64.0371C39.4944 64.0372 39.4944 64.0372 39.2506 64.0373C36.6718 64.0383 34.093 64.0415 31.5142 64.0456C28.8666 64.0497 26.219 64.052 23.5713 64.0524C22.0848 64.0526 20.5984 64.0537 19.1119 64.0569C17.8453 64.0596 16.5787 64.0606 15.3121 64.0594C14.6663 64.0589 14.0205 64.0591 13.3747 64.0615C12.7823 64.0637 12.1899 64.0636 11.5975 64.0616C11.3844 64.0613 11.1712 64.0619 10.958 64.0634C9.20484 64.0749 7.51241 63.8731 5.94538 63.0159C5.86273 62.9725 5.78008 62.9292 5.69492 62.8846C5.0604 62.5466 4.4498 62.1834 3.87507 61.7502C3.80175 61.6959 3.72844 61.6416 3.6529 61.5857C1.70674 60.0367 0.342591 57.4409 6.66678e-05 55.0002C-0.127565 53.2171 -0.139905 51.4372 0.500067 49.7502C0.545345 49.6207 0.590623 49.4911 0.637274 49.3577C1.61143 46.7819 3.63334 44.7487 6.09382 43.5705C6.56308 43.3604 7.03392 43.1989 7.52607 43.0529C7.63833 43.0195 7.75059 42.9862 7.86625 42.9518C7.99437 42.9139 7.99437 42.9139 8.12507 42.8752C8.04742 42.8748 7.96978 42.8743 7.88978 42.8738C7.07857 42.8686 6.26746 42.8599 5.4563 42.8493C5.15395 42.8458 4.85157 42.8431 4.5492 42.8414C4.11349 42.8387 3.67792 42.8328 3.24225 42.8264C3.10797 42.8262 2.97369 42.8261 2.83533 42.8259C1.95252 42.8089 1.21464 42.6932 0.555731 42.0649C-0.0445241 41.379 -0.0433548 40.7725 -0.0346013 39.8962C0.0268795 39.194 0.380157 38.8437 0.882879 38.3987C1.34823 38.0521 1.53598 37.9963 2.11872 38.0222C2.71616 38.0468 3.30125 38.0642 3.87507 37.8752C4.40082 37.3686 4.62662 36.8014 4.87507 36.1252C4.9371 35.9759 4.99914 35.8265 5.06306 35.6726C5.97921 33.3313 6.03076 30.7819 5.06779 28.4482C4.95547 28.1929 4.8372 27.9418 4.71491 27.6911C4.50007 27.2502 4.50007 27.2502 4.37897 26.907C4.24459 26.582 4.17245 26.4424 3.87507 26.2502C3.33469 26.1721 2.81012 26.156 2.2652 26.1482C1.55583 26.1315 1.07876 25.9431 0.557196 25.4387C-0.0278383 24.7799 -0.0369869 24.2121 -0.0258122 23.3679C0.0239129 22.6614 0.303295 22.2938 0.812567 21.8362C1.30124 21.4279 1.69248 21.3593 2.32169 21.3496C2.46431 21.3471 2.60693 21.3446 2.75387 21.342C2.98474 21.3389 2.98474 21.3389 3.22028 21.3357C3.3779 21.3331 3.53551 21.3305 3.69791 21.3278C4.1165 21.321 4.53509 21.3147 4.9537 21.3087C5.38102 21.3024 5.80834 21.2955 6.23566 21.2886C7.07379 21.2752 7.91192 21.2624 8.75007 21.2502C8.6265 21.2194 8.50293 21.1886 8.37562 21.1568C7.50366 20.9348 6.65961 20.7194 5.85944 20.2971C5.77724 20.2546 5.69505 20.2121 5.61036 20.1684C2.89301 18.7133 1.15469 16.3967 0.261785 13.4875C-0.535289 10.8182 -0.0607038 7.86561 1.23932 5.45531C1.5761 4.85527 1.95446 4.29461 2.37507 3.75023C2.46788 3.6239 2.56069 3.49757 2.65632 3.36742C4.84274 0.855504 7.97567 -0.0396229 11.1764 -0.0331994ZM10.6251 47.3752C10.6251 47.4165 10.6251 47.4577 10.6251 47.5002C20.1538 47.5002 29.6826 47.5002 39.5001 47.5002C39.5001 47.459 39.5001 47.4177 39.5001 47.3752C29.9713 47.3752 20.4426 47.3752 10.6251 47.3752Z" fill="#FFD78E"/>
<path d="M11.1763 -0.0331994C11.3975 -0.0336669 11.6187 -0.0342423 11.8399 -0.0349157C12.4456 -0.0364405 13.0513 -0.0364124 13.6571 -0.0361171C14.3111 -0.036066 14.9652 -0.0374468 15.6192 -0.0386315C16.8995 -0.0407054 18.1798 -0.0413951 19.4601 -0.0415346C20.5004 -0.0416534 21.5407 -0.0421675 22.5811 -0.0429597C25.5304 -0.0451602 28.4798 -0.0463147 31.4292 -0.0461271C31.5881 -0.0461171 31.747 -0.0461071 31.9107 -0.0460969C32.0698 -0.0460866 32.2289 -0.0460764 32.3928 -0.0460659C34.974 -0.0459642 37.5551 -0.0483595 40.1363 -0.0518814C42.7865 -0.0554691 45.4367 -0.0571992 48.0869 -0.056983C49.5749 -0.0568999 51.0629 -0.0575905 52.5509 -0.0602775C53.817 -0.0625493 55.0831 -0.0631012 56.3493 -0.0614002C56.9954 -0.0605818 57.6416 -0.0605771 58.2878 -0.0627385C58.879 -0.0646957 59.4701 -0.0643562 60.0614 -0.0621674C60.2755 -0.0617817 60.4896 -0.0622452 60.7038 -0.0636325C60.9944 -0.0653912 61.2849 -0.0640795 61.5756 -0.0619934C61.7372 -0.0620478 61.8987 -0.0621021 62.0652 -0.0621581C62.9173 0.0601259 63.3809 0.600904 63.8749 1.25023C64.1533 1.80704 64.0621 2.52107 63.9999 3.12523C63.7399 3.84133 63.2923 4.26251 62.6249 4.62523C62.23 4.75687 61.9172 4.74446 61.5057 4.73546C60.5934 4.72346 60.5934 4.72346 59.8124 5.13206C59.5767 5.49513 59.4101 5.84822 59.2499 6.25023C59.1919 6.3764 59.1339 6.50256 59.0741 6.63255C58.018 9.09184 57.9966 11.6986 58.9062 14.2112C59.0192 14.4748 59.1338 14.7379 59.2499 15.0002C59.2999 15.1422 59.3498 15.2841 59.4013 15.4304C59.5986 15.8921 59.7434 16.1704 60.1249 16.5002C60.7226 16.657 61.3258 16.6251 61.9379 16.6018C62.5067 16.5943 62.8105 16.7522 63.2499 17.1252C63.8113 17.6826 64.023 18.103 64.0468 18.8909C64.0399 19.6732 63.9154 20.1773 63.3749 20.7502C62.6578 21.321 62.1479 21.3908 61.2491 21.3917C61.1162 21.392 61.1162 21.392 60.9805 21.3924C60.6821 21.3931 60.3836 21.393 60.0852 21.3928C59.8696 21.3931 59.654 21.3935 59.4385 21.3939C58.8449 21.3949 58.2513 21.3951 57.6577 21.3952C57.0179 21.3955 56.3782 21.3964 55.7384 21.3973C54.3385 21.399 52.9387 21.3997 51.5388 21.4003C50.6645 21.4006 49.7901 21.4011 48.9158 21.4017C46.4946 21.4032 44.0733 21.4045 41.652 21.4049C41.497 21.405 41.342 21.405 41.1823 21.405C41.0269 21.405 40.8715 21.4051 40.7113 21.4051C40.3964 21.4051 40.0815 21.4052 39.7667 21.4053C39.6105 21.4053 39.4543 21.4053 39.2933 21.4053C36.7647 21.4058 34.236 21.408 31.7074 21.4109C29.1106 21.4139 26.5138 21.4155 23.917 21.4156C22.4593 21.4157 21.0016 21.4164 19.5439 21.4187C18.302 21.4206 17.0601 21.4213 15.8183 21.4202C15.1851 21.4197 14.552 21.4199 13.9188 21.4216C13.338 21.4232 12.7572 21.423 12.1764 21.4215C11.9674 21.4213 11.7585 21.4217 11.5495 21.4228C8.16913 21.4394 5.30828 20.4651 2.82854 18.0915C0.608659 15.7716 -0.0703961 12.9808 -0.0337635 9.85472C0.0296577 7.56469 0.987458 5.54598 2.37493 3.75023C2.46774 3.6239 2.56055 3.49757 2.65618 3.36742C4.8426 0.855504 7.97554 -0.0396229 11.1763 -0.0331994Z" fill="#FF9E5E"/>
<path d="M11.6625 4.71956C11.8717 4.71945 12.0809 4.71923 12.29 4.71891C12.8635 4.71835 13.4371 4.71935 14.0106 4.7206C14.6295 4.72168 15.2485 4.72132 15.8674 4.72113C16.9393 4.721 18.0113 4.72178 19.0832 4.72319C20.6331 4.72522 22.1829 4.72587 23.7327 4.72618C26.2473 4.72673 28.7619 4.72839 31.2765 4.73076C33.719 4.73305 36.1615 4.73482 38.6041 4.73589C38.7547 4.73595 38.9053 4.73602 39.0604 4.73609C39.8158 4.73641 40.5713 4.73673 41.3267 4.73704C47.5928 4.73963 53.859 4.74403 60.1251 4.74962C60.0659 4.84884 60.0067 4.94805 59.9458 5.05028C59.8677 5.18245 59.7896 5.31462 59.7091 5.45079C59.6319 5.58095 59.5546 5.7111 59.4751 5.8452C58.1751 8.18211 57.9505 10.8092 58.6251 13.3746C58.895 14.2396 59.2465 15.0199 59.7091 15.7989C59.8262 15.9971 59.8262 15.9971 59.9458 16.1992C60.0049 16.2984 60.0641 16.3975 60.1251 16.4996C53.6832 16.5111 47.2414 16.5199 40.7996 16.5252C40.039 16.5258 39.2784 16.5264 38.5179 16.5271C38.3665 16.5272 38.2151 16.5273 38.0591 16.5275C35.6076 16.5297 33.1561 16.5336 30.7045 16.5382C28.189 16.5429 25.6734 16.5456 23.1579 16.5467C21.6057 16.5473 20.0536 16.5495 18.5014 16.5536C17.4369 16.5562 16.3725 16.557 15.308 16.5564C14.6939 16.556 14.0799 16.5565 13.4658 16.5592C12.9031 16.5617 12.3405 16.5618 11.7778 16.5601C11.5747 16.5599 11.3716 16.5605 11.1685 16.5621C9.38109 16.5751 7.79862 16.2162 6.44394 14.9674C5.04552 13.4927 4.67145 11.9673 4.71103 9.98741C4.77321 8.62323 5.40747 7.5265 6.31259 6.53087C6.41572 6.43806 6.51884 6.34524 6.62509 6.24962C6.73595 6.14649 6.84681 6.04337 6.96103 5.93712C8.37449 4.78528 9.92122 4.71281 11.6625 4.71956Z" fill="#FFF6E7"/>
<path d="M9.90893 47.4842C10.0153 47.4839 10.1217 47.4837 10.2313 47.4834C10.3475 47.4838 10.4637 47.4841 10.5835 47.4845C10.7694 47.4843 10.7694 47.4843 10.9591 47.4842C11.3756 47.484 11.7921 47.4847 12.2086 47.4853C12.5067 47.4854 12.8048 47.4854 13.1029 47.4853C13.8291 47.4853 14.5553 47.4858 15.2814 47.4866C16.1264 47.4875 16.9714 47.4877 17.8163 47.4878C19.3232 47.4881 20.83 47.4889 22.3369 47.4901C23.8007 47.4913 25.2645 47.4921 26.7283 47.4927C26.8185 47.4927 26.9087 47.4927 27.0017 47.4928C27.4543 47.4929 27.9069 47.4931 28.3596 47.4932C32.1147 47.4945 35.8698 47.4968 39.625 47.4995C39.6662 48.9433 39.7075 50.387 39.75 51.8745C40.0619 51.5806 40.3739 51.2867 40.6953 50.9839C41.7107 50.0278 42.7295 49.0752 43.75 48.1245C44.9555 48.6781 45.875 49.8641 46.7895 50.7916C46.9633 50.9676 47.1374 51.1433 47.3115 51.3189C47.4138 51.4226 47.5161 51.5264 47.6215 51.6333C47.8566 51.8806 47.8566 51.8806 48.125 51.9995C48.125 50.5145 48.125 49.0295 48.125 47.4995C52.085 47.4995 56.045 47.4995 60.125 47.4995C59.795 48.077 59.465 48.6545 59.125 49.2495C58.0411 51.9356 57.9371 54.6399 59.0587 57.3345C59.253 57.7562 59.4721 58.1492 59.709 58.5484C59.8261 58.7466 59.8261 58.7466 59.9457 58.9489C60.0048 59.0481 60.064 59.1473 60.125 59.2495C53.7192 59.261 47.3135 59.2698 40.9078 59.2751C40.1513 59.2757 39.3948 59.2763 38.6383 59.277C38.4124 59.2772 38.4124 59.2772 38.182 59.2774C35.7444 59.2796 33.3068 59.2835 30.8692 59.2881C28.3675 59.2928 25.8658 59.2956 23.364 59.2966C21.8207 59.2973 20.2774 59.2994 18.734 59.3035C17.6753 59.3061 16.6166 59.3069 15.5578 59.3063C14.9473 59.306 14.3367 59.3065 13.7261 59.3091C13.1664 59.3116 12.6066 59.3117 12.0469 59.31C11.8451 59.3098 11.6434 59.3104 11.4416 59.312C9.7231 59.3246 8.2679 59.0692 6.87498 57.9995C6.7667 57.9273 6.65842 57.8552 6.54686 57.7808C5.39299 56.6876 4.75087 55.2174 4.70707 53.6428C4.69294 52.4642 4.76794 51.5418 5.37498 50.4995C5.45861 50.3485 5.45861 50.3485 5.54393 50.1944C6.36153 48.8446 7.60569 47.9975 9.11441 47.5542C9.38705 47.497 9.63054 47.484 9.90893 47.4842Z" fill="#FFF6E7"/>
<path d="M3.875 26.1253C10.251 26.1167 16.627 26.1101 23.0031 26.1061C23.7559 26.1056 24.5088 26.1051 25.2617 26.1047C25.4116 26.1046 25.5615 26.1045 25.7159 26.1044C28.1423 26.1027 30.5686 26.0998 32.995 26.0963C35.485 26.0928 37.975 26.0907 40.465 26.09C42.0012 26.0895 43.5374 26.0878 45.0737 26.0848C46.1274 26.0828 47.1811 26.0822 48.2348 26.0827C48.8426 26.0829 49.4503 26.0826 50.0581 26.0805C50.6151 26.0787 51.1722 26.0786 51.7292 26.0799C51.9301 26.0801 52.131 26.0796 52.3319 26.0784C54.3263 26.0674 56.101 26.3612 57.6016 27.7815C58.93 29.2026 59.3465 30.7175 59.2852 32.6228C59.2023 34.1094 58.4869 35.5172 57.3999 36.5276C55.9508 37.7013 54.4661 38.0219 52.6416 38.0125C52.4476 38.0122 52.4476 38.0122 52.2497 38.0119C51.8383 38.0112 51.427 38.0097 51.0156 38.0081C50.736 38.0074 50.4564 38.0069 50.1768 38.0064C49.4928 38.0051 48.8089 38.0026 48.125 38.0003C48.125 36.3503 48.125 34.7003 48.125 33.0003C49.9141 32.9612 49.9141 32.9612 50.4772 32.9518C50.6966 32.9456 50.6966 32.9456 50.9204 32.9392C51.0703 32.9359 51.2202 32.9327 51.3747 32.9293C51.7479 32.906 51.7479 32.906 51.9862 32.6992C52.2549 32.314 52.1683 31.9553 52.125 31.5003C51.7265 31.2346 51.6286 31.2189 51.172 31.2181C51.0526 31.2173 50.9332 31.2165 50.8102 31.2157C50.613 31.2162 50.613 31.2162 50.4119 31.2168C50.2725 31.2163 50.1331 31.2157 49.9895 31.2151C49.5199 31.2135 49.0504 31.2137 48.5808 31.2139C48.2452 31.2132 47.9095 31.2123 47.5739 31.2114C46.7554 31.2093 45.9369 31.2086 45.1184 31.2085C44.4534 31.2084 43.7883 31.2079 43.1233 31.2071C41.239 31.2049 39.3548 31.2037 37.4705 31.2039C37.318 31.2039 37.318 31.2039 37.1625 31.2039C37.0608 31.2039 36.959 31.2039 36.8542 31.204C35.2043 31.2041 33.5544 31.2017 31.9045 31.1981C30.2116 31.1946 28.5187 31.1928 26.8258 31.193C25.8748 31.1931 24.9239 31.1924 23.973 31.1897C23.1636 31.1875 22.3541 31.1869 21.5447 31.1886C21.1315 31.1894 20.7183 31.1892 20.3051 31.1873C19.8577 31.1854 19.4105 31.1865 18.9631 31.1884C18.8317 31.1872 18.7002 31.1859 18.5648 31.1845C18.4454 31.1857 18.326 31.1868 18.203 31.188C18.0481 31.1879 18.0481 31.1879 17.89 31.1879C17.6054 31.2303 17.6054 31.2303 17.4004 31.4758C17.173 31.8907 17.2593 32.1788 17.375 32.6253C17.8383 32.9341 18.072 32.9077 18.6256 32.9101C18.7152 32.9108 18.8049 32.9115 18.8972 32.9123C19.1984 32.9144 19.4995 32.9147 19.8006 32.9151C20.0162 32.9163 20.2318 32.9175 20.4473 32.9189C21.0333 32.9223 21.6193 32.9242 22.2052 32.9258C22.8173 32.9278 23.4294 32.9311 24.0415 32.9343C25.2009 32.9402 26.3603 32.9448 27.5198 32.9489C28.8396 32.9537 30.1594 32.9599 31.4792 32.9662C34.1945 32.9791 36.9097 32.9901 39.625 33.0003C39.625 34.6503 39.625 36.3003 39.625 38.0003C27.8275 38.0003 16.03 38.0003 3.875 38.0003C4.1225 37.5465 4.37 37.0928 4.625 36.6253C5.77632 34.2958 6.10662 31.7686 5.375 29.2503C5.05699 28.347 4.63888 27.4928 4.17255 26.6579C4.1167 26.5578 4.06085 26.4577 4.00331 26.3546C3.96097 26.2789 3.91862 26.2032 3.875 26.1253Z" fill="#FEF6E7"/>
<path d="M11.797 42.6936C12.1015 42.6937 12.4059 42.6936 12.7104 42.6934C13.3623 42.6932 14.0142 42.6946 14.6661 42.6975C15.6086 42.7016 16.5511 42.7028 17.4936 42.7035C19.0233 42.7046 20.5529 42.7079 22.0826 42.7126C23.5673 42.7172 25.052 42.7208 26.5367 42.7229C26.6743 42.7231 26.6743 42.7231 26.8147 42.7233C27.2749 42.7239 27.7352 42.7246 28.1954 42.7252C32.0053 42.7303 35.8151 42.7393 39.6249 42.7503C39.6249 44.2766 39.6249 45.8028 39.6249 47.3753C39.2655 47.3763 38.9061 47.3774 38.5358 47.3784C35.2342 47.3878 31.9326 47.3984 28.631 47.4103C28.1977 47.4119 27.7643 47.4135 27.3309 47.415C27.2447 47.4153 27.1584 47.4156 27.0695 47.4159C25.6755 47.4209 24.2816 47.425 22.8876 47.4288C21.4556 47.4327 20.0236 47.4375 18.5915 47.4432C17.7879 47.4463 16.9843 47.4491 16.1806 47.4508C15.4233 47.4524 14.6659 47.4551 13.9085 47.4588C13.6315 47.4599 13.3545 47.4606 13.0774 47.4609C9.42368 47.4519 9.42368 47.4519 6.33392 49.2669C5.09533 50.6502 4.76419 52.0813 4.82708 53.8968C4.92181 55.4303 5.61113 56.7283 6.74993 57.7503C6.88529 57.8741 6.88529 57.8741 7.02337 58.0003C8.10861 58.7721 9.23611 59.1565 10.5671 59.1567C10.7016 59.1572 10.7016 59.1572 10.8389 59.1577C11.138 59.1586 11.4372 59.1577 11.7363 59.1568C11.9535 59.157 12.1707 59.1574 12.388 59.1579C12.9838 59.1589 13.5796 59.1584 14.1754 59.1576C14.8184 59.157 15.4614 59.1579 16.1044 59.1586C17.2183 59.1597 18.3321 59.1599 19.446 59.1596C21.0576 59.1593 22.6692 59.1607 24.2808 59.1627C26.8969 59.166 29.5131 59.1685 32.1293 59.1701C32.3641 59.1703 32.3641 59.1703 32.6037 59.1704C34.8262 59.1718 37.0487 59.1725 39.2712 59.1729C39.4278 59.1729 39.5843 59.1729 39.7456 59.1729C39.902 59.173 40.0583 59.173 40.2194 59.173C42.8258 59.1735 45.4322 59.1759 48.0387 59.1798C49.6464 59.1822 51.2541 59.1829 52.8618 59.1816C53.9631 59.1808 55.0643 59.1818 56.1656 59.1842C56.8012 59.1856 57.4367 59.1861 58.0723 59.1844C58.6541 59.1829 59.2359 59.1837 59.8178 59.1863C60.0282 59.1869 60.2387 59.1866 60.4491 59.1853C62.4119 59.1746 62.4119 59.1746 63.2499 59.7503C63.9602 60.498 64.0571 61.097 64.039 62.1087C63.969 62.8108 63.6167 63.1604 63.1093 63.6019C62.5713 64.0113 62.3142 64.0162 61.6392 64.0171C61.5492 64.0174 61.4592 64.0177 61.3665 64.018C61.0617 64.0188 60.757 64.0188 60.4523 64.0187C60.2328 64.0191 60.0133 64.0196 59.7939 64.0201C59.1883 64.0214 58.5827 64.0218 57.9772 64.0222C57.325 64.0227 56.6727 64.0239 56.0205 64.025C54.4437 64.0274 52.8668 64.0287 51.29 64.0298C50.5474 64.0303 49.8049 64.031 49.0624 64.0317C46.5937 64.0338 44.1251 64.0356 41.6564 64.0365C41.0154 64.0367 40.3743 64.037 39.7333 64.0372C39.4943 64.0373 39.4943 64.0373 39.2504 64.0374C36.6717 64.0385 34.0929 64.0416 31.5141 64.0457C28.8665 64.0498 26.2188 64.0521 23.5712 64.0525C22.0847 64.0527 20.5982 64.0538 19.1117 64.057C17.8451 64.0597 16.5786 64.0607 15.312 64.0595C14.6662 64.059 14.0204 64.0592 13.3746 64.0616C12.7822 64.0638 12.1898 64.0637 11.5974 64.0618C11.3842 64.0615 11.171 64.062 10.9579 64.0635C9.20471 64.075 7.51228 63.8732 5.94525 63.016C5.8626 62.9726 5.77995 62.9293 5.69479 62.8847C5.06027 62.5467 4.44966 62.1835 3.87493 61.7503C3.76496 61.6689 3.76496 61.6689 3.65277 61.5858C1.70661 60.0368 0.342459 57.441 -6.50957e-05 55.0003C-0.127696 53.2172 -0.140037 51.4373 0.499935 49.7503C0.567852 49.556 0.567852 49.556 0.637142 49.3578C1.60732 46.7925 3.61704 44.7748 6.05462 43.5785C8.00141 42.7718 9.70969 42.6799 11.797 42.6936Z" fill="#FF7893"/>
<path d="M2.49592 21.3585C2.63033 21.3581 2.63033 21.3581 2.76745 21.3577C3.07002 21.357 3.37258 21.3571 3.67515 21.3573C3.89335 21.357 4.11156 21.3566 4.32976 21.3562C4.93125 21.3552 5.53273 21.355 6.13421 21.3549C6.78225 21.3546 7.43029 21.3537 8.07833 21.3529C9.49651 21.3512 10.9147 21.3504 12.3329 21.3499C13.2184 21.3495 14.104 21.349 14.9896 21.3484C17.4414 21.3469 19.8932 21.3456 22.345 21.3452C22.5806 21.3451 22.5806 21.3451 22.8208 21.3451C23.0569 21.3451 23.0569 21.3451 23.2978 21.345C23.6167 21.345 23.9357 21.3449 24.2546 21.3448C24.4919 21.3448 24.4919 21.3448 24.734 21.3448C27.2956 21.3443 29.8571 21.3421 32.4187 21.3392C35.0485 21.3362 37.6784 21.3347 40.3082 21.3345C41.7848 21.3344 43.2613 21.3337 44.7379 21.3314C45.9958 21.3295 47.2536 21.3288 48.5115 21.3299C49.1529 21.3304 49.7944 21.3303 50.4359 21.3285C51.024 21.3269 51.6121 21.3271 52.2002 21.3286C52.4122 21.3288 52.6241 21.3284 52.836 21.3273C55.8093 21.313 58.5034 22.1144 60.708 24.2084C60.8525 24.3527 60.8525 24.3527 61 24.4999C61.1445 24.6422 61.1445 24.6422 61.292 24.7875C63.4614 27.0494 64.0858 29.8725 64.0381 32.913C63.9448 35.6797 62.5611 38.2002 60.5781 40.097C57.7621 42.4814 54.7653 42.813 51.1875 42.7733C50.8895 42.7714 50.5915 42.7697 50.2935 42.7682C49.5706 42.7644 48.8479 42.7571 48.125 42.7499C48.125 41.1824 48.125 39.6149 48.125 37.9999C48.7329 37.9929 48.7329 37.9929 49.353 37.9857C49.7506 37.9799 50.1482 37.9735 50.5458 37.9671C50.8196 37.9629 51.0935 37.9594 51.3673 37.9566C54.1975 37.9712 54.1975 37.9712 56.75 36.8749C56.8528 36.8022 56.9556 36.7295 57.0615 36.6547C58.0948 35.8302 58.9629 34.4631 59.125 33.1249C59.2449 31.2379 59.0324 29.6078 57.75 28.1249C56.6578 26.9522 55.2838 26.3099 53.6789 26.2268C53.122 26.2145 52.5651 26.2168 52.0081 26.2184C51.7918 26.2182 51.5755 26.2178 51.3592 26.2173C50.7665 26.2163 50.1738 26.2168 49.5811 26.2176C48.9413 26.2182 48.3015 26.2173 47.6616 26.2166C46.5534 26.2155 45.4452 26.2153 44.337 26.2156C42.7336 26.216 41.1302 26.2145 39.5268 26.2125C36.9239 26.2093 34.321 26.2068 31.718 26.2051C31.5623 26.205 31.4066 26.2049 31.2461 26.2048C29.035 26.2034 26.8238 26.2027 24.6127 26.2023C24.4569 26.2023 24.3011 26.2023 24.1406 26.2023C23.9851 26.2022 23.8295 26.2022 23.6692 26.2022C21.0758 26.2017 18.4824 26.1993 15.8889 26.1954C14.2894 26.193 12.6898 26.1923 11.0903 26.1936C9.99464 26.1944 8.89902 26.1934 7.8034 26.191C7.17112 26.1896 6.53887 26.1891 5.9066 26.1908C5.32778 26.1923 4.749 26.1915 4.17018 26.1889C3.96083 26.1884 3.75147 26.1887 3.54212 26.1899C1.34767 26.2019 1.34767 26.2019 0.558038 25.4395C-0.0272781 24.7799 -0.0370718 24.2128 -0.0258837 23.3676C0.0238415 22.6611 0.303223 22.2934 0.812495 21.8358C1.35766 21.3803 1.79544 21.3591 2.49592 21.3585Z" fill="#59A1A5"/>
<path d="M2.26448 37.9842C2.46416 37.9838 2.46416 37.9838 2.66786 37.9834C2.81463 37.9838 2.96139 37.9841 3.1126 37.9845C3.2681 37.9844 3.42359 37.9843 3.5838 37.9842C4.01622 37.984 4.44862 37.9844 4.88104 37.985C5.34704 37.9856 5.81304 37.9854 6.27904 37.9853C7.08668 37.9852 7.89433 37.9856 8.70197 37.9863C9.8697 37.9873 11.0374 37.9877 12.2052 37.9878C14.0996 37.9881 15.9941 37.9889 17.8885 37.9901C19.7291 37.9913 21.5696 37.9921 23.4101 37.9927C23.5235 37.9927 23.6369 37.9927 23.7538 37.9928C24.3227 37.9929 24.8916 37.9931 25.4605 37.9932C30.182 37.9945 34.9034 37.9968 39.6249 37.9995C39.6249 39.567 39.6249 41.1345 39.6249 42.7495C34.8169 42.7608 30.0088 42.7698 25.2008 42.7751C24.6331 42.7757 24.0655 42.7763 23.4979 42.777C23.3284 42.7772 23.3284 42.7772 23.1554 42.7774C21.3257 42.7796 19.4959 42.7835 17.6662 42.7881C15.7886 42.7928 13.9111 42.7956 12.0336 42.7966C10.8751 42.7973 9.71657 42.7994 8.55806 42.8035C7.7636 42.8061 6.96916 42.8069 6.1747 42.8063C5.71635 42.806 5.25803 42.8065 4.79968 42.8091C4.30244 42.812 3.80526 42.811 3.30802 42.8097C3.16356 42.8111 3.0191 42.8126 2.87027 42.8141C1.96951 42.8074 1.22809 42.7062 0.555802 42.0642C-0.0450579 41.3788 -0.0435392 40.7716 -0.0347878 39.8955C0.026693 39.1933 0.37997 38.843 0.882693 38.398C1.36466 38.0391 1.68042 37.9839 2.26448 37.9842Z" fill="#59A0A4"/>
<path d="M48.875 21.3748C49.6796 21.3652 50.4843 21.3587 51.2889 21.3542C51.5619 21.3524 51.8349 21.3498 52.1079 21.3465C55.3816 21.3083 58.2398 21.864 60.708 24.2083C60.8044 24.3045 60.9007 24.4007 61 24.4998C61.0964 24.5947 61.1927 24.6896 61.292 24.7874C63.4614 27.0493 64.0858 29.8724 64.0381 32.9129C63.9448 35.6796 62.5611 38.2001 60.5781 40.097C57.7621 42.4814 54.7653 42.8129 51.1875 42.7733C50.8895 42.7714 50.5915 42.7697 50.2935 42.7681C49.5706 42.7644 48.8479 42.757 48.125 42.7498C48.125 41.1823 48.125 39.6148 48.125 37.9998C48.7329 37.9928 48.7329 37.9928 49.353 37.9857C49.7506 37.9799 50.1482 37.9735 50.5458 37.967C50.8196 37.9629 51.0935 37.9594 51.3673 37.9565C54.1975 37.9712 54.1975 37.9712 56.75 36.8748C56.8528 36.8022 56.9556 36.7295 57.0615 36.6546C58.0948 35.8302 58.9629 34.463 59.125 33.1248C59.2302 31.4694 59.1103 30.0234 58.125 28.6248C58.0628 28.452 58.006 28.2773 57.9531 28.1014C57.2097 25.7405 55.3179 23.8541 53.1714 22.7108C52.6254 22.4375 52.0769 22.1994 51.5 21.9998C51.385 21.9573 51.2699 21.9147 51.1514 21.8709C50.6932 21.7327 50.2392 21.6652 49.7656 21.6092C49.6366 21.593 49.6366 21.593 49.5049 21.5765C49.295 21.5502 49.085 21.5249 48.875 21.4998C48.875 21.4586 48.875 21.4173 48.875 21.3748Z" fill="#419296"/>
<path d="M58.1469 42.5958C58.4857 42.5945 58.8245 42.5923 59.1633 42.5893C59.6408 42.5856 60.1182 42.5844 60.5957 42.5838C60.7378 42.5822 60.8798 42.5807 61.0262 42.5791C62.0791 42.582 62.8425 42.7391 63.625 43.4998C64.1441 44.1979 64.0944 45.0431 64 45.8748C63.696 46.5296 63.1504 47.0496 62.5 47.3748C62.3084 47.3863 62.1162 47.39 61.9242 47.3898C61.7423 47.3901 61.7423 47.3901 61.5566 47.3903C61.3564 47.3897 61.3564 47.3897 61.152 47.389C60.9417 47.389 60.9417 47.389 60.7271 47.389C60.2617 47.3889 59.7964 47.388 59.3311 47.387C59.0091 47.3868 58.6872 47.3866 58.3653 47.3864C57.6034 47.386 56.8415 47.385 56.0796 47.3838C55.2123 47.3824 54.3451 47.3817 53.4778 47.3811C51.6935 47.3798 49.9093 47.3775 48.125 47.3748C48.125 45.8485 48.125 44.3223 48.125 42.7498C51.4653 42.6687 54.8057 42.6081 58.1469 42.5958Z" fill="#FE7793"/>
<path d="M43.875 33C45.2775 33 46.68 33 48.125 33C48.125 39.27 48.125 45.54 48.125 52C47.6221 51.7485 47.3005 51.4578 46.9145 51.064C46.8474 50.9964 46.7802 50.9289 46.711 50.8593C46.4968 50.6438 46.2836 50.4274 46.0703 50.2109C45.9274 50.0668 45.7844 49.9226 45.6413 49.7786C45.3772 49.5123 45.1133 49.2458 44.8499 48.9789C44.5186 48.6257 44.5186 48.6257 44.1701 48.3809C43.7211 47.8014 43.7924 47.2657 43.804 46.5521C43.8039 46.3325 43.8039 46.3325 43.8038 46.1085C43.8042 45.6248 43.8091 45.1413 43.814 44.6577C43.8151 44.3223 43.816 43.9869 43.8166 43.6515C43.8186 42.859 43.8237 42.0667 43.83 41.2742C43.837 40.3719 43.8404 39.4696 43.8435 38.5672C43.8501 36.7114 43.8615 34.8557 43.875 33Z" fill="#FEC963"/>
<path d="M18.9772 31.0474C19.1166 31.0466 19.256 31.0458 19.3997 31.045C19.8686 31.0431 20.3374 31.0457 20.8063 31.0482C21.1418 31.0478 21.4772 31.0471 21.8127 31.0461C22.6303 31.0443 23.4479 31.0458 24.2655 31.0485C25.2173 31.0515 26.169 31.0513 27.1208 31.051C28.8189 31.0505 30.5169 31.0531 32.2149 31.0574C33.8633 31.0615 35.5116 31.0633 37.1599 31.0625C38.9541 31.0616 40.7483 31.062 42.5425 31.0644C42.6847 31.0646 42.6847 31.0646 42.8299 31.0648C43.0204 31.0651 43.2109 31.0653 43.4014 31.0656C44.0651 31.0665 44.7288 31.0665 45.3925 31.0664C46.2012 31.0662 47.0098 31.0674 47.8185 31.0704C48.2312 31.0718 48.6439 31.0725 49.0566 31.072C49.5036 31.0715 49.9506 31.0734 50.3976 31.0758C50.5286 31.0751 50.6596 31.0745 50.7945 31.0738C50.9739 31.0755 50.9739 31.0755 51.1568 31.0772C51.3116 31.0775 51.3116 31.0775 51.4696 31.0778C51.8247 31.1377 51.9952 31.2472 52.2499 31.5001C52.3561 32.3364 52.3561 32.3364 52.08 32.7621C51.5567 33.1394 51.0318 33.0686 50.4024 33.0628C50.194 33.0638 50.194 33.0638 49.9814 33.0649C49.5143 33.0666 49.0472 33.0647 48.58 33.0628C48.2458 33.0633 47.9115 33.064 47.5773 33.0649C46.7627 33.0666 45.9481 33.0657 45.1335 33.0638C44.1853 33.0617 43.237 33.0621 42.2887 33.0626C40.5969 33.0633 38.9051 33.0615 37.2133 33.0584C35.571 33.0554 33.9288 33.0546 32.2865 33.0559C30.4989 33.0573 28.7113 33.0575 26.9237 33.0557C26.7332 33.0555 26.5426 33.0554 26.3521 33.0552C26.2114 33.055 26.2114 33.055 26.0679 33.0549C25.4067 33.0543 24.7454 33.0545 24.0842 33.055C23.2785 33.0557 22.4728 33.0549 21.6671 33.0524C21.2559 33.0512 20.8448 33.0508 20.4336 33.0515C19.9882 33.0523 19.5428 33.0507 19.0974 33.0486C18.967 33.0493 18.8365 33.0501 18.702 33.0508C18.5829 33.0498 18.4638 33.0487 18.341 33.0477C18.2382 33.0475 18.1354 33.0474 18.0294 33.0473C17.6769 32.9878 17.5072 32.8707 17.2499 32.6251C17.1052 32.1368 17.063 31.8758 17.2904 31.4141C17.81 30.9652 18.3114 31.0395 18.9772 31.0474Z" fill="#FFE6B8"/>
<path d="M56.0724 47.4386C56.2461 47.4399 56.2461 47.4399 56.4234 47.4413C56.7928 47.4448 57.162 47.4526 57.5314 47.4605C57.782 47.4637 58.0327 47.4665 58.2833 47.4691C58.8973 47.476 59.5112 47.4868 60.1251 47.4996C60.0231 47.6736 60.0231 47.6736 59.919 47.8511C59.8285 48.007 59.738 48.163 59.6476 48.3189C59.6029 48.395 59.5582 48.471 59.5122 48.5493C58.1536 50.9006 57.9485 53.5237 58.6251 56.1246C58.8904 56.9916 59.2467 57.7691 59.7091 58.5484C59.7872 58.6806 59.8653 58.8128 59.9458 58.949C60.005 59.0482 60.0641 59.1474 60.1251 59.2496C59.3935 59.2837 58.6624 59.3086 57.9301 59.3251C57.6814 59.332 57.4327 59.3414 57.1842 59.3533C55.1188 59.45 55.1188 59.45 54.5245 58.9613C54.2945 58.6037 54.1435 58.2739 54.0001 57.8746C53.8857 57.648 53.7711 57.4214 53.6564 57.1949C53.1213 55.9538 52.9327 54.7436 52.9454 53.398C52.9465 53.2557 52.9475 53.1134 52.9486 52.9668C52.9844 51.1743 53.4672 49.6658 54.3751 48.1246C54.4687 47.9601 54.4687 47.9601 54.5642 47.7923C55.0322 47.3517 55.4523 47.4208 56.0724 47.4386Z" fill="#FFF1D6"/>
<path d="M56.0601 4.70102C56.2341 4.70208 56.2341 4.70208 56.4116 4.70316C56.7823 4.70596 57.1528 4.71223 57.5235 4.71859C57.7747 4.7211 58.0259 4.72338 58.2771 4.72543C58.8932 4.73094 59.5091 4.73958 60.125 4.74984C60.0659 4.84906 60.0067 4.94828 59.9457 5.0505C59.8676 5.18267 59.7895 5.31484 59.709 5.45102C59.5932 5.64625 59.5932 5.64625 59.475 5.84542C58.175 8.18233 57.9505 10.8094 58.625 13.3748C58.8949 14.2398 59.2465 15.0201 59.709 15.7992C59.7871 15.9313 59.8652 16.0634 59.9457 16.1995C60.0049 16.2986 60.0641 16.3977 60.125 16.4998C59.3934 16.5309 58.6622 16.5535 57.9301 16.5685C57.6813 16.5748 57.4327 16.5833 57.1841 16.5941C55.1224 16.6818 55.1224 16.6818 54.5244 16.2418C54.2932 15.9181 54.1413 15.6208 54 15.2498C53.9311 15.1187 53.8621 14.9875 53.7911 14.8524C53.7466 14.7412 53.7021 14.63 53.6563 14.5155C53.6105 14.4049 53.5648 14.2944 53.5176 14.1805C53.1237 12.9907 52.9334 11.8951 52.9454 10.6405C52.947 10.4262 52.947 10.4262 52.9488 10.2077C52.987 8.3421 53.598 6.86132 54.5 5.24984C54.5424 5.15959 54.5847 5.06933 54.6283 4.97634C55.041 4.59744 55.5215 4.68871 56.0601 4.70102Z" fill="#FFF1D6"/>
<path d="M58 35.75C58.0619 35.8738 58.0619 35.8738 58.125 36C57.9955 36.3207 57.8586 36.6217 57.7031 36.9297C57.6579 37.0196 57.6126 37.1095 57.5659 37.2021C57.1416 38.0158 56.6216 38.6997 56 39.375C55.9341 39.4523 55.8682 39.5297 55.8003 39.6094C54.435 41.1179 52.4302 42.0175 50.5 42.5C52.48 42.5619 52.48 42.5619 54.5 42.625C54.5 42.6663 54.5 42.7075 54.5 42.75C52.3963 42.75 50.2925 42.75 48.125 42.75C48.125 41.1825 48.125 39.615 48.125 38C48.7329 37.993 48.7329 37.993 49.353 37.9858C49.7506 37.98 50.1482 37.9736 50.5458 37.9672C50.8196 37.9631 51.0935 37.9596 51.3673 37.9567C54.1118 37.9273 55.9547 37.7099 58 35.75Z" fill="#59A0A4"/>
</g>
<defs>
<clipPath id="clip0_440_488">
<rect width="64" height="64" fill="white"/>
</clipPath>
</defs>
</svg>
