<svg width="100" height="100" viewBox="0 0 100 100" fill="none" xmlns="http://www.w3.org/2000/svg">
<path d="M6.95362 17.0893C7.18018 17.0875 7.18018 17.0875 7.41132 17.0858C7.92047 17.0829 8.42945 17.0857 8.9386 17.0884C9.30609 17.0875 9.67357 17.0862 10.041 17.0847C11.0532 17.0814 12.0654 17.083 13.0776 17.0854C14.1683 17.0872 15.2589 17.0845 16.3496 17.0823C18.4872 17.0788 20.6247 17.0796 22.7623 17.0819C24.499 17.0836 26.2357 17.0839 27.9724 17.083C28.2193 17.0829 28.4661 17.0828 28.7204 17.0827C29.2219 17.0824 29.7233 17.0822 30.2247 17.0819C34.7961 17.0797 39.3675 17.082 43.9388 17.0861C48.1138 17.0898 52.2887 17.0894 56.4636 17.0857C61.152 17.0815 65.8404 17.0799 70.5288 17.0823C71.0284 17.0825 71.528 17.0828 72.0276 17.083C72.3963 17.0832 72.3963 17.0832 72.7726 17.0834C74.5079 17.0841 76.2432 17.0829 77.9785 17.0811C80.0923 17.0789 82.206 17.0795 84.3198 17.0836C85.399 17.0857 86.4782 17.0865 87.5574 17.0839C88.5443 17.0816 89.5312 17.0829 90.5181 17.087C90.8761 17.0879 91.2341 17.0874 91.5921 17.0856C92.077 17.0832 92.5616 17.0856 93.0464 17.0893C93.2573 17.0865 93.2573 17.0865 93.4725 17.0837C94.1129 17.0934 94.4789 17.1509 95.0085 17.522C95.3693 18.0523 95.4104 18.3283 95.4108 18.9656C95.4128 19.1681 95.4149 19.3706 95.417 19.5791C95.4152 19.8013 95.4135 20.0234 95.4117 20.2523C95.4135 20.6066 95.4135 20.6066 95.4154 20.968C95.418 21.624 95.417 22.2797 95.4146 22.9357C95.4129 23.6429 95.4156 24.3501 95.4177 25.0574C95.4212 26.443 95.4205 27.8285 95.4182 29.2141C95.4164 30.34 95.4162 31.4659 95.417 32.5918C95.4172 32.7519 95.4173 32.912 95.4174 33.077C95.4177 33.4023 95.4179 33.7275 95.4182 34.0528C95.4204 37.1042 95.4178 40.1556 95.4136 43.207C95.4101 45.8264 95.4108 48.4457 95.4144 51.0651C95.4185 54.1055 95.4202 57.1458 95.4178 60.1861C95.4175 60.5102 95.4173 60.8343 95.417 61.1583C95.4169 61.3975 95.4169 61.3975 95.4167 61.6416C95.416 62.7664 95.4171 63.8912 95.419 65.016C95.4212 66.3863 95.4206 67.7567 95.4164 69.1271C95.4144 69.8265 95.4136 70.526 95.4161 71.2254C95.4189 71.9829 95.4156 72.7403 95.4117 73.4978C95.4143 73.831 95.4143 73.831 95.417 74.171C95.415 74.3734 95.4129 74.5759 95.4108 74.7845C95.4107 74.9594 95.4106 75.1343 95.4104 75.3145C95.2803 75.9348 95.0191 76.171 94.5312 76.5626C94.0221 76.6565 94.0221 76.6565 93.4385 76.6513C93.2196 76.6512 93.0007 76.6511 92.7751 76.6511C92.5399 76.647 92.3047 76.643 92.0624 76.6389C91.6999 76.6372 91.6999 76.6372 91.3301 76.6355C90.6891 76.6319 90.0483 76.6249 89.4074 76.6162C88.7528 76.6082 88.0982 76.6047 87.4435 76.6007C86.1602 76.5921 84.877 76.579 83.5938 76.5626C83.5955 76.7223 83.5972 76.8821 83.599 77.0467C83.6147 78.5525 83.6266 80.0584 83.6342 81.5643C83.6383 82.3385 83.6438 83.1126 83.6527 83.8868C83.6612 84.634 83.6658 85.3811 83.6679 86.1283C83.6693 86.4133 83.6721 86.6983 83.6764 86.9833C83.682 87.3827 83.6828 87.7818 83.6824 88.1812C83.6842 88.4084 83.6859 88.6357 83.6877 88.8699C83.5732 89.5811 83.3824 89.8064 82.8125 90.2344C81.3943 90.5507 80.4659 89.8461 79.2953 89.1045C78.9403 88.8758 78.5861 88.6457 78.2322 88.4151C77.8867 88.1917 77.5384 87.9732 77.1896 87.7549C76.8824 87.5554 76.8824 87.5554 76.5689 87.352C75.9876 87.0508 75.9876 87.0508 75.3799 87.2246C74.8106 87.4972 74.2908 87.791 73.7625 88.1364C73.5707 88.2585 73.3788 88.3806 73.1812 88.5064C72.7828 88.763 72.3855 89.0214 71.9894 89.2815C70.0772 90.4905 70.0772 90.4905 68.75 90.2344C68.1782 89.8078 67.9894 89.5814 67.8748 88.8699C67.8765 88.6426 67.8783 88.4153 67.8801 88.1812C67.8799 88.0553 67.8798 87.9295 67.8797 87.7998C67.8803 87.3855 67.8863 86.9714 67.8925 86.5571C67.8939 86.2692 67.895 85.9813 67.8958 85.6934C67.8988 84.9369 67.9065 84.1804 67.9151 83.4239C67.9231 82.6515 67.9267 81.8791 67.9306 81.1066C67.939 79.5919 67.9523 78.0772 67.9688 76.5626C67.8368 76.5629 67.7048 76.5632 67.5689 76.5635C59.7534 76.5809 51.9378 76.5943 44.1223 76.6025C43.1844 76.6034 42.2466 76.6044 41.3088 76.6055C41.0287 76.6058 41.0287 76.6058 40.743 76.6061C37.7174 76.6095 34.6918 76.6157 31.6662 76.6228C28.5631 76.6301 25.4599 76.6345 22.3568 76.6361C20.4411 76.6371 18.5253 76.6405 16.6096 76.6469C15.297 76.651 13.9844 76.6523 12.6718 76.6512C11.9138 76.6507 11.1558 76.6515 10.3978 76.6557C9.57701 76.6602 8.75629 76.6587 7.93544 76.6565C7.69454 76.6588 7.45363 76.6611 7.20542 76.6634C6.98615 76.6619 6.76688 76.6603 6.54097 76.6587C6.35141 76.659 6.16184 76.6593 5.96654 76.6596C5.30992 76.5316 5.0819 76.3158 4.6875 75.7813C4.58957 75.3145 4.58957 75.3145 4.58919 74.7845C4.58715 74.582 4.58512 74.3796 4.58302 74.171C4.58476 73.9488 4.5865 73.7267 4.5883 73.4978C4.58708 73.2616 4.58586 73.0254 4.5846 72.7821C4.58202 72.1261 4.58296 71.4704 4.58537 70.8145C4.58714 70.1072 4.58442 69.4 4.58227 68.6927C4.57879 67.3072 4.57954 65.9216 4.58181 64.536C4.58357 63.4101 4.58381 62.2842 4.58296 61.1583C4.58284 60.9982 4.58272 60.8381 4.5826 60.6731C4.58235 60.3479 4.58209 60.0226 4.58184 59.6974C4.57961 56.646 4.58217 53.5946 4.58637 50.5432C4.58986 47.9238 4.58925 45.3044 4.58565 42.685C4.58147 39.6447 4.57982 36.6044 4.58222 33.564C4.58247 33.2399 4.58272 32.9159 4.58296 32.5918C4.58308 32.4323 4.5832 32.2729 4.58332 32.1086C4.584 30.9838 4.58286 29.859 4.58102 28.7342C4.57883 27.3638 4.57942 25.9934 4.58359 24.6231C4.58564 23.9236 4.58644 23.2242 4.58386 22.5247C4.58111 21.7672 4.58439 21.0098 4.5883 20.2523C4.58655 20.0302 4.58481 19.808 4.58302 19.5791C4.58505 19.3767 4.58709 19.1742 4.58919 18.9656C4.58932 18.7907 4.58944 18.6158 4.58957 18.4356C4.86019 17.1456 5.81082 17.0744 6.95362 17.0893Z" fill="#E1D6C6"/>
<path d="M6.95362 17.0893C7.18018 17.0875 7.18018 17.0875 7.41132 17.0858C7.92047 17.0829 8.42945 17.0857 8.9386 17.0884C9.30609 17.0875 9.67357 17.0862 10.041 17.0847C11.0532 17.0814 12.0654 17.083 13.0776 17.0854C14.1683 17.0872 15.2589 17.0845 16.3496 17.0823C18.4872 17.0788 20.6247 17.0796 22.7623 17.0819C24.499 17.0836 26.2357 17.0839 27.9724 17.083C28.2193 17.0829 28.4661 17.0828 28.7204 17.0827C29.2219 17.0824 29.7233 17.0822 30.2247 17.0819C34.7961 17.0797 39.3675 17.082 43.9388 17.0861C48.1138 17.0898 52.2887 17.0894 56.4636 17.0857C61.152 17.0815 65.8404 17.0799 70.5288 17.0823C71.0284 17.0825 71.528 17.0828 72.0276 17.083C72.3963 17.0832 72.3963 17.0832 72.7726 17.0834C74.5079 17.0841 76.2432 17.0829 77.9785 17.0811C80.0923 17.0789 82.206 17.0795 84.3198 17.0836C85.399 17.0857 86.4782 17.0865 87.5574 17.0839C88.5443 17.0816 89.5312 17.0829 90.5181 17.087C90.8761 17.0879 91.2341 17.0874 91.5921 17.0856C92.077 17.0832 92.5616 17.0856 93.0464 17.0893C93.2573 17.0865 93.2573 17.0865 93.4725 17.0837C94.1129 17.0934 94.4789 17.1509 95.0085 17.522C95.3693 18.0523 95.4104 18.3283 95.4108 18.9656C95.4128 19.1681 95.4149 19.3706 95.417 19.5791C95.4152 19.8013 95.4135 20.0234 95.4117 20.2523C95.4135 20.6066 95.4135 20.6066 95.4154 20.968C95.418 21.624 95.417 22.2797 95.4146 22.9357C95.4129 23.6429 95.4156 24.3501 95.4177 25.0574C95.4212 26.443 95.4205 27.8285 95.4182 29.2141C95.4164 30.34 95.4162 31.4659 95.417 32.5918C95.4172 32.7519 95.4173 32.912 95.4174 33.077C95.4177 33.4023 95.4179 33.7275 95.4182 34.0528C95.4204 37.1042 95.4178 40.1556 95.4136 43.207C95.4101 45.8264 95.4108 48.4457 95.4144 51.0651C95.4185 54.1055 95.4202 57.1458 95.4178 60.1861C95.4175 60.5102 95.4173 60.8343 95.417 61.1583C95.4169 61.3975 95.4169 61.3975 95.4167 61.6416C95.416 62.7664 95.4171 63.8912 95.419 65.016C95.4212 66.3863 95.4206 67.7567 95.4164 69.1271C95.4144 69.8265 95.4136 70.526 95.4161 71.2254C95.4189 71.9829 95.4156 72.7403 95.4117 73.4978C95.4143 73.831 95.4143 73.831 95.417 74.171C95.415 74.3734 95.4129 74.5759 95.4108 74.7845C95.4107 74.9594 95.4106 75.1343 95.4104 75.3145C95.2803 75.9348 95.0191 76.171 94.5312 76.5626C94.0221 76.6565 94.0221 76.6565 93.4385 76.6513C93.2196 76.6512 93.0007 76.6511 92.7751 76.6511C92.5399 76.647 92.3047 76.643 92.0624 76.6389C91.6999 76.6372 91.6999 76.6372 91.3301 76.6355C90.6891 76.6319 90.0483 76.6249 89.4074 76.6162C88.7528 76.6082 88.0982 76.6047 87.4435 76.6007C86.1602 76.5921 84.877 76.579 83.5938 76.5626C83.5955 76.7223 83.5972 76.8821 83.599 77.0467C83.6147 78.5525 83.6266 80.0584 83.6342 81.5643C83.6383 82.3385 83.6438 83.1126 83.6527 83.8868C83.6612 84.634 83.6658 85.3811 83.6679 86.1283C83.6693 86.4133 83.6721 86.6983 83.6764 86.9833C83.682 87.3827 83.6828 87.7818 83.6824 88.1812C83.6842 88.4084 83.6859 88.6357 83.6877 88.8699C83.5732 89.5811 83.3824 89.8064 82.8125 90.2344C81.3943 90.5507 80.4659 89.8461 79.2953 89.1045C78.9403 88.8758 78.5861 88.6457 78.2322 88.4151C77.8867 88.1917 77.5384 87.9732 77.1896 87.7549C76.8824 87.5554 76.8824 87.5554 76.5689 87.352C75.9876 87.0508 75.9876 87.0508 75.3799 87.2246C74.8106 87.4972 74.2908 87.791 73.7625 88.1364C73.5707 88.2585 73.3788 88.3806 73.1812 88.5064C72.7828 88.763 72.3855 89.0214 71.9894 89.2815C70.0772 90.4905 70.0772 90.4905 68.75 90.2344C68.1782 89.8078 67.9894 89.5814 67.8748 88.8699C67.8765 88.6426 67.8783 88.4153 67.8801 88.1812C67.8799 88.0553 67.8798 87.9295 67.8797 87.7998C67.8803 87.3855 67.8863 86.9714 67.8925 86.5571C67.8939 86.2692 67.895 85.9813 67.8958 85.6934C67.8988 84.9369 67.9065 84.1804 67.9151 83.4239C67.9231 82.6515 67.9267 81.8791 67.9306 81.1066C67.939 79.5919 67.9523 78.0772 67.9688 76.5626C67.8368 76.5629 67.7048 76.5632 67.5689 76.5635C59.7534 76.5809 51.9378 76.5943 44.1223 76.6025C43.1844 76.6034 42.2466 76.6044 41.3088 76.6055C41.0287 76.6058 41.0287 76.6058 40.743 76.6061C37.7174 76.6095 34.6918 76.6157 31.6662 76.6228C28.5631 76.6301 25.4599 76.6345 22.3568 76.6361C20.4411 76.6371 18.5253 76.6405 16.6096 76.6469C15.297 76.651 13.9844 76.6523 12.6718 76.6512C11.9138 76.6507 11.1558 76.6515 10.3978 76.6557C9.57701 76.6602 8.75629 76.6587 7.93544 76.6565C7.69454 76.6588 7.45363 76.6611 7.20542 76.6634C6.98615 76.6619 6.76688 76.6603 6.54097 76.6587C6.35141 76.659 6.16184 76.6593 5.96654 76.6596C5.30992 76.5316 5.0819 76.3158 4.6875 75.7813C4.58957 75.3145 4.58957 75.3145 4.58919 74.7845C4.58715 74.582 4.58512 74.3796 4.58302 74.171C4.58476 73.9488 4.5865 73.7267 4.5883 73.4978C4.58708 73.2616 4.58586 73.0254 4.5846 72.7821C4.58202 72.1261 4.58296 71.4704 4.58537 70.8145C4.58714 70.1072 4.58442 69.4 4.58227 68.6927C4.57879 67.3072 4.57954 65.9216 4.58181 64.536C4.58357 63.4101 4.58381 62.2842 4.58296 61.1583C4.58284 60.9982 4.58272 60.8381 4.5826 60.6731C4.58235 60.3479 4.58209 60.0226 4.58184 59.6974C4.57961 56.646 4.58217 53.5946 4.58637 50.5432C4.58986 47.9238 4.58925 45.3044 4.58565 42.685C4.58147 39.6447 4.57982 36.6044 4.58222 33.564C4.58247 33.2399 4.58272 32.9159 4.58296 32.5918C4.58308 32.4323 4.5832 32.2729 4.58332 32.1086C4.584 30.9838 4.58286 29.859 4.58102 28.7342C4.57883 27.3638 4.57942 25.9934 4.58359 24.6231C4.58564 23.9236 4.58644 23.2242 4.58386 22.5247C4.58111 21.7672 4.58439 21.0098 4.5883 20.2523C4.58655 20.0302 4.58481 19.808 4.58302 19.5791C4.58505 19.3767 4.58709 19.1742 4.58919 18.9656C4.58932 18.7907 4.58944 18.6158 4.58957 18.4356C4.86019 17.1456 5.81082 17.0744 6.95362 17.0893ZM17.1875 23.4376C16.9941 24.211 16.8008 24.9844 16.6016 25.7813C16.0889 26.6724 16.0889 26.6724 15.8371 27.0272C15.5878 27.3691 15.5878 27.3691 15.4297 27.9298C15.0841 28.1312 15.0841 28.1312 14.6484 28.3204C14.5027 28.3989 14.3569 28.4775 14.2067 28.5584C13.9722 28.6823 13.9722 28.6823 13.7329 28.8087C13.5022 28.9325 13.5022 28.9325 13.2668 29.0589C12.6953 29.2969 12.6953 29.2969 10.9375 29.6876C10.9375 41.0313 10.9375 52.3751 10.9375 64.0626C11.7109 64.2559 12.4844 64.4493 13.2813 64.6485C14.1724 65.1612 14.1724 65.1612 14.5271 65.413C14.869 65.6623 14.869 65.6623 15.4297 65.8204C15.6311 66.166 15.6311 66.166 15.8203 66.6016C15.8989 66.7474 15.9774 66.8932 16.0584 67.0434C16.1822 67.2779 16.1822 67.2779 16.3086 67.5172C16.3912 67.671 16.4738 67.8248 16.5588 67.9833C16.7969 68.5548 16.7969 68.5548 17.1875 70.3126C33.3008 70.3126 49.4141 70.3126 66.0156 70.3126C65.6934 69.9903 65.3711 69.668 65.0391 69.336C64.7707 68.7994 64.843 68.3082 64.8464 67.72C64.8345 65.5146 64.3199 64.3637 62.8906 62.6954C62.5985 62.111 62.6118 61.7888 62.6953 61.1329C63.1439 60.316 63.7052 59.5756 64.2899 58.8517C64.765 57.9923 64.7646 57.2893 64.7705 56.3233C64.7755 55.9952 64.7821 55.6671 64.7903 55.3391C64.7915 55.1952 64.7927 55.0513 64.7939 54.903C64.8515 54.4284 64.9837 54.1166 65.2344 53.711C65.638 53.4913 65.638 53.4913 66.1255 53.3204C66.3 53.2552 66.4744 53.19 66.6542 53.1228C66.8302 53.0591 67.0062 52.9954 67.1875 52.9298C68.8225 52.3326 69.5932 51.5747 70.5444 50.1343C70.8984 49.6094 70.8984 49.6094 71.4844 49.2188C72.3009 49.1372 72.9145 49.2227 73.6694 49.5118C75.0017 49.9892 76.4728 50.0501 77.7954 49.5118C78.695 49.1458 79.385 49.165 80.3345 49.2676C80.7956 49.4726 80.8355 49.7438 81.0547 50.1954C81.264 50.5291 81.4801 50.8585 81.7017 51.1841C81.8137 51.3516 81.9257 51.519 82.0412 51.6915C82.9162 52.7418 84.0647 52.9427 85.3401 53.27C86.0789 53.5738 86.3326 53.7913 86.7188 54.4923C86.8428 55.2678 86.8178 56.0454 86.8141 56.8288C86.8331 57.9173 86.993 58.4981 87.6953 59.3751C87.8028 59.5397 87.9103 59.7044 88.0211 59.874C88.119 60.0236 88.217 60.1731 88.3179 60.3272C88.4173 60.4798 88.5168 60.6324 88.6192 60.7896C88.7011 60.9029 88.7829 61.0161 88.8672 61.1329C88.9316 61.1329 88.9961 61.1329 89.0625 61.1329C89.0625 50.7559 89.0625 40.379 89.0625 29.6876C88.418 29.5587 87.7734 29.4298 87.1094 29.2969C85.2428 28.5009 84.3588 27.6599 83.4564 25.8454C83.2031 25.1954 83.2031 25.1954 82.8125 23.4376C61.1563 23.4376 39.5 23.4376 17.1875 23.4376Z" fill="#F1AD2E"/>
<path d="M17.1875 23.4375C28.4023 23.4375 39.6172 23.4375 51.1719 23.4375C50.9472 27.931 50.9472 27.931 50.6714 29.541C50.6443 29.7097 50.6173 29.8784 50.5894 30.0522C50.525 30.4518 50.4581 30.8509 50.3906 31.25C50.2431 31.2507 50.0956 31.2514 49.9436 31.2522C48.5526 31.2596 47.1618 31.2707 45.7709 31.2859C45.0558 31.2936 44.3408 31.2999 43.6257 31.3029C42.9355 31.3059 42.2454 31.3126 41.5552 31.3219C41.164 31.3262 40.7728 31.3267 40.3816 31.327C40.1431 31.3309 39.9046 31.3347 39.6589 31.3387C39.3441 31.3413 39.3441 31.3413 39.0228 31.3439C38.344 31.4699 38.1113 31.6846 37.6953 32.2266C37.5651 32.8125 37.5651 32.8125 37.6953 33.3984C38.1045 33.9261 38.3379 34.1529 39.0006 34.2811C39.2001 34.2828 39.3996 34.2845 39.6051 34.2863C39.8319 34.2902 40.0586 34.294 40.2922 34.298C40.6579 34.2983 40.6579 34.2983 41.0309 34.2987C41.2812 34.3019 41.5316 34.3052 41.7895 34.3085C42.4535 34.317 43.1174 34.3209 43.7815 34.3239C44.4597 34.3277 45.1379 34.3359 45.816 34.3437C47.1456 34.3584 48.4751 34.3682 49.8047 34.375C49.6776 35.7757 49.4177 37.1176 49.1089 38.4888C49.0632 38.6951 49.0175 38.9014 48.9704 39.114C48.8587 39.6179 48.7462 40.1215 48.6328 40.625C48.4708 40.6254 48.4708 40.6254 48.3056 40.6259C45.6778 40.6331 43.0501 40.6447 40.4224 40.6609C39.1517 40.6686 37.881 40.6749 36.6102 40.6779C35.3843 40.6809 34.1585 40.6876 32.9326 40.6969C32.4645 40.6998 31.9963 40.7014 31.5281 40.7015C30.8734 40.702 30.2188 40.7073 29.5641 40.7137C29.3697 40.7127 29.1752 40.7117 28.9749 40.7107C27.9335 40.716 27.9335 40.716 27.028 41.181C26.6562 41.7597 26.6453 42.0986 26.7578 42.7734C27.0221 43.2319 27.0221 43.2319 27.5391 43.5547C28.1831 43.6741 28.821 43.6648 29.4744 43.6613C29.6708 43.6633 29.8671 43.6653 30.0694 43.6674C30.7183 43.6732 31.3671 43.6735 32.016 43.6737C32.4659 43.6766 32.9158 43.6799 33.3657 43.6835C34.5499 43.692 35.7341 43.6959 36.9183 43.6989C38.1267 43.7027 39.335 43.7109 40.5434 43.7187C42.9143 43.7334 45.2853 43.7433 47.6562 43.75C47.5388 44.8536 47.2509 45.8324 46.875 46.875C46.6345 46.8757 46.394 46.8764 46.1462 46.8772C43.8815 46.8844 41.6169 46.8956 39.3522 46.9109C38.1879 46.9186 37.0236 46.9249 35.8592 46.9279C34.7359 46.9309 33.6126 46.9376 32.4894 46.9469C32.0604 46.9498 31.6315 46.9514 31.2026 46.9515C30.6026 46.952 30.0027 46.9573 29.4027 46.9637C29.2247 46.9627 29.0467 46.9617 28.8633 46.9607C27.8842 46.9729 27.8842 46.9729 27.0381 47.431C26.6533 48.0084 26.6444 48.3432 26.7578 49.0234C27.0782 49.4948 27.3327 49.7635 27.9041 49.8776C28.3753 49.9091 28.8408 49.9141 29.3131 49.9113C29.4923 49.9133 29.6715 49.9153 29.8561 49.9174C30.4479 49.9232 31.0396 49.9235 31.6315 49.9237C32.042 49.9266 32.4525 49.9299 32.863 49.9335C33.9431 49.942 35.0232 49.9459 36.1034 49.9489C37.2058 49.9527 38.3081 49.9609 39.4104 49.9687C41.5731 49.9834 43.7357 49.9933 45.8984 50C45.8097 50.3379 45.72 50.6756 45.6299 51.0132C45.58 51.2013 45.5302 51.3893 45.4788 51.5831C45.3227 52.1137 45.1361 52.6155 44.9219 53.125C44.7058 53.1257 44.4898 53.1264 44.2672 53.1272C42.2325 53.1344 40.1978 53.1456 38.163 53.1609C37.1169 53.1686 36.0709 53.1749 35.0247 53.1779C34.0154 53.1809 33.0061 53.1876 31.9968 53.1969C31.6115 53.1998 31.2262 53.2014 30.8409 53.2015C30.3016 53.202 29.7626 53.2073 29.2234 53.2137C29.0637 53.2127 28.904 53.2117 28.7394 53.2107C28.0384 53.2236 27.6216 53.2596 27.0493 53.681C26.6502 54.2569 26.6434 54.5871 26.7578 55.2734C27.0464 55.7242 27.0464 55.7242 27.5391 56.0547C28.084 56.1334 28.553 56.165 29.0979 56.1613C29.3324 56.1643 29.3324 56.1643 29.5716 56.1674C30.0874 56.1732 30.603 56.1735 31.1188 56.1737C31.4767 56.1766 31.8347 56.1799 32.1926 56.1835C33.1341 56.192 34.0755 56.1959 35.0169 56.1989C35.9779 56.2027 36.9388 56.2109 37.8998 56.2187C39.7847 56.2334 41.6697 56.2433 43.5547 56.25C43.4211 56.9568 43.2404 57.5849 42.9688 58.252C42.9003 58.4221 42.8318 58.5923 42.7612 58.7677C42.5781 59.1797 42.5781 59.1797 42.3828 59.375C41.9235 59.3952 41.4698 59.403 41.0104 59.4027C40.8669 59.4034 40.7233 59.4041 40.5754 59.4048C40.2626 59.4062 39.9498 59.4072 39.637 59.4079C39.1421 59.4093 38.6471 59.4124 38.1522 59.416C36.7445 59.4263 35.3369 59.4356 33.9292 59.4387C33.0691 59.4406 32.209 59.4464 31.3489 59.4545C31.0208 59.4569 30.6928 59.4579 30.3647 59.4575C29.9054 59.4571 29.4465 59.4614 28.9873 59.4668C28.8516 59.4655 28.7159 59.4642 28.5761 59.4629C27.9258 59.4755 27.5882 59.533 27.064 59.9308C26.7138 60.3461 26.7138 60.3461 26.6602 60.9375C26.7822 61.6695 26.9561 61.8548 27.5391 62.3047C28.1607 62.4251 28.1607 62.4251 28.8649 62.4113C29.0622 62.4143 29.0622 62.4143 29.2635 62.4174C29.6968 62.4232 30.13 62.4235 30.5634 62.4237C30.8644 62.4266 31.1654 62.4299 31.4664 62.4335C32.2576 62.442 33.0487 62.4459 33.8399 62.4489C34.6477 62.4527 35.4555 62.4609 36.2633 62.4687C37.8474 62.4834 39.4315 62.4932 41.0156 62.5C40.2095 64.3887 39.3675 66.2394 38.4033 68.0542C38.2993 68.2527 38.1954 68.4512 38.0882 68.6558C37.3346 70.0873 37.3346 70.0873 37.1094 70.3125C36.491 70.3311 35.8769 70.337 35.2584 70.3347C34.9669 70.3347 34.9669 70.3347 34.6695 70.3348C34.0238 70.3346 33.3781 70.3331 32.7324 70.3316C32.286 70.3312 31.8396 70.3309 31.3933 70.3307C30.2158 70.33 29.0384 70.3281 27.8609 70.3259C26.6605 70.3239 25.46 70.323 24.2596 70.322C21.9022 70.3199 19.5449 70.3166 17.1875 70.3125C17.1512 70.1536 17.1148 69.9948 17.0774 69.8311C17.0027 69.5169 17.0027 69.5169 16.9266 69.1963C16.8781 68.9891 16.8297 68.7819 16.7798 68.5685C16.5694 67.8607 16.2614 67.3208 15.8371 66.7229C15.625 66.4062 15.625 66.4062 15.4297 65.8203C15.0768 65.6056 15.0768 65.6056 14.6484 65.4297C14.4298 65.3119 14.4298 65.3119 14.2067 65.1917C14.0503 65.1091 13.894 65.0265 13.7329 64.9414C13.5791 64.8588 13.4252 64.7762 13.2668 64.6912C12.519 64.3601 12.519 64.3601 10.9375 64.0625C10.9375 52.7188 10.9375 41.375 10.9375 29.6875C12.0977 29.3975 12.0977 29.3975 13.2812 29.1016C13.9167 28.7388 13.9167 28.7388 14.5271 28.3371C14.8438 28.125 14.8438 28.125 15.4297 27.9297C15.6444 27.5768 15.6444 27.5768 15.8203 27.1484C15.8989 27.0027 15.9774 26.8569 16.0583 26.7067C16.1822 26.4722 16.1822 26.4722 16.3086 26.2329C16.3912 26.0791 16.4738 25.9252 16.5588 25.7668C16.8899 25.019 16.8899 25.019 17.1875 23.4375Z" fill="#F1E5CF"/>
<path d="M51.5625 17.1875C57.1514 17.1693 62.7404 17.1555 68.3293 17.147C70.9242 17.143 73.5192 17.1375 76.1141 17.1286C78.3753 17.1208 80.6365 17.1158 82.8977 17.114C84.0955 17.113 85.2932 17.1106 86.491 17.1049C87.6177 17.0996 88.7443 17.098 89.8709 17.0991C90.2851 17.0989 90.6993 17.0974 91.1134 17.0944C91.6777 17.0905 92.2418 17.0914 92.806 17.0936C92.971 17.0913 93.1359 17.089 93.3058 17.0867C93.9807 17.0936 94.4197 17.1013 94.9637 17.5218C95.3793 18.0543 95.4103 18.2976 95.4108 18.9656C95.4128 19.1681 95.4149 19.3705 95.417 19.5791C95.4152 19.8012 95.4135 20.0234 95.4117 20.2522C95.4129 20.4884 95.4141 20.7246 95.4154 20.968C95.418 21.6239 95.417 22.2797 95.4146 22.9356C95.4129 23.6429 95.4156 24.3501 95.4177 25.0573C95.4212 26.4429 95.4205 27.8285 95.4182 29.2141C95.4164 30.34 95.4162 31.4658 95.417 32.5917C95.4172 32.7519 95.4173 32.912 95.4174 33.0769C95.4177 33.4022 95.4179 33.7275 95.4182 34.0527C95.4204 37.1041 95.4178 40.1555 95.4136 43.2069C95.4101 45.8263 95.4108 48.4457 95.4144 51.0651C95.4185 54.1054 95.4202 57.1457 95.4178 60.1861C95.4175 60.5101 95.4173 60.8342 95.417 61.1583C95.4169 61.3975 95.4169 61.3975 95.4167 61.6415C95.416 62.7663 95.4171 63.8911 95.419 65.0159C95.4212 66.3863 95.4206 67.7566 95.4164 69.127C95.4144 69.8265 95.4136 70.5259 95.4161 71.2254C95.4189 71.9829 95.4156 72.7403 95.4117 73.4978C95.4134 73.7199 95.4152 73.9421 95.417 74.1709C95.415 74.3734 95.4129 74.5758 95.4108 74.7844C95.4107 74.9593 95.4106 75.1342 95.4104 75.3144C95.2803 75.9347 95.0191 76.1709 94.5312 76.5625C94.0221 76.6565 94.0221 76.6565 93.4385 76.6512C93.2196 76.6511 93.0007 76.6511 92.7751 76.651C92.5399 76.647 92.3047 76.643 92.0624 76.6388C91.6999 76.6371 91.6999 76.6371 91.3301 76.6355C90.6891 76.6318 90.0483 76.6248 89.4074 76.6162C88.7528 76.6082 88.0982 76.6047 87.4435 76.6007C86.1602 76.592 84.877 76.579 83.5938 76.5625C83.5955 76.7223 83.5972 76.882 83.599 77.0466C83.6147 78.5525 83.6266 80.0583 83.6342 81.5642C83.6383 82.3384 83.6438 83.1126 83.6527 83.8867C83.6612 84.6339 83.6658 85.381 83.6679 86.1282C83.6693 86.4132 83.6721 86.6983 83.6764 86.9832C83.682 87.3826 83.6828 87.7817 83.6824 88.1811C83.6842 88.4084 83.6859 88.6357 83.6877 88.8698C83.5732 89.581 83.3824 89.8063 82.8125 90.2344C81.3943 90.5506 80.4659 89.846 79.2953 89.1045C78.9403 88.8757 78.5861 88.6457 78.2322 88.4151C77.8867 88.1916 77.5384 87.9732 77.1896 87.7548C76.9848 87.6219 76.7799 87.4889 76.5689 87.3519C75.9876 87.0508 75.9876 87.0508 75.3799 87.2246C74.8106 87.4972 74.2908 87.791 73.7625 88.1363C73.5707 88.2584 73.3788 88.3805 73.1812 88.5063C72.7828 88.7629 72.3855 89.0213 71.9894 89.2815C70.0772 90.4904 70.0772 90.4904 68.75 90.2344C68.3219 89.9486 68.3219 89.9486 67.9688 89.4531C67.856 88.8498 67.8701 88.2554 67.8801 87.6433C67.8799 87.4603 67.8798 87.2773 67.8797 87.0887C67.8803 86.4842 67.8863 85.8798 67.8925 85.2753C67.8939 84.856 67.895 84.4368 67.8958 84.0175C67.8988 82.9142 67.9065 81.811 67.9151 80.7077C67.9231 79.5818 67.9267 78.4559 67.9306 77.33C67.939 75.121 67.9523 72.9121 67.9688 70.7031C68.8481 71.1163 69.3761 71.447 69.9219 72.2656C69.9219 72.3945 69.9219 72.5235 69.9219 72.6563C75.7575 68.2085 79.2687 59.5638 80.2238 52.5299C80.2886 52.0065 80.3399 51.4854 80.3864 50.9598C80.4688 50.3906 80.4688 50.3906 80.8594 49.8047C80.9608 49.953 81.0623 50.1013 81.1668 50.2541C81.3712 50.5452 81.3712 50.5452 81.5796 50.8423C81.7133 51.0349 81.847 51.2275 81.9847 51.4259C82.8922 52.5204 83.9875 52.7238 85.321 53.0556C86.0757 53.3797 86.5502 53.7598 86.9141 54.4922C87.0331 55.1129 87.0332 55.7172 87.0239 56.3477C87.0111 57.6177 87.0634 58.3456 87.8906 59.375C88.2129 59.8262 88.5352 60.2774 88.8672 60.7422C88.9316 50.4942 88.9961 40.2461 89.0625 29.6875C88.6113 29.6875 88.1602 29.6875 87.6953 29.6875C86.0351 29.2226 84.6201 28.216 83.7158 26.7578C83.0717 25.5886 82.8125 24.7964 82.8125 23.4375C72.4355 23.4375 62.0586 23.4375 51.3672 23.4375C51.3672 20.2921 51.3672 20.2921 51.4648 18.7744C51.4788 18.5414 51.4788 18.5414 51.4931 18.3037C51.5155 17.9316 51.5389 17.5595 51.5625 17.1875Z" fill="#F1911B"/>
<path d="M72.1191 48.9258C72.715 49.0052 73.1198 49.1097 73.6694 49.3164C75.0017 49.7938 76.4728 49.8547 77.7954 49.3164C78.5636 49.0039 79.0625 48.9446 79.8828 49.0234C80.147 49.1457 80.4085 49.2746 80.6641 49.4141C80.5133 57.0778 77.2565 64.7529 72.2656 70.5078C72.1834 70.6028 72.1012 70.6978 72.0165 70.7957C70.882 72.0994 70.882 72.0994 70.3125 72.6562C70.1836 72.6562 70.0547 72.6562 69.9219 72.6562C69.6632 72.3271 69.4465 71.9791 69.2215 71.6263C68.918 71.2089 68.918 71.2089 68.1641 70.8984C68.0996 72.7676 68.0352 74.6367 67.9688 76.5625C56.5605 76.5625 45.1523 76.5625 33.3984 76.5625C34.2766 74.8062 34.2766 74.8062 34.7549 74.0204C34.8564 73.8527 34.9579 73.685 35.0624 73.5123C35.1659 73.3426 35.2694 73.1729 35.376 72.998C35.5843 72.6554 35.7923 72.3126 36.0001 71.9696C36.0912 71.82 36.1824 71.6704 36.2763 71.5162C36.5056 71.1243 36.711 70.7186 36.9141 70.3125C46.3887 70.248 55.8633 70.1836 65.625 70.1172C65.3672 69.8594 65.1094 69.6016 64.8438 69.3359C64.5754 68.7993 64.6477 68.3082 64.6511 67.72C64.6392 65.5146 64.1245 64.3637 62.6953 62.6953C62.4031 62.111 62.4165 61.7887 62.5 61.1328C62.9488 60.3157 63.5103 59.575 64.0953 58.8509C64.5688 57.9937 64.5622 57.2984 64.563 56.3354C64.5741 54.2799 64.5741 54.2799 65.2344 53.5156C65.657 53.2768 65.657 53.2768 66.1377 53.1128C66.3109 53.0486 66.4841 52.9844 66.6626 52.9182C66.9912 52.8031 67.3207 52.6903 67.6514 52.581C69.019 52.0705 69.6633 51.154 70.5078 50C70.9922 49.3741 71.3027 49.0514 72.1191 48.9258Z" fill="#F1911B"/>
<path d="M67.9688 70.7031C68.953 71.1606 69.4217 71.5639 70.044 72.4609C70.7313 73.4744 70.7313 73.4744 71.6797 74.2187C72.5696 74.1886 73.2875 74.0192 74.1211 73.7183C75.4019 73.276 76.3092 73.3005 77.5391 73.8281C78.4792 74.2255 79.0618 74.4187 80.0781 74.2187C80.8607 73.5715 81.4015 72.7231 81.9824 71.8994C82.4219 71.2891 82.4219 71.2891 83.0078 70.8984C83.2012 70.8984 83.3945 70.8984 83.5938 70.8984C83.6119 73.3042 83.6257 75.7099 83.6342 78.1157C83.6383 79.2327 83.6439 80.3497 83.6527 81.4668C83.6612 82.5445 83.6659 83.6221 83.6679 84.6998C83.6693 85.1113 83.6722 85.5228 83.6764 85.9343C83.682 86.51 83.6828 87.0855 83.6825 87.6612C83.6853 87.8319 83.6881 88.0026 83.691 88.1784C83.6831 89.3288 83.6831 89.3288 83.2391 89.9465C82.738 90.2847 82.3426 90.3923 81.737 90.3612C80.4613 90.0289 79.3295 89.1301 78.2322 88.415C77.8867 88.1916 77.5384 87.9731 77.1896 87.7548C76.9848 87.6219 76.78 87.4889 76.5689 87.3519C75.9876 87.0508 75.9876 87.0508 75.38 87.2246C74.8106 87.4972 74.2908 87.7909 73.7625 88.1363C73.4748 88.3195 73.4748 88.3195 73.1812 88.5063C72.7828 88.7629 72.3855 89.0213 71.9895 89.2815C70.0772 90.4904 70.0772 90.4904 68.75 90.2344C68.3219 89.9486 68.3219 89.9486 67.9688 89.4531C67.856 88.8498 67.8701 88.2554 67.8801 87.6432C67.8799 87.3687 67.8799 87.3687 67.8797 87.0887C67.8803 86.4842 67.8863 85.8798 67.8925 85.2753C67.8939 84.856 67.895 84.4367 67.8958 84.0175C67.8988 82.9142 67.9065 81.811 67.9151 80.7077C67.9231 79.5818 67.9267 78.4559 67.9306 77.33C67.939 75.121 67.9523 72.9121 67.9688 70.7031Z" fill="#485058"/>
<path d="M80.6641 49.8047C81.1972 50.3082 81.6347 50.7719 82.0312 51.3916C82.837 52.5498 84.0148 52.7305 85.321 53.0556C86.0757 53.3797 86.5502 53.7598 86.9141 54.4922C87.0331 55.1129 87.0332 55.7171 87.0239 56.3477C87.0075 57.9771 87.3626 58.7605 88.4277 60.0098C88.9205 60.7141 89.0412 61.3123 89.0045 62.1674C88.729 63.2266 87.987 64.0129 87.3047 64.8438C86.9267 65.5998 87.0442 66.5926 87.0255 67.4335C86.9814 68.5544 86.8215 69.258 85.9795 70.0577C85.4332 70.3794 84.9023 70.5186 84.2896 70.6787C83.2756 70.9805 82.6842 71.2061 82.0312 72.0703C81.7954 72.3715 81.5594 72.6726 81.3232 72.9736C81.212 73.1212 81.1007 73.2687 80.986 73.4207C80.2142 74.3973 80.2142 74.3973 79.3823 74.4995C78.692 74.478 78.1704 74.2968 77.5391 74.0234C76.1292 73.4235 75.2253 73.5332 73.8159 74.0356C72.8876 74.3603 72.2449 74.582 71.2891 74.2188C70.8418 73.8004 70.4722 73.3496 70.1172 72.8516C70.3468 72.5857 70.3468 72.5857 70.5811 72.3145C70.6888 72.1878 70.7966 72.0612 70.9076 71.9307C71.1758 71.6169 71.4467 71.3053 71.7194 70.9953C76.6001 65.3353 79.6761 58.4099 80.4054 50.9598C80.4688 50.3906 80.4688 50.3906 80.6641 49.8047Z" fill="#EE7C1D"/>
<path d="M29.3479 40.5036C29.5307 40.5023 29.7135 40.5011 29.9018 40.4998C30.5147 40.4968 31.1273 40.5008 31.7402 40.5048C32.1794 40.5041 32.6186 40.503 33.0578 40.5015C34.2511 40.4987 35.4443 40.5021 36.6375 40.5067C37.8854 40.5106 39.1333 40.5094 40.3812 40.509C42.4769 40.509 44.5726 40.5128 46.6683 40.5191C48.8243 40.5256 50.9803 40.5283 53.1363 40.5271C55.7348 40.5257 58.3333 40.5271 60.9318 40.5314C61.9242 40.533 62.9166 40.5335 63.909 40.5332C65.0774 40.533 66.2457 40.5358 67.4141 40.5408C67.8432 40.5422 68.2724 40.5426 68.7016 40.542C69.2867 40.5413 69.8717 40.5441 70.4568 40.5479C70.6273 40.5469 70.7978 40.5459 70.9735 40.5448C71.8881 40.5551 72.5011 40.6131 73.2422 41.2109C73.5165 41.7596 73.4861 42.1656 73.4375 42.7734C73.0899 43.3859 72.9447 43.5236 72.2656 43.75C71.6769 43.7705 71.0926 43.7797 70.5037 43.78C70.3213 43.7809 70.1388 43.7817 69.9508 43.7826C69.3368 43.7852 68.7228 43.7865 68.1088 43.7876C67.6697 43.7892 67.2305 43.7908 66.7914 43.7925C65.3472 43.7976 63.903 43.8006 62.4588 43.8034C61.9621 43.8044 61.4655 43.8055 60.9688 43.8065C58.9036 43.8108 56.8384 43.8144 54.7732 43.8166C54.2374 43.8172 53.7016 43.8178 53.1658 43.8184C52.9661 43.8186 52.9661 43.8186 52.7623 43.8188C50.6039 43.8213 48.4455 43.8278 46.2871 43.8359C44.0714 43.8442 41.8557 43.8487 39.64 43.8498C38.3959 43.8505 37.1517 43.8529 35.9076 43.8592C34.7376 43.8651 33.5677 43.8663 32.3978 43.864C31.968 43.864 31.5381 43.8656 31.1083 43.869C30.5223 43.8734 29.9366 43.8718 29.3505 43.8687C29.1798 43.8714 29.009 43.8741 28.833 43.8769C27.9802 43.8658 27.6415 43.8292 26.9452 43.2909C26.5625 42.7734 26.5625 42.7734 26.4404 42.1875C26.7762 40.576 27.9579 40.4837 29.3479 40.5036Z" fill="#485159"/>
<path d="M29.0513 46.7536C29.2022 46.7523 29.3531 46.7511 29.5086 46.7498C30.0135 46.7468 30.5181 46.7508 31.023 46.7548C31.3853 46.7541 31.7475 46.753 32.1097 46.7515C33.0932 46.7487 34.0765 46.7521 35.0599 46.7567C36.0889 46.7606 37.1178 46.7594 38.1467 46.759C39.8747 46.759 41.6025 46.7629 43.3305 46.7691C45.3285 46.7763 47.3265 46.778 49.3245 46.7767C51.2461 46.7754 53.1678 46.7775 55.0894 46.7814C55.9074 46.783 56.7254 46.7835 57.5434 46.7832C58.5066 46.783 59.4697 46.7858 60.4328 46.7908C60.7864 46.7922 61.14 46.7926 61.4936 46.792C61.9761 46.7913 62.4584 46.7941 62.9409 46.7979C63.151 46.7964 63.151 46.7964 63.3655 46.7948C64.2144 46.8063 64.7538 46.9405 65.4297 47.4609C65.704 48.0096 65.6736 48.4156 65.625 49.0234C65.2774 49.6359 65.1322 49.7736 64.4531 50C63.9629 50.0203 63.4781 50.0297 62.9878 50.03C62.762 50.0313 62.762 50.0313 62.5316 50.0326C62.0256 50.0352 61.5195 50.0364 61.0135 50.0376C60.6513 50.0392 60.2891 50.0408 59.927 50.0425C58.7364 50.0476 57.5458 50.0506 56.3553 50.0534C55.9457 50.0544 55.5361 50.0555 55.1265 50.0565C53.4232 50.0608 51.7199 50.0644 50.0166 50.0666C47.5739 50.0698 45.1312 50.0763 42.6885 50.0874C40.9718 50.0949 39.255 50.0988 37.5382 50.0998C36.5124 50.1005 35.4866 50.1029 34.4607 50.1092C33.496 50.1151 32.5313 50.1163 31.5665 50.114C31.2123 50.114 30.858 50.1156 30.5038 50.119C30.0204 50.1234 29.5374 50.1218 29.054 50.1187C28.9136 50.1214 28.7732 50.1241 28.6285 50.1269C27.8756 50.115 27.56 50.0166 26.9637 49.5409C26.5625 49.0234 26.5625 49.0234 26.4404 48.4375C26.7358 47.0196 27.7492 46.7309 29.0513 46.7536Z" fill="#485159"/>
<path d="M83.5938 70.8984C83.6118 73.3042 83.6257 75.7099 83.6342 78.1157C83.6383 79.2327 83.6438 80.3497 83.6527 81.4668C83.6612 82.5445 83.6658 83.6221 83.6679 84.6998C83.6693 85.1113 83.6721 85.5228 83.6764 85.9343C83.682 86.51 83.6828 87.0855 83.6824 87.6612C83.6853 87.8319 83.6881 88.0026 83.691 88.1784C83.6831 89.3288 83.6831 89.3288 83.2391 89.9465C82.7379 90.2847 82.3426 90.3924 81.7369 90.3612C80.4613 90.0289 79.3295 89.1301 78.2322 88.4151C77.8867 88.1916 77.5384 87.9731 77.1896 87.7548C76.9848 87.6219 76.7799 87.4889 76.5689 87.3519C75.9817 87.0451 75.9817 87.0451 75.3514 87.2521C75.171 87.3339 74.9906 87.4157 74.8047 87.5C74.5146 87.5967 74.5146 87.5967 74.2188 87.6953C74.5073 86.6205 74.8015 85.5482 75.1198 84.4818C76.0284 81.4023 76.6696 78.3108 77.2357 75.1542C77.3438 74.6094 77.3438 74.6094 77.5391 74.0234C77.668 74.0557 77.7969 74.0879 77.9297 74.1211C79.0069 74.3285 79.0069 74.3285 80.0781 74.2188C80.8646 73.5798 81.403 72.721 81.9824 71.8994C82.4821 71.2055 82.7207 70.8984 83.5938 70.8984Z" fill="#3C454B"/>
<path d="M28.8141 53.0036C28.9394 53.0023 29.0648 53.0011 29.1939 52.9998C29.6125 52.9968 30.0307 53.0008 30.4493 53.0048C30.75 53.0041 31.0506 53.003 31.3513 53.0015C32.1669 52.9987 32.9823 53.0021 33.7979 53.0067C34.6516 53.0106 35.5054 53.0094 36.3591 53.009C37.7928 53.009 39.2265 53.0129 40.6602 53.0191C42.3174 53.0263 43.9745 53.028 45.6317 53.0267C47.2264 53.0254 48.821 53.0275 50.4156 53.0314C51.094 53.033 51.7724 53.0335 52.4509 53.0332C53.2499 53.033 54.0488 53.0358 54.8478 53.0408C55.141 53.0422 55.4341 53.0426 55.7272 53.042C56.1276 53.0413 56.5278 53.0441 56.9281 53.0479C57.1521 53.0487 57.376 53.0494 57.6068 53.0501C58.2736 53.1338 58.6433 53.3125 59.1797 53.7109C59.454 54.2596 59.4236 54.6656 59.375 55.2734C59.0274 55.8859 58.8822 56.0236 58.2031 56.25C57.7941 56.2699 57.3846 56.278 56.9751 56.28C56.7177 56.2817 56.4603 56.2834 56.1951 56.2851C55.9091 56.286 55.6232 56.2868 55.3372 56.2876C55.0366 56.2892 54.736 56.2908 54.4354 56.2925C53.4478 56.2976 52.4601 56.3006 51.4725 56.3034C51.1325 56.3044 50.7926 56.3055 50.4526 56.3065C49.0389 56.3108 47.6251 56.3144 46.2113 56.3166C44.1846 56.3198 42.158 56.3263 40.1313 56.3374C38.7064 56.3449 37.2816 56.3488 35.8568 56.3498C35.0056 56.3505 34.1544 56.3529 33.3033 56.3592C32.5026 56.3651 31.7021 56.3663 30.9015 56.364C30.6077 56.364 30.314 56.3656 30.0202 56.369C29.6189 56.3734 29.218 56.3718 28.8167 56.3687C28.5922 56.3694 28.3677 56.37 28.1365 56.3707C27.3509 56.212 27.058 55.8897 26.5625 55.2734C26.4404 54.6875 26.4404 54.6875 26.5625 54.1015C27.2667 53.2263 27.698 53.0029 28.8141 53.0036Z" fill="#485159"/>
<path d="M28.7547 59.2524C28.9995 59.2499 29.2443 59.2474 29.4965 59.2449C29.7663 59.2471 30.0361 59.2494 30.3059 59.2518C30.5911 59.2508 30.8764 59.2494 31.1617 59.2476C31.9353 59.2439 32.7088 59.2465 33.4824 59.2503C34.2923 59.2535 35.1023 59.2518 35.9123 59.2508C37.2724 59.2499 38.6325 59.253 39.9926 59.2585C41.5646 59.2647 43.1365 59.2647 44.7086 59.2614C46.2214 59.2583 47.7342 59.2596 49.2471 59.2629C49.8907 59.2642 50.5342 59.264 51.1777 59.2626C51.9357 59.2611 52.6936 59.2635 53.4516 59.2688C53.7296 59.2702 54.0076 59.2702 54.2856 59.2688C54.6654 59.2671 55.0452 59.2707 55.425 59.2745C55.7436 59.2754 55.7436 59.2754 56.0687 59.2762C56.7771 59.3986 57.1067 59.6599 57.6172 60.1563C57.7469 60.5469 57.7469 60.5469 57.7393 60.9376C57.7418 61.0665 57.7443 61.1954 57.7469 61.3282C57.5445 61.9377 57.166 62.1482 56.6406 62.5001C56.0687 62.5989 56.0687 62.5989 55.425 62.6006C55.0578 62.6043 55.0578 62.6043 54.6831 62.6081C54.4134 62.6069 54.1436 62.6056 53.8738 62.6042C53.5886 62.6056 53.3033 62.6073 53.018 62.6093C52.2444 62.6137 51.4709 62.6132 50.6973 62.6114C50.0513 62.6104 49.4052 62.6119 48.7592 62.6133C47.2351 62.6166 45.7111 62.6159 44.1871 62.6126C42.6151 62.6093 41.0431 62.6124 39.4711 62.6187C38.1209 62.6239 36.7707 62.6254 35.4205 62.6237C34.6143 62.6227 33.8082 62.6232 33.002 62.6272C32.244 62.6308 31.4861 62.6296 30.7281 62.6248C30.4501 62.6238 30.1721 62.6245 29.8941 62.627C29.5143 62.6301 29.1345 62.6266 28.7547 62.6227C28.4361 62.6226 28.4361 62.6226 28.111 62.6224C27.3456 62.4587 27.0491 62.1228 26.5625 61.5235C26.4404 60.9376 26.4404 60.9376 26.5625 60.3516C27.251 59.5036 27.6661 59.2529 28.7547 59.2524Z" fill="#485159"/>
<path d="M78.125 55.8595C78.6008 56.0974 79.0401 56.3582 79.4922 56.6407C78.6298 60.5573 76.7697 64.5311 74.4141 67.7736C72.9072 67.5376 71.6802 66.7338 70.7153 65.5641C69.5968 63.9865 69.3309 62.4295 69.5862 60.5287C69.9372 58.8276 70.8248 57.4159 72.2656 56.4454C74.175 55.3483 76.0186 55.1574 78.125 55.8595Z" fill="#F1AD2D"/>
<path d="M40.6696 31.1299C41.0018 31.1283 41.0018 31.1283 41.3407 31.1266C42.0727 31.1243 42.8044 31.1291 43.5364 31.1341C44.045 31.1344 44.5536 31.1344 45.0622 31.1341C46.1281 31.1341 47.1939 31.1379 48.2598 31.1442C49.491 31.1514 50.7221 31.1531 51.9533 31.1518C53.1391 31.1505 54.3249 31.1527 55.5107 31.1564C56.0147 31.1578 56.5187 31.1584 57.0227 31.1583C57.7269 31.1586 58.4309 31.1628 59.1351 31.168C59.3437 31.1675 59.5523 31.1669 59.7673 31.1663C61.5492 31.1869 61.5492 31.1869 62.3047 31.836C62.579 32.3847 62.5486 32.7907 62.5 33.3985C62.1524 34.011 62.0072 34.1487 61.3281 34.3751C61.0181 34.3945 60.7073 34.4031 60.3967 34.4051C60.205 34.4068 60.0134 34.4085 59.8159 34.4102C59.5008 34.4115 59.5008 34.4115 59.1794 34.4127C58.8473 34.4151 58.8473 34.4151 58.5085 34.4176C57.7745 34.4224 57.0405 34.4257 56.3065 34.4285C56.0561 34.4295 55.8057 34.4305 55.5478 34.4316C54.4959 34.4358 53.4441 34.4395 52.3922 34.4417C50.8855 34.4449 49.3789 34.4514 47.8722 34.4625C46.6845 34.471 45.4969 34.4741 44.3092 34.4753C43.8041 34.4766 43.299 34.4796 42.7939 34.4843C42.0878 34.4904 41.382 34.4905 40.6758 34.489C40.4666 34.4922 40.2573 34.4954 40.0417 34.4987C38.6271 34.4868 38.6271 34.4868 37.8585 33.9163C37.5 33.3985 37.5 33.3985 37.3779 32.8126C37.7489 31.0321 39.1721 31.1113 40.6696 31.1299Z" fill="#485159"/>
<path d="M79.4922 56.8359C80.5661 57.2975 81.1387 58.1747 81.6505 59.2003C82.2637 60.7957 82.2814 62.6311 81.6597 64.2273C80.7754 65.9644 79.4615 67.1044 77.6733 67.8467C76.65 68.0201 75.6445 67.9993 74.6094 67.9688C74.6094 67.0552 74.915 66.6176 75.3906 65.8813C77.093 63.1453 78.4483 60.1427 79.2969 57.0312C79.3613 56.9668 79.4258 56.9023 79.4922 56.8359Z" fill="#F1901B"/>
<path d="M88.8672 62.3047C88.9316 62.3047 88.9961 62.3047 89.0625 62.3047C89.0625 62.8848 89.0625 63.4648 89.0625 64.0625C88.6758 64.0625 88.2891 64.0625 87.8906 64.0625C88.2129 63.4824 88.5352 62.9023 88.8672 62.3047Z" fill="#E2D3BF"/>
</svg>
