<svg width="64" height="64" viewBox="0 0 64 64" fill="none" xmlns="http://www.w3.org/2000/svg">
<g clip-path="url(#clip0_440_463)">
<path d="M23.8759 -0.0217037C24.1125 -0.0241103 24.1125 -0.0241103 24.3539 -0.0265656C24.5269 -0.0275866 24.7 -0.0285171 24.8731 -0.0293636C24.9602 -0.0298731 25.0473 -0.0303825 25.137 -0.0309074C25.5982 -0.0335154 26.0595 -0.0353027 26.5207 -0.0364742C26.9962 -0.0378554 27.4717 -0.0421531 27.9472 -0.0471207C28.3135 -0.0503955 28.6798 -0.0514361 29.0462 -0.0518844C29.2214 -0.0524919 29.3966 -0.0539415 29.5718 -0.0562642C29.8177 -0.0593203 30.0636 -0.0588893 30.3095 -0.0583248C30.4492 -0.0590581 30.5889 -0.0597914 30.7328 -0.0605469C31.221 0.0153294 31.4907 0.195492 31.8751 0.500422C32.3413 1.22391 32.3044 2.00952 32.3243 2.84661C32.3494 3.0465 32.3494 3.0465 32.3751 3.25042C32.8156 3.54412 33.0044 3.53182 33.5259 3.5346C33.6793 3.53718 33.8326 3.53976 33.9905 3.54241C34.3131 3.54565 34.6357 3.54794 34.9583 3.54925C36.4411 3.57721 36.4411 3.57721 37.0001 4.12542C37.227 4.46368 37.3751 4.83781 37.3751 5.25042C37.5096 5.24959 37.6442 5.24876 37.7829 5.2479C39.0519 5.24029 40.3209 5.23467 41.59 5.23099C42.2424 5.22904 42.8948 5.22638 43.5472 5.22213C44.1769 5.21805 44.8067 5.21581 45.4364 5.21484C45.6765 5.21415 45.9166 5.2128 46.1567 5.21077C46.4934 5.20805 46.83 5.20768 47.1666 5.20785C47.2656 5.2065 47.3646 5.20515 47.4666 5.20376C48.1687 5.20768 48.6777 5.35333 49.2286 5.81829C49.2872 5.88613 49.3459 5.95397 49.4063 6.02386C49.4662 6.09008 49.5262 6.15631 49.5879 6.22454C50.0598 7.02748 50.0379 7.9506 50.0399 8.8532C50.0412 8.98502 50.0424 9.11684 50.0437 9.25266C50.0476 9.6855 50.0497 10.1183 50.0518 10.5512C50.0542 10.8524 50.0566 11.1537 50.0591 11.4549C50.0656 12.2457 50.0705 13.0364 50.0752 13.8272C50.0802 14.6349 50.0866 15.4427 50.0928 16.2504C50.1049 17.8337 50.1155 19.4171 50.1251 21.0004C50.3862 20.5993 50.6472 20.198 50.9082 19.7968C50.9818 19.6838 51.0554 19.5707 51.1312 19.4543C51.6808 18.6092 52.2209 17.7591 52.7523 16.9025C53.7523 15.3044 53.7523 15.3044 54.7501 15.0004C56.1387 14.7495 57.0172 15.2558 58.1251 16.0004C58.2198 16.0596 58.3145 16.1187 58.4122 16.1796C59.0265 16.58 59.3939 17.0571 59.6251 17.7504C59.7627 18.9766 59.5474 19.7361 58.8751 20.7504C58.7738 20.9085 58.6727 21.0667 58.5718 21.225C58.3411 21.5854 58.1081 21.9442 57.8736 22.3022C57.4957 22.8801 57.1259 23.463 56.7579 24.0473C56.6956 24.1462 56.6333 24.245 56.5691 24.3469C56.4425 24.5477 56.316 24.7486 56.1896 24.9495C55.8769 25.446 55.5634 25.9419 55.2501 26.4379C54.8778 27.0272 54.5057 27.6165 54.1338 28.206C53.4584 29.2767 52.7811 30.3463 52.1016 31.4145C52.0334 31.5218 51.9652 31.6291 51.8949 31.7396C51.8273 31.8458 51.7597 31.952 51.69 32.0615C51.6252 32.1663 51.5604 32.2711 51.4936 32.3792C51.2501 32.7504 51.2501 32.7504 50.9658 33.1061C49.975 34.4213 49.9679 35.5799 49.9898 37.1847C49.9893 37.4518 49.9883 37.7189 49.9869 37.986C49.9843 38.7066 49.9885 39.427 49.994 40.1475C49.9984 40.9034 49.9963 41.6593 49.9949 42.4153C49.993 43.8457 49.9967 45.2761 50.0025 46.7066C50.0108 48.8066 50.0116 50.9067 50.0115 53.0067C50.0115 53.1609 50.0115 53.3151 50.0115 53.474C50.0115 53.7814 50.0115 54.0889 50.0115 54.3964C50.0115 55.2953 50.0135 56.1942 50.017 57.0932C50.019 57.6521 50.0201 58.211 50.021 58.7699C50.0217 59.0287 50.0228 59.2875 50.0244 59.5463C50.0265 59.9 50.0271 60.2537 50.0273 60.6074C50.0288 60.7603 50.0288 60.7603 50.0303 60.9163C50.0282 61.7873 49.9505 62.6296 49.336 63.2973C49.2643 63.3782 49.1926 63.4591 49.1187 63.5424C48.6285 63.9609 48.1457 64.0317 47.5154 64.0322C47.3675 64.033 47.2195 64.0337 47.0671 64.0344C46.824 64.0337 46.824 64.0337 46.576 64.033C46.4017 64.0334 46.2274 64.0339 46.0531 64.0345C45.5743 64.0357 45.0954 64.0355 44.6166 64.0349C44.1001 64.0346 43.5837 64.0358 43.0672 64.0367C42.0555 64.0383 41.0437 64.0385 40.032 64.0382C39.2097 64.038 38.3875 64.0382 37.5653 64.0387C37.4483 64.0388 37.3314 64.0389 37.2109 64.039C36.9733 64.0391 36.7357 64.0393 36.4981 64.0394C34.2693 64.0408 32.0405 64.0405 29.8117 64.0397C27.7721 64.0391 25.7324 64.0405 23.6928 64.0429C21.5991 64.0453 19.5055 64.0463 17.4118 64.0459C16.2362 64.0456 15.0605 64.0459 13.8848 64.0477C12.8839 64.0492 11.8831 64.0494 10.8823 64.0479C10.3716 64.0471 9.86088 64.047 9.35016 64.0485C8.88267 64.0498 8.41521 64.0495 7.94773 64.0477C7.6984 64.0472 7.44908 64.0486 7.19976 64.05C7.05148 64.0491 6.9032 64.0482 6.75043 64.0473C6.62271 64.0473 6.49498 64.0473 6.36339 64.0473C5.7223 63.9646 5.24105 63.6858 4.83599 63.1879C4.7746 63.1144 4.71321 63.041 4.64996 62.9653C4.32197 62.4952 4.35725 62.0126 4.35863 61.4646C4.35837 61.3707 4.35811 61.2768 4.35785 61.18C4.35714 60.8628 4.35732 60.5456 4.3575 60.2284C4.35718 59.9997 4.3568 59.7709 4.35637 59.5422C4.35536 58.9117 4.35514 58.2813 4.35505 57.6508C4.35482 56.9716 4.35387 56.2923 4.35303 55.6131C4.35133 54.1271 4.35058 52.6411 4.35003 51.155C4.34968 50.2277 4.34915 49.3003 4.34859 48.3729C4.34707 45.8068 4.34578 43.2407 4.34536 40.6746C4.34533 40.5103 4.3453 40.346 4.34527 40.1767C4.34525 40.0119 4.34522 39.8472 4.34519 39.6775C4.34514 39.3437 4.34508 39.01 4.34502 38.6762C4.34501 38.5934 4.345 38.5107 4.34498 38.4254C4.34453 35.7413 4.34254 33.0572 4.33962 30.3731C4.33655 27.5361 4.33484 24.6991 4.33469 21.8621C4.33457 20.3153 4.33385 18.7684 4.33158 17.2216C4.32966 15.9047 4.32902 14.5878 4.33005 13.2708C4.33054 12.5986 4.33042 11.9263 4.32867 11.2541C4.32708 10.639 4.32722 10.024 4.32874 9.40894C4.32899 9.18611 4.3286 8.96328 4.32751 8.74045C4.32613 8.43807 4.32706 8.13579 4.32856 7.83342C4.32761 7.74646 4.32666 7.6595 4.32568 7.5699C4.33296 6.89517 4.50511 6.39096 4.9649 5.89251C5.03837 5.83273 5.11185 5.77295 5.18755 5.71136C5.29777 5.61927 5.29777 5.61927 5.41021 5.52532C5.91318 5.17439 6.45503 5.23361 7.04092 5.23623C7.14704 5.23621 7.25317 5.23619 7.36251 5.23618C7.71353 5.23626 8.06455 5.23724 8.41558 5.23821C8.65886 5.23845 8.90215 5.23863 9.14543 5.23875C9.78597 5.23923 10.4265 5.24046 11.067 5.24184C11.7206 5.24312 12.3741 5.24369 13.0276 5.24432C14.3101 5.24566 15.5926 5.24779 16.8751 5.25042C16.8988 5.17287 16.9225 5.09532 16.947 5.01542C16.9953 4.86307 16.9953 4.86307 17.0446 4.70764C17.076 4.60688 17.1075 4.50613 17.1399 4.40232C17.2501 4.12542 17.2501 4.12542 17.5377 3.80999C18.2678 3.51855 18.9945 3.55045 19.7735 3.5473C20.0904 3.54411 20.4073 3.53993 20.7242 3.5346C20.8641 3.53386 21.004 3.53311 21.1481 3.53234C21.5259 3.52631 21.5259 3.52631 21.8751 3.25042C21.9345 2.86133 21.9345 2.86133 21.9376 2.41448C21.9825 1.55422 22.0558 0.993041 22.6329 0.328547C23.0554 -0.0258555 23.3313 -0.0168932 23.8759 -0.0217037Z" fill="#F3F3F3"/>
<path d="M7.05239 5.23559C7.21341 5.23556 7.21341 5.23556 7.37768 5.23554C7.73276 5.23562 8.08784 5.2366 8.44292 5.23758C8.68901 5.23781 8.9351 5.23799 9.18118 5.23811C9.82912 5.23859 10.4771 5.23982 11.125 5.2412C11.7861 5.24248 12.4471 5.24305 13.1082 5.24368C14.4055 5.24502 15.7028 5.24722 17.0001 5.24978C17.0001 6.52853 17.0001 7.80728 17.0001 9.12478C16.1133 9.13179 16.1133 9.13179 15.2085 9.13894C14.8343 9.14273 14.46 9.14662 14.0857 9.15091C13.4915 9.1577 12.8974 9.16409 12.3031 9.16809C11.8241 9.17134 11.3451 9.17638 10.8661 9.18268C10.6833 9.18477 10.5004 9.18621 10.3176 9.18698C10.0616 9.18819 9.80584 9.19169 9.54995 9.19574C9.40422 9.19712 9.25849 9.19851 9.10835 9.19994C8.75895 9.22189 8.75895 9.22189 8.54311 9.38877C8.29286 9.74021 8.32803 10.0223 8.32786 10.4507C8.32732 10.5355 8.32677 10.6202 8.32621 10.7075C8.32483 10.9936 8.32615 11.2795 8.32743 11.5655C8.327 11.7718 8.32641 11.9781 8.32566 12.1844C8.32409 12.753 8.32487 13.3214 8.32603 13.89C8.32688 14.5024 8.32557 15.1149 8.32454 15.7274C8.32287 16.9279 8.32323 18.1284 8.32432 19.3289C8.32516 20.3042 8.32528 21.2795 8.32487 22.2549C8.32481 22.3935 8.32476 22.5321 8.3247 22.6749C8.32458 22.9564 8.32446 23.238 8.32433 23.5195C8.32326 26.162 8.32449 28.8045 8.32651 31.447C8.32818 33.7162 8.32789 35.9855 8.32616 38.2548C8.32416 40.8876 8.32337 43.5203 8.32452 46.1531C8.32464 46.4336 8.32476 46.7142 8.32487 46.9947C8.32493 47.1327 8.32499 47.2708 8.32505 47.413C8.32537 48.3876 8.32482 49.3622 8.32394 50.3368C8.32289 51.5239 8.32317 52.7109 8.32517 53.898C8.32616 54.5041 8.32654 55.1102 8.3253 55.7164C8.32419 56.2706 8.32479 56.8248 8.3268 57.379C8.32722 57.5801 8.327 57.7812 8.32609 57.9823C8.32496 58.2545 8.32611 58.5266 8.32786 58.7988C8.32792 58.9504 8.32798 59.1019 8.32805 59.258C8.3456 59.6223 8.3456 59.6223 8.54212 59.861C8.87961 60.0862 9.19195 60.0458 9.59239 60.0449C9.67846 60.0452 9.76454 60.0455 9.85322 60.0458C10.1423 60.0465 10.4313 60.0444 10.7204 60.0424C10.9273 60.0422 11.1343 60.0423 11.3412 60.0425C11.9037 60.0426 12.4661 60.0404 13.0286 60.0378C13.6162 60.0355 14.2037 60.0352 14.7913 60.0348C15.9042 60.0336 17.0172 60.0306 18.1301 60.0268C19.397 60.0226 20.6639 60.0205 21.9308 60.0187C24.5372 60.0147 27.1437 60.0081 29.7501 59.9998C29.6903 59.9447 29.6305 59.8897 29.569 59.833C29.28 59.5227 29.2727 59.2959 29.2501 58.8748C29.3103 58.5094 29.4114 58.1595 29.5157 57.8045C29.5747 57.5925 29.6335 57.3804 29.6919 57.1682C29.7224 57.0585 29.7529 56.9488 29.7843 56.8358C29.9334 56.2839 30.0645 55.7281 30.1954 55.1717C30.2216 55.0619 30.2478 54.9522 30.2748 54.8391C30.3967 54.3267 30.5141 53.8141 30.6197 53.2981C31.0266 51.3473 31.9657 49.8167 33.0529 48.175C33.4137 47.6256 33.765 47.0703 34.1172 46.5154C34.1913 46.3989 34.2653 46.2825 34.3416 46.1625C35.0019 45.1231 35.6597 44.0821 36.3166 43.0406C36.6275 42.5477 36.9388 42.055 37.2501 41.5623C37.3751 41.3644 37.5001 41.1665 37.6251 40.9685C38.3751 39.781 39.1251 38.5935 39.8751 37.406C39.9369 37.3081 39.9988 37.2102 40.0625 37.1092C40.1877 36.911 40.3129 36.7128 40.4381 36.5146C40.7476 36.0246 41.0571 35.5345 41.3663 35.0442C42.0337 33.9863 42.7031 32.9298 43.3751 31.8748C43.9517 30.9692 44.5276 30.0633 45.1016 29.156C45.1972 29.0052 45.1972 29.0052 45.2947 28.8513C45.353 28.7592 45.4112 28.667 45.4712 28.572C45.5223 28.4914 45.5733 28.4107 45.6259 28.3275C45.8806 27.9115 45.8912 27.6436 45.8926 27.1544C45.8933 27.001 45.894 26.8477 45.8948 26.6897C45.8949 26.5188 45.8951 26.3479 45.8952 26.1771C45.8958 25.9978 45.8964 25.8186 45.8971 25.6394C45.8987 25.1518 45.8995 24.6642 45.9001 24.1766C45.9004 23.8722 45.901 23.5678 45.9015 23.2633C45.9032 22.3115 45.9044 21.3597 45.9049 20.4079C45.9055 19.308 45.9077 18.2081 45.9113 17.1082C45.914 16.2587 45.9153 15.4092 45.9154 14.5597C45.9156 14.052 45.9163 13.5443 45.9185 13.0366C45.9206 12.5592 45.9209 12.0819 45.9198 11.6045C45.9197 11.429 45.9202 11.2536 45.9214 11.0782C45.923 10.8392 45.9221 10.6001 45.921 10.361C45.9213 10.1602 45.9213 10.1602 45.9215 9.95524C45.9012 9.62267 45.9012 9.62267 45.7071 9.39438C45.382 9.16734 45.0921 9.19947 44.7002 9.19574C44.6196 9.19446 44.5391 9.19319 44.4562 9.19188C44.1903 9.18811 43.9246 9.18695 43.6587 9.18582C43.4743 9.18371 43.2899 9.18144 43.1054 9.17902C42.6203 9.17308 42.1351 9.16935 41.6499 9.16609C41.0676 9.16171 40.4854 9.15458 39.9031 9.14791C39.0188 9.13809 38.1345 9.13177 37.2501 9.12478C37.2501 7.84603 37.2501 6.56728 37.2501 5.24978C38.6713 5.24131 40.0926 5.23443 41.5139 5.23035C42.1738 5.2284 42.8338 5.22574 43.4938 5.22149C44.1308 5.21741 44.7678 5.21518 45.4049 5.2142C45.6478 5.21351 45.8907 5.21216 46.1336 5.21013C46.4741 5.20741 46.8146 5.20704 47.1551 5.20721C47.3054 5.20519 47.3054 5.20519 47.4587 5.20312C48.1642 5.20701 48.6747 5.35019 49.2286 5.81765C49.2872 5.88549 49.3459 5.95333 49.4063 6.02322C49.4662 6.08945 49.5262 6.15567 49.5879 6.2239C50.0598 7.02684 50.0379 7.94996 50.0399 8.85257C50.0412 8.98438 50.0424 9.1162 50.0437 9.25202C50.0476 9.68487 50.0497 10.1177 50.0518 10.5506C50.0542 10.8518 50.0566 11.1531 50.0591 11.4543C50.0656 12.245 50.0705 13.0358 50.0752 13.8265C50.0802 14.6343 50.0866 15.442 50.0928 16.2498C50.1049 17.8331 50.1155 19.4164 50.1251 20.9998C50.3862 20.5986 50.6472 20.1974 50.9082 19.7961C50.9818 19.6831 51.0554 19.5701 51.1312 19.4536C51.6808 18.6086 52.2209 17.7585 52.7523 16.9019C53.7523 15.3037 53.7523 15.3037 54.7501 14.9998C56.1387 14.7488 57.0172 15.2552 58.1251 15.9998C58.2198 16.0589 58.3145 16.1181 58.4122 16.179C59.0265 16.5793 59.3939 17.0565 59.6251 17.7498C59.7627 18.976 59.5474 19.7354 58.8751 20.7498C58.7738 20.9078 58.6727 21.0661 58.5718 21.2244C58.3411 21.5848 58.1081 21.9436 57.8736 22.3015C57.4957 22.8795 57.1259 23.4624 56.7579 24.0467C56.6956 24.1455 56.6333 24.2444 56.5691 24.3462C56.4425 24.5471 56.316 24.748 56.1896 24.9489C55.8769 25.4453 55.5634 25.9413 55.2501 26.4373C54.8778 27.0265 54.5057 27.6158 54.1338 28.2053C53.4584 29.2761 52.7811 30.3457 52.1016 31.4138C52.0334 31.5211 51.9652 31.6284 51.8949 31.7389C51.8273 31.8452 51.7597 31.9514 51.69 32.0608C51.6252 32.1657 51.5604 32.2705 51.4936 32.3785C51.2501 32.7498 51.2501 32.7498 50.9658 33.1055C49.975 34.4207 49.9679 35.5792 49.9898 37.184C49.9893 37.4512 49.9883 37.7183 49.9869 37.9854C49.9843 38.7059 49.9885 39.4263 49.994 40.1469C49.9984 40.9028 49.9963 41.6587 49.9948 42.4146C49.993 43.8451 49.9967 45.2755 50.0025 46.7059C50.0108 48.806 50.0116 50.906 50.0115 53.0061C50.0115 53.1603 50.0115 53.3145 50.0115 53.4733C50.0115 53.7808 50.0115 54.0883 50.0115 54.3957C50.0115 55.2947 50.0134 56.1936 50.017 57.0925C50.019 57.6514 50.0201 58.2103 50.021 58.7692C50.0217 59.0281 50.0228 59.2869 50.0244 59.5457C50.0265 59.8994 50.0271 60.2531 50.0273 60.6068C50.0288 60.7597 50.0288 60.7597 50.0303 60.9156C50.0282 61.7867 49.9505 62.629 49.336 63.2967C49.2643 63.3775 49.1926 63.4584 49.1187 63.5418C48.6285 63.9602 48.1457 64.0311 47.5154 64.0316C47.3675 64.0323 47.2195 64.0331 47.0671 64.0338C46.905 64.0333 46.7429 64.0329 46.576 64.0324C46.4017 64.0327 46.2274 64.0332 46.0531 64.0338C45.5743 64.0351 45.0954 64.0348 44.6166 64.0343C44.1001 64.034 43.5837 64.0351 43.0672 64.036C42.0555 64.0376 41.0437 64.0379 40.032 64.0376C39.2097 64.0374 38.3875 64.0376 37.5653 64.0381C37.4483 64.0382 37.3314 64.0383 37.2108 64.0383C36.9733 64.0385 36.7357 64.0386 36.4981 64.0388C34.2693 64.0401 32.0405 64.0399 29.8117 64.0391C27.7721 64.0385 25.7324 64.0399 23.6928 64.0422C21.5991 64.0447 19.5055 64.0457 17.4118 64.0452C16.2362 64.045 15.0605 64.0453 13.8848 64.0471C12.8839 64.0486 11.8831 64.0487 10.8823 64.0472C10.3716 64.0465 9.86088 64.0464 9.35016 64.0478C8.88267 64.0492 8.41521 64.0488 7.94772 64.0471C7.6984 64.0466 7.44908 64.0479 7.19976 64.0494C7.05148 64.0485 6.9032 64.0476 6.75043 64.0466C6.6227 64.0466 6.49498 64.0466 6.36339 64.0466C5.7223 63.964 5.24105 63.6851 4.83599 63.1873C4.7746 63.1138 4.71321 63.0403 4.64996 62.9646C4.32197 62.4946 4.35724 62.0119 4.35862 61.464C4.35837 61.3701 4.35811 61.2761 4.35785 61.1794C4.35714 60.8622 4.35732 60.545 4.3575 60.2277C4.35717 59.999 4.3568 59.7703 4.35637 59.5416C4.35536 58.9111 4.35514 58.2806 4.35505 57.6501C4.35482 56.9709 4.35387 56.2917 4.35303 55.6125C4.35133 54.1265 4.35058 52.6404 4.35003 51.1544C4.34968 50.227 4.34915 49.2997 4.34859 48.3723C4.34707 45.8062 4.34578 43.2401 4.34536 40.6739C4.34533 40.5096 4.3453 40.3453 4.34527 40.176C4.34525 40.0113 4.34522 39.8466 4.34519 39.6769C4.34514 39.3431 4.34508 39.0093 4.34502 38.6755C4.34501 38.5928 4.345 38.51 4.34498 38.4247C4.34453 35.7406 4.34254 33.0565 4.33962 30.3724C4.33655 27.5354 4.33484 24.6984 4.33469 21.8614C4.33457 20.3146 4.33385 18.7678 4.33158 17.221C4.32966 15.904 4.32902 14.5871 4.33005 13.2702C4.33054 12.5979 4.33042 11.9257 4.32867 11.2535C4.32708 10.6384 4.32722 10.0234 4.32874 9.4083C4.32899 9.18547 4.3286 8.96264 4.32751 8.73981C4.32613 8.43744 4.32706 8.13515 4.32856 7.83279C4.32761 7.74582 4.32666 7.65886 4.32568 7.56926C4.33296 6.89453 4.50511 6.39033 4.9649 5.89187C5.03837 5.83209 5.11185 5.77231 5.18755 5.71072C5.26103 5.64933 5.33451 5.58794 5.41021 5.52468C5.91599 5.17179 6.46326 5.23298 7.05239 5.23559Z" fill="#FEC250"/>
<path d="M37.2501 5.24978C38.6714 5.24131 40.0926 5.23443 41.5139 5.23035C42.1739 5.2284 42.8339 5.22574 43.4938 5.22149C44.1309 5.21741 44.7679 5.21518 45.4049 5.2142C45.6479 5.21351 45.8908 5.21216 46.1337 5.21013C46.4742 5.20741 46.8147 5.20704 47.1552 5.20721C47.3054 5.20519 47.3054 5.20519 47.4587 5.20312C48.1643 5.20701 48.6748 5.35019 49.2286 5.81765C49.2873 5.88549 49.3459 5.95333 49.4064 6.02322C49.4663 6.08945 49.5262 6.15567 49.588 6.2239C50.0598 7.02684 50.038 7.94996 50.04 8.85257C50.0418 9.05029 50.0418 9.05029 50.0438 9.25202C50.0476 9.68487 50.0497 10.1177 50.0519 10.5506C50.0542 10.8518 50.0567 11.1531 50.0592 11.4543C50.0656 12.245 50.0706 13.0358 50.0752 13.8265C50.0802 14.6343 50.0866 15.442 50.0929 16.2498C50.105 17.8331 50.1156 19.4164 50.1251 20.9998C50.3862 20.5986 50.6473 20.1974 50.9083 19.7961C50.9819 19.6831 51.0554 19.5701 51.1312 19.4536C51.6808 18.6086 52.2209 17.7585 52.7523 16.9019C53.7524 15.3037 53.7524 15.3037 54.7501 14.9998C56.1388 14.7488 57.0173 15.2552 58.1251 15.9998C58.2672 16.0885 58.2672 16.0885 58.4122 16.179C59.0265 16.5793 59.394 17.0565 59.6251 17.7498C59.7627 18.976 59.5475 19.7354 58.8751 20.7498C58.7738 20.9078 58.6727 21.0661 58.5719 21.2244C58.3431 21.5817 58.1121 21.9374 57.8795 22.2923C57.4675 22.9222 57.0654 23.5582 56.6642 24.1951C56.598 24.3001 56.5318 24.4051 56.4637 24.5132C56.3091 24.7587 56.1545 25.0042 56.0001 25.2498C55.0316 24.754 54.1283 24.1888 53.2301 23.5758C53.1428 23.5175 53.0554 23.4592 52.9654 23.3992C52.8878 23.3464 52.8101 23.2935 52.7301 23.2391C52.4683 23.0877 52.4683 23.0877 52.0001 23.1248C51.7835 23.3608 51.7835 23.3608 51.6026 23.6844C51.5287 23.8056 51.4547 23.9268 51.3784 24.0517C51.3 24.1841 51.2216 24.3165 51.1407 24.4529C50.9724 24.7298 50.8039 25.0067 50.6354 25.2835C50.5502 25.4244 50.4651 25.5653 50.3774 25.7105C50.0027 26.3257 49.6153 26.9324 49.2267 27.5388C49.0816 27.7662 48.9366 27.9936 48.7916 28.221C48.7218 28.3305 48.652 28.44 48.58 28.5528C48.2603 29.0551 47.9427 29.5587 47.6251 30.0623C47.0856 30.9178 46.5435 31.7717 46.0001 32.6248C45.2052 33.8728 44.4144 35.1232 43.6251 36.3748C42.7618 37.7436 41.896 39.1108 41.0265 40.4758C40.5578 41.2119 40.0907 41.9491 39.6251 42.6873C39.0855 43.5428 38.5435 44.3967 38.0001 45.2498C37.2675 46.4 36.5382 47.5522 35.8108 48.7057C35.6186 49.0101 35.4261 49.3143 35.2335 49.6184C34.523 50.7409 33.8173 51.8659 33.1251 52.9998C33.2897 53.0462 33.2897 53.0462 33.4576 53.0935C34.6628 53.5446 35.4612 54.568 36.1251 55.6248C36.9851 54.8373 37.6177 54.0063 38.2267 53.0154C38.3128 52.8781 38.3988 52.7408 38.4875 52.5993C38.6615 52.3217 38.8348 52.0438 39.0075 51.7654C39.2853 51.3182 39.5666 50.8733 39.8486 50.4287C40.0305 50.1418 40.2117 49.8546 40.3927 49.5672C40.7613 48.9819 41.1307 48.3971 41.5001 47.8123C41.8723 47.223 42.2445 46.6337 42.6163 46.0442C42.926 45.5533 43.2361 45.0626 43.5464 44.5721C43.6905 44.3441 43.8344 44.1161 43.9783 43.8879C44.2144 43.5135 44.4509 43.1394 44.6876 42.7654C44.7611 42.6487 44.8345 42.532 44.9102 42.4117C44.9798 42.3019 45.0495 42.1921 45.1212 42.0789C45.1824 41.9821 45.2435 41.8852 45.3065 41.7855C45.5218 41.4677 45.7591 41.1733 46.0001 40.8748C46.0118 43.3108 46.0206 45.7469 46.026 48.183C46.0286 49.3141 46.0321 50.4451 46.0378 51.5762C46.0428 52.5619 46.046 53.5476 46.0472 54.5334C46.0478 55.0554 46.0493 55.5774 46.053 56.0995C46.0564 56.5907 46.0574 57.0819 46.0567 57.5732C46.0568 57.7536 46.0578 57.934 46.0597 58.1144C46.0622 58.3605 46.0613 58.6067 46.0602 58.8528C46.0607 58.9906 46.0612 59.1284 46.0616 59.2704C45.9842 59.7166 45.8659 59.8625 45.5001 60.1248C45.196 60.1877 45.196 60.1877 44.8502 60.1883C44.653 60.1904 44.653 60.1904 44.4519 60.1925C44.2366 60.191 44.2366 60.191 44.017 60.1895C43.8653 60.1904 43.7136 60.1912 43.5574 60.1921C43.1418 60.194 42.7263 60.1935 42.3107 60.1919C41.8757 60.1907 41.4407 60.1919 41.0057 60.1926C40.2752 60.1935 39.5447 60.1923 38.8141 60.19C37.9697 60.1872 37.1254 60.1881 36.281 60.1909C35.5558 60.1931 34.8306 60.1935 34.1055 60.1922C33.6724 60.1914 33.2394 60.1913 32.8064 60.1929C32.3236 60.1946 31.841 60.1923 31.3583 60.1895C31.2147 60.1905 31.0712 60.1915 30.9233 60.1925C30.7919 60.1911 30.6605 60.1897 30.5251 60.1883C30.4109 60.1881 30.2968 60.1879 30.1793 60.1877C29.7782 60.1047 29.6295 59.9391 29.3751 59.6248C29.161 58.9664 29.3278 58.4444 29.5157 57.8045C29.5748 57.5925 29.6335 57.3804 29.692 57.1682C29.7225 57.0585 29.753 56.9488 29.7843 56.8358C29.9334 56.2839 30.0645 55.7281 30.1954 55.1717C30.2216 55.0619 30.2479 54.9522 30.2749 54.8391C30.3967 54.3267 30.5141 53.8141 30.6197 53.2981C31.0267 51.3473 31.9657 49.8167 33.053 48.175C33.4138 47.6256 33.7651 47.0703 34.1173 46.5154C34.2283 46.3407 34.2283 46.3407 34.3416 46.1625C35.002 45.1231 35.6597 44.0821 36.3166 43.0406C36.6276 42.5477 36.9389 42.055 37.2501 41.5623C37.3751 41.3644 37.5001 41.1665 37.6251 40.9685C38.3751 39.781 39.1251 38.5935 39.8751 37.406C39.937 37.3081 39.9988 37.2102 40.0625 37.1092C40.1877 36.911 40.3129 36.7128 40.4382 36.5146C40.7477 36.0246 41.0571 35.5345 41.3663 35.0442C42.0337 33.9863 42.7032 32.9298 43.3751 31.8748C43.9517 30.9692 44.5277 30.0633 45.1017 29.156C45.1973 29.0052 45.1973 29.0052 45.2948 28.8513C45.353 28.7592 45.4113 28.667 45.4713 28.572C45.5223 28.4914 45.5734 28.4107 45.626 28.3275C45.8807 27.9115 45.8913 27.6436 45.8927 27.1544C45.8934 27.001 45.8941 26.8477 45.8948 26.6897C45.895 26.5188 45.8951 26.3479 45.8953 26.1771C45.8958 25.9978 45.8965 25.8186 45.8971 25.6394C45.8988 25.1518 45.8996 24.6642 45.9001 24.1766C45.9005 23.8722 45.901 23.5678 45.9016 23.2633C45.9033 22.3115 45.9045 21.3597 45.905 20.4079C45.9055 19.308 45.9077 18.2081 45.9113 17.1082C45.914 16.2587 45.9153 15.4092 45.9155 14.5597C45.9156 14.052 45.9163 13.5443 45.9186 13.0366C45.9206 12.5592 45.9209 12.0819 45.9198 11.6045C45.9197 11.429 45.9203 11.2536 45.9215 11.0782C45.9231 10.8392 45.9221 10.6001 45.921 10.361C45.9212 10.2271 45.9214 10.0932 45.9216 9.95524C45.9013 9.62267 45.9013 9.62267 45.7071 9.39438C45.3821 9.16734 45.0922 9.19947 44.7002 9.19574C44.6197 9.19446 44.5392 9.19319 44.4562 9.19188C44.1904 9.18811 43.9246 9.18695 43.6588 9.18582C43.4744 9.18371 43.2899 9.18144 43.1055 9.17902C42.6203 9.17308 42.1352 9.16935 41.65 9.16609C41.0677 9.16171 40.4854 9.15458 39.9032 9.14791C39.0188 9.13809 38.1345 9.13177 37.2501 9.12478C37.2501 7.84603 37.2501 6.56728 37.2501 5.24978Z" fill="#FB8185"/>
<path d="M52 23C52.8067 23.0346 53.3624 23.4838 54.0078 23.9219C54.228 24.0688 54.4482 24.2156 54.6685 24.3623C54.7651 24.4276 54.8618 24.4929 54.9615 24.5602C55.2611 24.7573 55.5663 24.9425 55.875 25.125C55.7936 25.5568 55.6231 25.8635 55.3892 26.2334C55.314 26.353 55.2388 26.4726 55.1613 26.5959C55.0797 26.7241 54.9981 26.8523 54.9141 26.9844C54.83 27.1177 54.7459 27.2509 54.6593 27.3883C54.3986 27.801 54.1369 28.2131 53.875 28.625C53.7972 28.7476 53.7193 28.8702 53.6392 28.9965C53.2756 29.5692 52.9113 30.1415 52.5464 30.7134C52.0658 31.467 51.5889 32.223 51.1132 32.9796C51.0562 33.0702 50.9992 33.1607 50.9404 33.2539C50.8913 33.332 50.8423 33.41 50.7917 33.4905C50.625 33.75 50.625 33.75 50.3686 34.0712C50.059 34.6162 50.0544 35.0052 50.0601 35.62C50.0592 35.7314 50.0583 35.8428 50.0573 35.9576C50.0548 36.3301 50.0558 36.7026 50.0568 37.0751C50.0557 37.3425 50.0544 37.6098 50.0528 37.8772C50.0494 38.6026 50.0489 39.328 50.0491 40.0534C50.0487 40.8116 50.0455 41.5698 50.0426 42.3281C50.0375 43.7637 50.035 45.1994 50.0333 46.635C50.0313 48.2695 50.0265 49.904 50.0215 51.5385C50.0112 54.9007 50.0044 58.2628 50 61.625C49.9587 61.625 49.9175 61.625 49.875 61.625C49.8337 52.8387 49.7925 44.0525 49.75 35C48.0834 37.6036 48.0834 37.6036 46.4294 40.2152C46.1201 40.7062 45.81 41.1968 45.5 41.6875C45.1278 42.2768 44.7556 42.8661 44.3838 43.4556C43.6426 44.6305 42.8983 45.8034 42.152 46.9752C41.678 47.7195 41.2054 48.4647 40.7344 49.2109C40.6736 49.3071 40.6129 49.4032 40.5504 49.5023C40.2387 49.9961 39.9276 50.4903 39.6172 50.9849C39.3054 51.4813 38.9921 51.9768 38.6773 52.4713C38.5615 52.6533 38.4461 52.8355 38.331 53.0179C37.6845 54.0396 37.0357 54.9383 36.125 55.75C35.9344 55.4979 35.7466 55.2452 35.5659 54.9858C34.9163 54.0872 34.1252 53.476 33.125 53C33.3372 52.3733 33.6912 51.8493 34.0469 51.2969C34.1833 51.083 34.3197 50.8691 34.4561 50.6553C34.5607 50.4918 34.5607 50.4918 34.6674 50.3251C34.9886 49.8222 35.3067 49.3173 35.625 48.8125C35.75 48.6146 35.875 48.4167 36 48.2188C36.0619 48.1208 36.1238 48.0228 36.1875 47.9219C36.375 47.625 36.5625 47.3281 36.75 47.0312C36.8119 46.9333 36.8737 46.8354 36.9374 46.7345C37.0626 46.5362 37.1878 46.338 37.313 46.1398C37.6226 45.6498 37.932 45.1597 38.2412 44.6694C38.9826 43.4942 39.727 42.321 40.4736 41.149C40.9423 40.4129 41.4094 39.6757 41.875 38.9375C42.4146 38.082 42.9566 37.2281 43.5 36.375C44.2949 35.127 45.0857 33.8765 45.875 32.625C46.738 31.2566 47.6034 29.8898 48.4727 28.5254C48.95 27.776 49.4249 27.0252 49.8984 26.2734C50.5898 25.1763 51.2929 24.087 52 23Z" fill="#FB8185"/>
<path d="M23.876 -0.0217037C24.1126 -0.0241103 24.1126 -0.0241103 24.3539 -0.0265656C24.527 -0.0275866 24.7001 -0.0285171 24.8732 -0.0293636C24.9603 -0.0298731 25.0473 -0.0303825 25.1371 -0.0309074C25.5983 -0.0335154 26.0595 -0.0353027 26.5207 -0.0364742C26.9963 -0.0378554 27.4717 -0.0421531 27.9473 -0.0471207C28.3136 -0.0503955 28.6799 -0.0514361 29.0462 -0.0518844C29.2215 -0.0524919 29.3967 -0.0539415 29.5719 -0.0562642C29.8178 -0.0593203 30.0637 -0.0588893 30.3096 -0.0583248C30.4493 -0.0590581 30.589 -0.0597914 30.7329 -0.0605469C31.221 0.0153294 31.4908 0.195492 31.8751 0.500422C32.3414 1.22391 32.3045 2.00952 32.3243 2.84661C32.3495 3.0465 32.3495 3.0465 32.3751 3.25042C32.8157 3.54412 33.0044 3.53182 33.526 3.5346C33.6793 3.53718 33.8326 3.53976 33.9906 3.54241C34.3132 3.54565 34.6358 3.54794 34.9584 3.54925C36.2791 3.57416 36.2791 3.57416 36.7125 3.82562C37.0001 4.12542 37.0001 4.12542 37.3751 5.00042C37.3339 6.36167 37.2926 7.72292 37.2501 9.12542C30.5676 9.12542 23.8851 9.12542 17.0001 9.12542C16.8751 5.00042 16.8751 5.00042 17.3751 4.00042C17.8378 3.61095 18.2191 3.57734 18.8136 3.57025C18.9678 3.56694 19.122 3.56364 19.2809 3.56024C19.4409 3.55854 19.6009 3.55685 19.7657 3.55511C20.0838 3.55081 20.4018 3.54549 20.7198 3.539C20.8605 3.53745 21.0012 3.53591 21.1462 3.53433C21.5256 3.52613 21.5256 3.52613 21.8751 3.25042C21.9345 2.86133 21.9345 2.86133 21.9376 2.41448C21.9825 1.55422 22.0559 0.993041 22.6329 0.328547C23.0555 -0.0258555 23.3314 -0.0168932 23.876 -0.0217037Z" fill="#C2D0DA"/>
<path d="M45.875 40.875C45.9163 40.875 45.9575 40.875 46 40.875C46.0117 43.3111 46.0205 45.7471 46.0259 48.1832C46.0285 49.3143 46.032 50.4453 46.0377 51.5764C46.0427 52.5621 46.0459 53.5479 46.047 54.5336C46.0477 55.0556 46.0492 55.5777 46.0529 56.0997C46.0563 56.591 46.0573 57.0822 46.0566 57.5734C46.0567 57.7538 46.0577 57.9342 46.0596 58.1146C46.0621 58.3607 46.0612 58.6069 46.0601 58.8531C46.0606 58.9909 46.061 59.1287 46.0615 59.2707C45.9842 59.7161 45.8645 59.8624 45.5 60.125C45.2062 60.1865 45.2062 60.1865 44.8752 60.1851C44.7493 60.1858 44.6235 60.1865 44.4938 60.1872C44.2879 60.1845 44.2879 60.1845 44.0778 60.1818C43.9326 60.1818 43.7874 60.1819 43.6379 60.182C43.1576 60.1816 42.6775 60.1777 42.1973 60.1738C41.8645 60.1729 41.5317 60.1722 41.1989 60.1717C40.4122 60.1701 39.6256 60.166 38.8389 60.161C37.9432 60.1554 37.0475 60.1527 36.1518 60.1502C34.3095 60.1449 32.4673 60.1361 30.625 60.125C31.0271 59.7153 31.4521 59.3577 31.9062 59.0078C32.8305 58.2888 33.7395 57.5521 34.6462 56.8112C34.854 56.6421 35.0627 56.4743 35.272 56.3071C35.4467 56.1667 35.4467 56.1667 35.625 56.0234C35.772 55.9062 35.772 55.9062 35.9219 55.7866C36.8709 54.9577 37.5561 54.0964 38.2188 53.0234C38.3054 52.8856 38.392 52.7477 38.4813 52.6057C38.6565 52.3267 38.8312 52.0473 39.0054 51.7676C39.2843 51.3199 39.5663 50.8741 39.8488 50.4286C40.0901 50.0478 40.3303 49.6663 40.5706 49.2848C40.8799 48.7938 41.19 48.3032 41.5 47.8125C41.8722 47.2232 42.2444 46.6339 42.6162 46.0444C43.3814 44.8316 44.1495 43.6207 44.9211 42.412C44.9911 42.3021 45.0611 42.1923 45.1333 42.0791C45.1951 41.9823 45.2569 41.8855 45.3206 41.7857C45.4519 41.5767 45.5786 41.3647 45.7026 41.1513C45.7595 41.0601 45.8164 40.9689 45.875 40.875Z" fill="#EAE9E9"/>
<path d="M49.75 34.875C49.7913 34.875 49.8325 34.875 49.875 34.875C49.8972 38.3618 49.9179 41.8486 49.9368 45.3354C49.9457 46.9544 49.955 48.5733 49.9655 50.1923C49.9746 51.6034 49.9828 53.0145 49.9899 54.4257C49.9937 55.1728 49.998 55.92 50.0033 56.6671C50.0083 57.3705 50.0121 58.0739 50.015 58.7774C50.0162 59.0353 50.018 59.2933 50.0201 59.5513C50.023 59.904 50.0244 60.2567 50.0253 60.6095C50.0271 60.762 50.0271 60.762 50.029 60.9175C50.0284 61.7882 49.9502 62.6295 49.3359 63.2969C49.2642 63.3778 49.1925 63.4587 49.1187 63.542C48.5979 63.9866 48.0895 64.0309 47.4217 64.0284C47.3009 64.0284 47.3009 64.0284 47.1776 64.0285C46.9131 64.0283 46.6487 64.0264 46.3843 64.0244C46.2002 64.0239 46.0161 64.0236 45.8321 64.0233C45.3489 64.0224 44.8658 64.0199 44.3827 64.0172C43.8892 64.0146 43.3956 64.0135 42.9021 64.0122C41.9347 64.0095 40.9674 64.0053 40 64C40.0748 63.9633 40.1495 63.9265 40.2266 63.8887C40.9205 63.5367 41.3704 63.1889 41.75 62.5C41.8797 61.9917 41.9111 61.4833 41.9453 60.9609C41.9727 60.543 41.9727 60.543 42 60.125C42.1041 60.1232 42.2081 60.1214 42.3153 60.1195C42.7019 60.1118 43.0883 60.1026 43.4748 60.0922C43.7241 60.086 43.9735 60.0817 44.2229 60.0774C44.3796 60.073 44.5363 60.0685 44.6978 60.064C44.8424 60.0607 44.9871 60.0574 45.1361 60.054C45.4913 60.0288 45.4913 60.0288 45.7077 59.8558C45.9474 59.5252 45.9192 59.2845 45.9156 58.8785C45.9152 58.7224 45.9147 58.5663 45.9143 58.4055C45.912 58.2322 45.9096 58.0588 45.9072 57.8855C45.9061 57.7031 45.9052 57.5207 45.9044 57.3384C45.9025 56.9451 45.8995 56.5518 45.8958 56.1586C45.8901 55.5346 45.8884 54.9107 45.8875 54.2868C45.8846 52.5123 45.8796 50.7379 45.8635 48.9634C45.8546 47.9837 45.8507 47.0042 45.8523 46.0244C45.8529 45.5068 45.851 44.9895 45.8429 44.472C45.7822 40.4137 45.7822 40.4137 47.2034 38.7126C47.482 38.3675 47.7028 37.9927 47.9336 37.6143C48.1013 37.3521 48.2693 37.09 48.4375 36.8281C48.5235 36.6934 48.6096 36.5587 48.6982 36.4199C49.45 35.247 49.45 35.247 49.75 34.875Z" fill="#EAB14D"/>
<path d="M37.25 5.24978C38.6713 5.24131 40.0925 5.23443 41.5138 5.23035C42.1738 5.2284 42.8337 5.22574 43.4937 5.22149C44.1308 5.21741 44.7678 5.21518 45.4048 5.2142C45.6477 5.21351 45.8907 5.21216 46.1335 5.21013C46.4741 5.20741 46.8145 5.20704 47.1551 5.20721C47.3053 5.20519 47.3053 5.20519 47.4586 5.20312C48.1642 5.20701 48.6703 5.35283 49.2285 5.81326C49.2872 5.87997 49.3458 5.94668 49.4062 6.01541C49.4662 6.08018 49.5261 6.14496 49.5879 6.2117C50.0634 7.05678 50.038 8.07011 50.0387 9.01342C50.0398 9.14774 50.0408 9.28206 50.0418 9.42045C50.0446 9.86211 50.0453 10.3037 50.0454 10.7454C50.0456 10.9734 50.0456 10.9734 50.0457 11.206C50.0459 12.011 50.0441 12.8159 50.041 13.6209C50.0388 14.283 50.0406 14.9449 50.0459 15.607C50.0523 16.4108 50.0518 17.2143 50.0467 18.018C50.0459 18.3222 50.0473 18.6263 50.0512 18.9304C50.0737 20.8783 49.8625 22.2083 48.6662 23.778C48.4238 24.1015 48.2161 24.4414 48.0049 24.7859C47.8628 25.0084 47.7206 25.2307 47.5781 25.4529C47.4339 25.6785 47.2897 25.9041 47.1455 26.1297C47.0453 26.2861 47.0453 26.2861 46.943 26.4457C46.7568 26.739 46.575 27.0346 46.3936 27.3308C46.2606 27.5382 46.2606 27.5382 46.125 27.7498C46.0837 27.7498 46.0425 27.7498 46 27.7498C45.9997 27.6567 45.9994 27.5637 45.9991 27.4678C45.9917 25.205 45.9823 22.9423 45.9705 20.6796C45.9649 19.5854 45.96 18.4911 45.9567 17.3969C45.9538 16.4434 45.9497 15.4898 45.9439 14.5363C45.9409 14.0312 45.9386 13.5262 45.9378 13.0211C45.937 12.546 45.9346 12.0709 45.9307 11.5957C45.9296 11.4211 45.9292 11.2465 45.9294 11.0719C45.9296 10.8339 45.9273 10.5959 45.9248 10.358C45.9243 10.2247 45.9237 10.0913 45.9231 9.95399C45.9008 9.62253 45.9008 9.62253 45.7068 9.39457C45.382 9.16714 45.092 9.19947 44.7001 9.19574C44.6196 9.19446 44.5391 9.19319 44.4561 9.19188C44.1903 9.18811 43.9245 9.18695 43.6587 9.18582C43.4743 9.18371 43.2898 9.18144 43.1054 9.17902C42.6202 9.17308 42.1351 9.16935 41.6499 9.16609C41.0676 9.16171 40.4853 9.15458 39.9031 9.14791C39.0187 9.13809 38.1344 9.13177 37.25 9.12478C37.25 7.84603 37.25 6.56728 37.25 5.24978Z" fill="#EAB14D"/>
<path d="M15.0663 29.3242C15.3104 29.3218 15.3104 29.3218 15.5594 29.3194C15.736 29.3197 15.9127 29.32 16.0893 29.3205C16.2716 29.3199 16.4539 29.3193 16.6361 29.3185C17.0177 29.3174 17.3992 29.3177 17.7807 29.319C18.2684 29.3204 18.756 29.3179 19.2437 29.3142C19.6201 29.3119 19.9963 29.312 20.3726 29.3127C20.5524 29.3127 20.7322 29.3119 20.9119 29.3104C21.1637 29.3085 21.4156 29.3102 21.6674 29.312C21.8104 29.312 21.9534 29.312 22.1008 29.3121C22.7187 29.409 23.0966 29.6805 23.4812 30.1674C23.6561 30.5717 23.6734 30.8758 23.6755 31.3161C23.6771 31.4788 23.6786 31.6415 23.6803 31.8091C23.68 31.9858 23.6796 32.1624 23.6792 32.3391C23.6797 32.5213 23.6804 32.7036 23.6811 32.8859C23.6823 33.2674 23.682 33.6489 23.6807 34.0304C23.6793 34.5182 23.6818 35.0058 23.6855 35.4935C23.6878 35.8698 23.6877 36.2461 23.687 36.6224C23.687 36.8021 23.6877 36.9819 23.6893 37.1617C23.6912 37.4135 23.6895 37.6653 23.6877 37.9172C23.6877 38.0602 23.6876 38.2032 23.6876 38.3505C23.5906 38.9685 23.3192 39.3463 22.8322 39.7309C22.428 39.9059 22.1238 39.9231 21.6836 39.9252C21.5209 39.9268 21.3582 39.9284 21.1905 39.93C21.0139 39.9298 20.8373 39.9294 20.6606 39.9289C20.4783 39.9295 20.2961 39.9301 20.1138 39.9309C19.7322 39.932 19.3508 39.9317 18.9692 39.9305C18.4815 39.929 17.9939 39.9316 17.5062 39.9352C17.1299 39.9375 16.7536 39.9375 16.3773 39.9368C16.1975 39.9367 16.0178 39.9375 15.838 39.939C15.5862 39.9409 15.3343 39.9392 15.0825 39.9374C14.9395 39.9374 14.7965 39.9374 14.6491 39.9374C14.0312 39.8404 13.6534 39.5689 13.2687 39.082C13.0938 38.6778 13.0765 38.3736 13.0745 37.9333C13.0729 37.7706 13.0713 37.6079 13.0696 37.4403C13.0699 37.2637 13.0703 37.087 13.0708 36.9104C13.0702 36.7281 13.0695 36.5458 13.0688 36.3635C13.0677 35.982 13.068 35.6005 13.0692 35.219C13.0706 34.7313 13.0681 34.2436 13.0645 33.7559C13.0622 33.3796 13.0622 33.0033 13.0629 32.627C13.0629 32.4473 13.0622 32.2675 13.0606 32.0878C13.0588 31.8359 13.0604 31.5841 13.0622 31.3323C13.0623 31.1893 13.0623 31.0462 13.0623 30.8989C13.1593 30.281 13.4307 29.9031 13.9177 29.5185C14.3219 29.3436 14.6261 29.3263 15.0663 29.3242Z" fill="#68B59E"/>
<path d="M15.0549 13.8268C15.2952 13.8251 15.2952 13.8251 15.5403 13.8232C15.7142 13.8239 15.8881 13.8247 16.062 13.8255C16.2414 13.8253 16.4209 13.8249 16.6004 13.8245C16.976 13.8239 17.3516 13.8247 17.7273 13.8265C18.2074 13.8286 18.6875 13.8274 19.1676 13.8251C19.5382 13.8238 19.9086 13.8242 20.2792 13.8252C20.4561 13.8254 20.6331 13.8251 20.81 13.8242C21.058 13.8233 21.3059 13.825 21.5539 13.8268C21.6947 13.8271 21.8355 13.8274 21.9805 13.8277C22.6264 13.9057 22.9974 14.0993 23.4178 14.5969C23.6496 15.0483 23.6883 15.3263 23.6897 15.8309C23.6912 15.9936 23.6928 16.1563 23.6944 16.3239C23.6935 16.4999 23.6925 16.6759 23.6914 16.8519C23.6917 17.034 23.6922 17.2161 23.6928 17.3982C23.6936 17.779 23.6925 18.1597 23.6901 18.5405C23.6873 19.0273 23.6889 19.5139 23.6919 20.0006C23.6937 20.3764 23.6932 20.7521 23.6919 21.1279C23.6915 21.3073 23.6919 21.4867 23.6931 21.6661C23.6944 21.9173 23.6921 22.1686 23.6897 22.4198C23.6893 22.5624 23.6889 22.705 23.6885 22.852C23.6085 23.3537 23.4521 23.6132 23.125 24.0003C22.5953 24.3452 22.1818 24.4228 21.5559 24.4259C21.3957 24.4274 21.2355 24.429 21.0704 24.4307C20.8972 24.4304 20.724 24.43 20.5507 24.4295C20.3714 24.4301 20.1921 24.4308 20.0129 24.4315C19.638 24.4326 19.2631 24.4323 18.8882 24.4311C18.409 24.4297 17.93 24.4322 17.4508 24.4358C17.0808 24.4381 16.7109 24.4381 16.3409 24.4374C16.1643 24.4374 15.9877 24.4381 15.8111 24.4397C15.5637 24.4415 15.3164 24.4399 15.0691 24.4381C14.8584 24.438 14.8584 24.438 14.6436 24.438C14.0293 24.3402 13.6511 24.0667 13.2687 23.5826C13.0938 23.1784 13.0765 22.8742 13.0745 22.434C13.0729 22.2713 13.0713 22.1086 13.0696 21.9409C13.0699 21.7643 13.0703 21.5876 13.0708 21.411C13.0702 21.2287 13.0695 21.0464 13.0688 20.8642C13.0677 20.4826 13.068 20.1011 13.0692 19.7196C13.0706 19.2319 13.0681 18.7443 13.0645 18.2566C13.0622 17.8803 13.0622 17.504 13.0629 17.1277C13.0629 16.9479 13.0622 16.7682 13.0606 16.5884C13.0588 16.3366 13.0604 16.0847 13.0622 15.8329C13.0623 15.6899 13.0623 15.5469 13.0623 15.3995C13.1593 14.7813 13.4309 14.4034 13.9184 14.019C14.3194 13.8453 14.6181 13.8278 15.0549 13.8268Z" fill="#68B59E"/>
<path d="M15.0529 44.8247C15.2926 44.8223 15.2926 44.8223 15.5371 44.8199C15.7106 44.8202 15.8841 44.8205 16.0576 44.821C16.2368 44.8204 16.4159 44.8198 16.5951 44.819C16.9702 44.8179 17.3453 44.8182 17.7204 44.8195C18.1994 44.8209 18.6784 44.8184 19.1574 44.8147C19.5274 44.8124 19.8973 44.8125 20.2673 44.8132C20.4438 44.8132 20.6203 44.8124 20.7968 44.8109C22.5494 44.7976 22.5494 44.7976 23.25 45.3752C23.6103 45.8639 23.6726 46.2146 23.6755 46.8166C23.6771 46.9793 23.6786 47.142 23.6803 47.3096C23.68 47.4863 23.6796 47.6629 23.6792 47.8396C23.6797 48.0218 23.6804 48.2041 23.6811 48.3864C23.6823 48.7679 23.682 49.1494 23.6807 49.5309C23.6793 50.0187 23.6818 50.5063 23.6855 50.994C23.6878 51.3703 23.6877 51.7466 23.687 52.1229C23.687 52.3026 23.6877 52.4824 23.6893 52.6621C23.6912 52.914 23.6895 53.1658 23.6877 53.4177C23.6877 53.5607 23.6876 53.7037 23.6876 53.851C23.6087 54.3537 23.4528 54.6126 23.125 55.0002C22.5953 55.3451 22.1818 55.4227 21.5559 55.4257C21.3957 55.4273 21.2355 55.4289 21.0704 55.4305C20.8972 55.4303 20.724 55.4299 20.5507 55.4294C20.3714 55.43 20.1921 55.4306 20.0129 55.4314C19.638 55.4325 19.2631 55.4322 18.8882 55.431C18.409 55.4295 17.93 55.4321 17.4508 55.4357C17.0808 55.438 16.7109 55.438 16.3409 55.4372C16.1643 55.4372 15.9877 55.438 15.8111 55.4395C15.5637 55.4414 15.3164 55.4397 15.0691 55.4379C14.8584 55.4379 14.8584 55.4379 14.6436 55.4379C14.0293 55.3401 13.6511 55.0666 13.2687 54.5825C13.0938 54.1783 13.0765 53.8741 13.0745 53.4338C13.0729 53.2711 13.0713 53.1084 13.0696 52.9408C13.0699 52.7641 13.0703 52.5875 13.0708 52.4109C13.0702 52.2286 13.0695 52.0463 13.0688 51.864C13.0677 51.4825 13.068 51.101 13.0692 50.7195C13.0706 50.2317 13.0681 49.7441 13.0645 49.2564C13.0622 48.8801 13.0622 48.5038 13.0629 48.1275C13.0629 47.9478 13.0622 47.768 13.0606 47.5883C13.0588 47.3364 13.0604 47.0846 13.0622 46.8328C13.0623 46.6897 13.0623 46.5467 13.0623 46.3994C13.1593 45.7812 13.4308 45.4031 13.9185 45.019C14.3185 44.8455 14.6171 44.8268 15.0529 44.8247Z" fill="#68B59E"/>
<path d="M52 23C52.7251 23.0893 53.0591 23.3086 53.625 23.75C53.5675 24.4215 53.1948 24.9047 52.8359 25.4531C52.6984 25.667 52.5608 25.8808 52.4233 26.0947C52.3528 26.2037 52.2823 26.3127 52.2097 26.4249C51.886 26.9267 51.5681 27.4322 51.25 27.9375C51.1247 28.1359 50.9994 28.3343 50.874 28.5327C50.6272 28.9236 50.3804 29.3145 50.1338 29.7056C49.3926 30.8805 48.6483 32.0534 47.902 33.2252C47.1816 34.3565 46.4655 35.4905 45.75 36.625C44.8869 37.9936 44.0212 39.3604 43.152 40.7252C42.4932 41.7598 41.8378 42.7967 41.1835 43.8342C40.8099 44.4264 40.4358 45.0183 40.0619 45.6103C39.7524 46.1003 39.443 46.5904 39.1338 47.0806C38.3178 48.3741 37.5004 49.6667 36.6763 50.9551C36.3973 51.3916 36.1225 51.8303 35.8511 52.2715C35.789 52.371 35.7269 52.4706 35.6629 52.5732C35.5468 52.7594 35.432 52.9464 35.3188 53.1343C35.1631 53.3818 35.1631 53.3818 34.875 53.75C34.3255 53.75 34.1707 53.6604 33.7188 53.375C33.6072 53.3054 33.4957 53.2358 33.3809 53.1641C33.2964 53.1099 33.212 53.0558 33.125 53C33.3372 52.3733 33.6912 51.8493 34.0469 51.2969C34.1833 51.083 34.3197 50.8691 34.4561 50.6553C34.5607 50.4918 34.5607 50.4918 34.6674 50.3251C34.9886 49.8222 35.3067 49.3173 35.625 48.8125C35.75 48.6146 35.875 48.4167 36 48.2188C36.0619 48.1208 36.1238 48.0228 36.1875 47.9219C36.375 47.625 36.5625 47.3281 36.75 47.0312C36.8119 46.9333 36.8737 46.8354 36.9374 46.7345C37.0626 46.5362 37.1878 46.338 37.313 46.1398C37.6226 45.6498 37.932 45.1597 38.2412 44.6694C38.9826 43.4942 39.727 42.321 40.4736 41.149C40.9423 40.4129 41.4094 39.6757 41.875 38.9375C42.4146 38.082 42.9566 37.2281 43.5 36.375C44.2949 35.127 45.0857 33.8765 45.875 32.625C46.738 31.2566 47.6034 29.8898 48.4727 28.5254C48.95 27.776 49.4249 27.0252 49.8984 26.2734C50.5898 25.1763 51.2929 24.087 52 23Z" fill="#FA636F"/>
<path d="M56.8379 15.2022C57.2844 15.4428 57.7042 15.7168 58.125 15.9996C58.2671 16.0883 58.2671 16.0883 58.4121 16.1788C59.0264 16.5791 59.3939 17.0563 59.625 17.7496C59.7626 18.9758 59.5473 19.7352 58.875 20.7496C58.7737 20.9077 58.6726 21.0659 58.5718 21.2242C58.343 21.5815 58.112 21.9372 57.8794 22.2921C57.4674 22.922 57.0653 23.5581 56.6641 24.1949C56.5979 24.2999 56.5317 24.4049 56.4636 24.513C56.3089 24.7585 56.1544 25.004 56 25.2496C54.9862 24.7307 54.0408 24.131 53.0903 23.5052C52.5722 23.1643 52.053 22.8273 51.5234 22.5045C51.4309 22.448 51.3384 22.3914 51.243 22.3332C51.0693 22.2277 50.895 22.1231 50.7201 22.0195C50.1387 21.6657 50.1387 21.6657 50 21.2496C50.1227 20.9923 50.1227 20.9923 50.3179 20.6949C50.3896 20.5841 50.4613 20.4733 50.5352 20.3592C50.6138 20.2405 50.6924 20.1219 50.7734 19.9996C50.9351 19.7511 51.0967 19.5026 51.2583 19.254C51.3405 19.1283 51.4227 19.0027 51.5074 18.8732C51.9342 18.2159 52.3476 17.5502 52.7613 16.8846C53.6987 15.3906 54.9824 14.3061 56.8379 15.2022Z" fill="#8C9BA6"/>
<path d="M30.8751 52.4996C32.1466 52.3414 33.2237 52.8081 34.2662 53.5148C35.6753 54.621 35.6753 54.621 36.0001 55.3746C35.9837 55.7647 35.9326 55.9401 35.6597 56.2223C35.515 56.3286 35.515 56.3286 35.3673 56.4371C35.254 56.5228 35.1407 56.6086 35.024 56.6969C34.9605 56.7445 34.8971 56.7921 34.8317 56.8412C34.5228 57.0781 34.2237 57.3264 33.9234 57.574C33.4935 57.9277 33.0595 58.2765 32.6251 58.6246C32.5348 58.6972 32.4446 58.7697 32.3516 58.8444C32.085 59.0572 31.8164 59.267 31.547 59.4762C31.4656 59.5414 31.3843 59.6066 31.3006 59.6738C30.9176 59.9668 30.6979 60.1153 30.2105 60.1778C29.8751 60.1246 29.8751 60.1246 29.586 59.9215C29.2937 59.5101 29.2072 59.1392 29.2891 58.6335C29.3574 58.3546 29.4348 58.0798 29.5157 57.8043C29.5746 57.5933 29.6332 57.3822 29.6915 57.171C29.7219 57.0614 29.7524 56.9518 29.7838 56.8389C29.9367 56.2706 30.0696 55.6977 30.2032 55.1246C30.4098 54.2445 30.6248 53.3686 30.8751 52.4996Z" fill="#7D8C96"/>
<path d="M28.7607 16.1067C28.8644 16.1058 28.9682 16.1049 29.075 16.104C29.2451 16.1035 29.2451 16.1035 29.4186 16.103C29.5384 16.1022 29.6581 16.1014 29.7815 16.1005C30.1782 16.098 30.575 16.0966 30.9717 16.0953C31.1748 16.0946 31.1748 16.0946 31.382 16.0938C32.0984 16.0912 32.8147 16.0894 33.5311 16.0882C34.2716 16.0868 35.0121 16.0825 35.7526 16.0776C36.3216 16.0743 36.8906 16.0733 37.4596 16.0728C37.7326 16.0722 38.0056 16.0708 38.2786 16.0684C38.6604 16.0654 39.0422 16.0655 39.424 16.0664C39.5369 16.0648 39.6498 16.0632 39.7661 16.0615C40.2836 16.0658 40.5554 16.0821 41.0047 16.3598C41.2935 16.6722 41.375 16.8247 41.375 17.2501C41.1723 17.6859 41.0294 17.8555 40.625 18.1251C40.3854 18.1573 40.3854 18.1573 40.1096 18.1586C39.9524 18.1601 39.9524 18.1601 39.792 18.1618C39.6775 18.1617 39.5629 18.1616 39.4449 18.1614C39.3239 18.1623 39.2029 18.1631 39.0783 18.164C38.6775 18.1664 38.2768 18.1668 37.876 18.1671C37.5978 18.1679 37.3195 18.1688 37.0413 18.1696C36.4577 18.1711 35.8741 18.1716 35.2905 18.1714C34.5424 18.1714 33.7944 18.1748 33.0463 18.1791C32.4715 18.1819 31.8968 18.1824 31.322 18.1823C31.0462 18.1826 30.7704 18.1837 30.4946 18.1856C30.1088 18.1881 29.7232 18.1874 29.3375 18.1859C29.2234 18.1873 29.1094 18.1887 28.9919 18.1901C28.4688 18.1849 28.1951 18.1686 27.7414 17.8872C27.5 17.6251 27.5 17.6251 27.4258 17.3707C27.4573 16.6881 27.4573 16.6881 27.6641 16.3829C28.0273 16.1542 28.3427 16.1092 28.7607 16.1067Z" fill="#DDEAFA"/>
<path d="M51.875 18.375C52.9887 18.9451 54.0258 19.6141 55.0702 20.3002C55.6315 20.6682 56.1949 21.033 56.7578 21.3984C57.1302 21.6406 57.5026 21.8828 57.875 22.125C57.3064 23.2068 56.6704 24.2296 56 25.25C54.983 24.7392 54.0397 24.1307 53.0903 23.5056C52.5722 23.1647 52.053 22.8278 51.5234 22.5049C51.4309 22.4484 51.3384 22.3918 51.243 22.3336C51.0693 22.2281 50.895 22.1235 50.7201 22.0199C50.1387 21.6661 50.1387 21.6661 50 21.25C50.1445 20.957 50.1445 20.957 50.3662 20.6162C50.445 20.4939 50.5238 20.3716 50.605 20.2456C50.6889 20.1181 50.7729 19.9907 50.8594 19.8594C50.9424 19.731 51.0253 19.6025 51.1108 19.4702C51.7219 18.5281 51.7219 18.5281 51.875 18.375Z" fill="#C8E1E6"/>
<path d="M38.125 53.625C38.1377 54.4502 38.1464 55.2754 38.1525 56.1007C38.155 56.3814 38.1584 56.6621 38.1627 56.9428C38.1688 57.3465 38.1716 57.7501 38.1738 58.1538C38.1764 58.2791 38.179 58.4044 38.1816 58.5335C38.1818 59.037 38.1558 59.4216 37.9707 59.8928C37.38 60.2896 36.7381 60.2009 36.0449 60.186C35.8903 60.1852 35.7356 60.1843 35.5762 60.1834C35.166 60.1805 34.7559 60.1748 34.3457 60.1679C33.9268 60.1615 33.5078 60.1587 33.0889 60.1555C32.2675 60.1486 31.4463 60.1382 30.625 60.125C31.0271 59.7153 31.4521 59.3577 31.9062 59.0078C32.8305 58.2888 33.7395 57.5521 34.6462 56.8112C34.854 56.6421 35.0627 56.4743 35.272 56.3071C36.2254 55.541 37.0921 54.7875 37.75 53.75C38 53.625 38 53.625 38.125 53.625Z" fill="#F4F4F4"/>
<path d="M28.9778 31.5586C29.061 31.5575 29.1442 31.5565 29.2299 31.5554C29.5036 31.5525 29.7771 31.5534 30.0508 31.5545C30.2418 31.5538 30.4327 31.5531 30.6237 31.5521C31.0234 31.5508 31.4231 31.5514 31.8228 31.5532C32.3344 31.5554 32.8458 31.5525 33.3574 31.5481C33.7516 31.5453 34.1458 31.5455 34.54 31.5465C34.7286 31.5466 34.9171 31.5458 35.1057 31.5439C35.3697 31.5417 35.6333 31.5436 35.8972 31.5464C36.0472 31.5465 36.1971 31.5467 36.3516 31.5468C36.8674 31.6484 37.0574 31.8387 37.375 32.2503C37.375 32.7075 37.3516 32.9927 37.0703 33.3597C36.6506 33.6618 36.3393 33.6432 35.8263 33.6474C35.7443 33.6482 35.6624 33.6491 35.578 33.6499C35.3064 33.6524 35.0348 33.6538 34.7632 33.6551C34.624 33.6558 34.624 33.6558 34.4821 33.6566C33.991 33.6592 33.4999 33.661 33.0089 33.6622C32.5019 33.6636 31.9951 33.6679 31.4882 33.6728C31.0981 33.6761 30.7081 33.6772 30.3181 33.6776C30.1313 33.6782 29.9444 33.6797 29.7576 33.682C29.4958 33.685 29.2341 33.6849 28.9723 33.684C28.749 33.6851 28.749 33.6851 28.5212 33.6863C28.0458 33.6131 27.8386 33.4603 27.5 33.1253C27.417 32.8753 27.417 32.8753 27.4219 32.6253C27.4203 32.5428 27.4187 32.4603 27.417 32.3753C27.6561 31.6551 28.3071 31.5621 28.9778 31.5586Z" fill="#DDEAFA"/>
<path d="M37.25 5.25013C37.6831 5.2424 38.1163 5.23466 38.5625 5.22669C38.7642 5.22157 38.7642 5.22157 38.97 5.21635C39.8276 5.20899 40.5571 5.27197 41.2529 5.82679C41.3087 5.89688 41.3644 5.96698 41.4219 6.03919C41.4796 6.10832 41.5372 6.17745 41.5967 6.24867C42.1836 7.21125 42 7.94023 42 9.12513C40.4325 9.12513 38.865 9.12513 37.25 9.12513C37.25 7.84638 37.25 6.56763 37.25 5.25013Z" fill="#FEC150"/>
<path d="M20.4609 47.4062C20.9406 47.5148 21.1096 47.5859 21.375 48C21.4747 48.6076 21.3675 48.9445 21.0273 49.436C20.8746 49.6387 20.7195 49.8397 20.5625 50.0391C20.4826 50.1436 20.4027 50.2482 20.3204 50.3559C20.0906 50.6556 19.8581 50.9529 19.625 51.25C19.5163 51.3912 19.4077 51.5324 19.2993 51.6738C18.5138 52.6818 18.5138 52.6818 18.0024 52.814C17.5272 52.8518 17.239 52.8396 16.8555 52.5381C16.5906 52.2457 16.3561 51.9447 16.125 51.625C16.0494 51.5264 15.9739 51.4278 15.896 51.3262C15.5969 50.9142 15.3951 50.595 15.2891 50.0938C15.4113 49.6048 15.5892 49.4134 16 49.125C16.4297 49.0859 16.4297 49.0859 16.875 49.25C17.1026 49.4984 17.2854 49.7522 17.4673 50.0356C17.5193 50.1064 17.5714 50.1771 17.625 50.25C17.7075 50.25 17.79 50.25 17.875 50.25C18.0801 49.983 18.2717 49.7154 18.4609 49.4375C19.7932 47.5421 19.7932 47.5421 20.4609 47.4062Z" fill="#F3F7F7"/>
<path d="M20.4454 32.3047C20.8751 32.375 20.8751 32.375 21.1798 32.5781C21.4409 32.9751 21.4361 33.1526 21.3751 33.625C21.1869 33.9878 20.9484 34.3067 20.7032 34.6328C20.6356 34.7252 20.568 34.8177 20.4984 34.9129C20.2924 35.1933 20.0838 35.4716 19.8751 35.75C19.7549 35.9137 19.6348 36.0774 19.5147 36.2412C18.6133 37.453 18.6133 37.453 18.1251 37.625C17.5752 37.6963 17.3384 37.6893 16.8849 37.3589C16.4925 37.0133 16.1878 36.6315 15.8907 36.2031C15.8404 36.1358 15.7902 36.0684 15.7384 35.999C15.3802 35.4873 15.3067 35.1167 15.3751 34.5C15.5782 34.1953 15.5782 34.1953 15.8751 34C16.353 33.9187 16.5532 33.9532 16.961 34.2188C17.2175 34.4683 17.4339 34.6981 17.6251 35C17.6251 35.0825 17.6251 35.165 17.6251 35.25C17.7076 35.25 17.7901 35.25 17.8751 35.25C17.9039 35.1854 17.9328 35.1208 17.9625 35.0542C18.1839 34.64 18.4539 34.264 18.7267 33.8828C18.7799 33.8068 18.8332 33.7309 18.888 33.6526C19.7735 32.4108 19.7735 32.4108 20.4454 32.3047Z" fill="#F3F7F7"/>
<path d="M20.4609 16.4062C20.9406 16.5148 21.1096 16.5859 21.375 17C21.4747 17.6076 21.3675 17.9445 21.0273 18.436C20.8746 18.6387 20.7195 18.8397 20.5625 19.0391C20.4826 19.1436 20.4027 19.2482 20.3204 19.3559C20.0906 19.6556 19.8581 19.9529 19.625 20.25C19.5163 20.3912 19.4077 20.5324 19.2993 20.6738C18.4852 21.7186 18.4852 21.7186 17.7812 21.8125C17.2531 21.7932 16.9759 21.6273 16.6011 21.2637C15.4172 19.8829 15.4172 19.8829 15.3311 19.1011C15.375 18.75 15.375 18.75 15.6328 18.3828C16 18.125 16 18.125 16.4297 18.0859C16.984 18.2902 17.1556 18.5497 17.4673 19.0356C17.5193 19.1064 17.5714 19.1771 17.625 19.25C17.7075 19.25 17.79 19.25 17.875 19.25C18.0801 18.983 18.2717 18.7154 18.4609 18.4375C19.7932 16.5421 19.7932 16.5421 20.4609 16.4062Z" fill="#F3F7F7"/>
<path d="M28.5523 20.1979C28.6908 20.1959 28.8293 20.1939 28.972 20.1918C29.1216 20.1918 29.2712 20.1918 29.4253 20.1918C29.579 20.1908 29.7327 20.1899 29.891 20.1889C30.2995 20.1872 30.708 20.1874 31.1166 20.1882C31.5315 20.1876 31.9463 20.1817 32.3611 20.1771C32.6768 20.1765 32.9925 20.1761 33.3082 20.1761C33.5322 20.1731 33.5322 20.1731 33.7608 20.1699C34.79 20.1785 34.79 20.1785 35.2225 20.5436C35.4221 20.9778 35.4123 21.1768 35.2501 21.6254C34.9718 21.9541 34.7449 22.1072 34.316 22.172C33.9206 22.1917 33.5282 22.1946 33.1324 22.1918C32.9874 22.1922 32.8424 22.1927 32.693 22.1932C32.387 22.1935 32.0809 22.1926 31.7749 22.1905C31.306 22.1879 30.8373 22.1905 30.3685 22.1937C30.071 22.1934 29.7736 22.1927 29.4761 22.1918C29.2656 22.1933 29.2656 22.1933 29.0508 22.1948C28.8549 22.1925 28.8549 22.1925 28.6551 22.19C28.5404 22.1897 28.4257 22.1893 28.3075 22.1888C27.906 22.1059 27.7551 21.939 27.5001 21.6254C27.4114 21.2619 27.4576 21.0075 27.5001 20.6254C27.7902 20.2056 28.0613 20.2021 28.5523 20.1979Z" fill="#DDEAFA"/>
<path d="M28.5523 35.6979C28.6908 35.6959 28.8293 35.6939 28.972 35.6918C29.1216 35.6918 29.2712 35.6918 29.4254 35.6918C29.5791 35.6908 29.7327 35.6899 29.891 35.6889C30.2996 35.6872 30.7081 35.6874 31.1166 35.6882C31.5315 35.6876 31.9463 35.6817 32.3612 35.6771C32.6769 35.6765 32.9925 35.6761 33.3082 35.6761C33.5322 35.6731 33.5322 35.6731 33.7608 35.6699C34.79 35.6785 34.79 35.6785 35.2225 36.0436C35.4222 36.4778 35.4123 36.6768 35.2501 37.1254C34.9729 37.4501 34.7473 37.6065 34.3217 37.672C33.935 37.6917 33.5514 37.6946 33.1642 37.6918C33.0223 37.6922 32.8803 37.6927 32.7341 37.6932C32.4345 37.6935 32.1348 37.6926 31.8352 37.6905C31.3767 37.6879 30.9185 37.6905 30.4601 37.6937C30.1687 37.6934 29.8774 37.6927 29.586 37.6918C29.449 37.6928 29.3121 37.6938 29.1709 37.6948C28.2219 37.6831 28.2219 37.6831 27.7259 37.3871C27.479 37.1009 27.4204 36.99 27.4376 36.6175C27.5001 36.1254 27.5001 36.1254 27.6492 35.9104C27.9593 35.6907 28.1738 35.7011 28.5523 35.6979Z" fill="#DDEAFA"/>
</g>
<defs>
<clipPath id="clip0_440_463">
<rect width="64" height="64" fill="white"/>
</clipPath>
</defs>
</svg>
