<svg width="100" height="100" viewBox="0 0 100 100" fill="none" xmlns="http://www.w3.org/2000/svg">
<path d="M12.8244 28.957C15.0843 30.677 17.2756 32.3693 19.4891 34.0319C21.7247 35.7111 23.9841 37.3587 26.2301 39.0242C28.2178 40.4982 30.7583 39.7985 32.0399 37.8704C36.8448 30.6412 41.7156 23.4554 46.4642 16.1897C48.1103 13.671 51.0518 13.4816 52.8013 14.9041C53.544 15.5079 54.0618 16.4125 54.6081 17.2297C59.1557 24.0326 63.705 30.8345 68.2115 37.6645C69.7805 40.0425 72.24 40.5382 74.6005 38.7676C80.1978 34.5692 85.7738 30.3425 91.3561 26.1243C92.3656 25.3615 93.3846 24.6807 94.7554 25.1179C96.6801 25.7317 97.4788 27.4534 97.015 29.658C96.6164 31.5525 96.3913 33.4837 96.0945 35.3994C95.7342 37.7245 95.3787 40.0503 95.0219 42.3759C94.7276 44.2934 94.4369 46.2115 94.14 48.1286C93.7799 50.4532 93.4127 52.7766 93.053 55.1012C92.7611 56.9871 92.4757 58.874 92.1876 60.7605C91.9335 62.424 91.6796 64.0875 91.4211 65.7803C63.9303 65.7803 36.5034 65.7803 8.98432 65.7803C8.7236 64.1531 8.45684 62.5303 8.20476 60.9051C7.84404 58.5795 7.49751 56.2517 7.13839 53.9258C6.84729 52.0404 6.54673 50.1564 6.25009 48.2719C5.87447 45.8856 5.48835 43.5009 5.12602 41.1125C4.83473 39.1924 4.58117 37.2666 4.29418 35.3459C4.01236 33.4596 3.66075 31.5823 3.43401 29.6898C3.29622 28.5397 2.99835 27.3661 3.85431 26.2691C4.76454 25.1026 6.74612 24.5457 7.98758 25.4568C9.57274 26.6201 11.1722 27.7641 12.8244 28.957Z" fill="#FFB743"/>
<path d="M9.60208 84.3088C9.36311 83.6249 9.02083 83.0003 9.01011 82.37C8.95479 79.1177 8.98443 75.864 8.98443 72.5359C36.441 72.5359 63.8758 72.5359 91.4062 72.5359C91.4062 75.682 91.3903 78.8279 91.4138 81.9734C91.4237 83.3004 91.0344 84.4864 89.9797 85.2574C89.2734 85.7736 88.3428 86.2827 87.5115 86.2845C62.6211 86.3382 37.7306 86.3327 12.8401 86.3162C11.432 86.3153 10.3645 85.5884 9.60208 84.3088Z" fill="#FFB743"/>
</svg>
