<svg width="64" height="64" viewBox="0 0 64 64" fill="none" xmlns="http://www.w3.org/2000/svg">
<g clip-path="url(#clip0_440_439)">
<path d="M1.25309 11.1867C1.40835 11.1854 1.56361 11.1841 1.72358 11.1827C1.89617 11.1838 2.06876 11.1849 2.24135 11.1861C2.42446 11.1855 2.60757 11.1847 2.79069 11.1838C3.29455 11.1817 3.79837 11.1827 4.30224 11.1842C4.84536 11.1854 5.38848 11.1836 5.9316 11.1823C6.99584 11.18 8.06007 11.1805 9.12432 11.182C9.98904 11.1831 10.8538 11.1832 11.7185 11.1827C11.9029 11.1826 11.9029 11.1826 12.091 11.1825C12.3408 11.1823 12.5905 11.1821 12.8403 11.182C15.1836 11.1806 17.5268 11.1822 19.8701 11.1849C21.882 11.1871 23.8938 11.1867 25.9056 11.1844C28.2404 11.1818 30.5751 11.1807 32.9099 11.1822C33.1587 11.1824 33.4076 11.1825 33.6564 11.1827C33.8401 11.1828 33.8401 11.1828 34.0274 11.1829C34.8914 11.1834 35.7553 11.1826 36.6193 11.1815C37.6718 11.1801 38.7242 11.1804 39.7767 11.1831C40.314 11.1844 40.8513 11.1849 41.3885 11.1833C41.88 11.1818 42.3714 11.1826 42.8629 11.1853C43.041 11.1858 43.2192 11.1855 43.3973 11.1843C43.6388 11.1828 43.8803 11.1847 44.1218 11.1867C44.3233 11.1868 44.3233 11.1868 44.5289 11.1869C44.9598 11.265 45.104 11.4132 45.3749 11.7496C45.5712 12.1421 45.5161 12.5611 45.5141 12.9919C45.5141 13.0943 45.5142 13.1968 45.5142 13.3023C45.5141 13.6418 45.5131 13.9814 45.5121 14.3209C45.5119 14.556 45.5117 14.791 45.5116 15.0261C45.5111 15.6454 45.5099 16.2648 45.5085 16.8842C45.5072 17.5159 45.5067 18.1477 45.506 18.7794C45.5047 20.0195 45.5026 21.2595 45.4999 22.4996C45.6392 22.4985 45.7785 22.4974 45.922 22.4962C47.2352 22.4861 48.5483 22.4786 49.8615 22.4737C50.5367 22.4711 51.2117 22.4676 51.8868 22.4619C52.5385 22.4565 53.1901 22.4535 53.8417 22.4522C54.0902 22.4513 54.3387 22.4494 54.5872 22.4467C54.9355 22.4431 55.2837 22.4426 55.6321 22.4428C55.7346 22.4411 55.8371 22.4393 55.9427 22.4374C56.9333 22.4445 57.4547 22.9238 58.1414 23.6067C58.2006 23.6653 58.2599 23.7239 58.3209 23.7843C58.5145 23.9762 58.7072 24.169 58.8998 24.3619C59.0352 24.4968 59.1705 24.6316 59.3059 24.7664C59.5886 25.0482 59.8709 25.3304 60.1528 25.613C60.5132 25.9741 60.875 26.3338 61.2372 26.6931C61.5168 26.9709 61.7955 27.2495 62.0739 27.5283C62.207 27.6613 62.3403 27.7939 62.4739 27.9263C62.6608 28.1117 62.8466 28.2982 63.032 28.4851C63.1377 28.5908 63.2434 28.6964 63.3524 28.8053C64.0784 29.656 64.0544 30.4087 64.0504 31.4855C64.0517 31.7289 64.0517 31.7289 64.053 31.9772C64.0553 32.4209 64.0551 32.8646 64.0544 33.3083C64.054 33.6792 64.0548 34.0501 64.0556 34.421C64.0573 35.2961 64.0571 36.1712 64.0557 37.0464C64.0543 37.9483 64.056 38.8502 64.0594 39.7521C64.0621 40.5275 64.063 41.3028 64.0622 42.0782C64.0618 42.5409 64.0621 43.0035 64.0643 43.4662C64.0666 43.9821 64.0648 44.4979 64.0627 45.0138C64.0639 45.1665 64.0651 45.3193 64.0663 45.4767C64.0594 46.2688 64.0459 46.779 63.4999 47.3746C63.0476 47.7259 62.7245 47.7953 62.1577 47.7862C62.0243 47.785 61.891 47.7838 61.7536 47.7826C61.6158 47.7794 61.4779 47.7763 61.3359 47.773C61.1956 47.7714 61.0553 47.7697 60.9108 47.7679C60.5655 47.7635 60.2202 47.7574 59.8749 47.7496C59.8503 47.978 59.8503 47.978 59.8251 48.211C59.6451 49.6369 58.8498 50.8101 57.7441 51.7066C56.3007 52.6997 54.8371 52.924 53.1249 52.7496C51.7623 52.4343 50.4602 51.6892 49.6635 50.5201C49.121 49.6229 48.8583 48.9249 48.6249 47.8746C38.1474 47.8746 27.6699 47.8746 16.8749 47.8746C16.7512 48.3696 16.6274 48.8646 16.4999 49.3746C16.2603 49.8182 16.0331 50.2146 15.7499 50.6246C15.6778 50.7355 15.6056 50.8463 15.5312 50.9605C14.4461 52.0758 13.0508 52.7523 11.4962 52.8236C9.90284 52.8449 8.62384 52.4541 7.40228 51.3951C6.30684 50.3267 5.80316 49.2528 5.62494 47.7496C5.48497 47.7529 5.34501 47.7562 5.2008 47.7595C4.67947 47.7709 4.15814 47.778 3.63672 47.7839C3.41144 47.7871 3.18617 47.7913 2.96094 47.7968C2.63634 47.8044 2.31191 47.8079 1.98724 47.8106C1.8372 47.8155 1.8372 47.8155 1.68412 47.8204C1.16707 47.8207 0.847379 47.78 0.438231 47.4489C0.0338511 47.0303 -0.0156564 46.8595 -0.0168397 46.2967C-0.017397 46.1741 -0.0179542 46.0516 -0.0185283 45.9253C-0.0185053 45.7897 -0.0184822 45.6541 -0.0184585 45.5144C-0.0189181 45.3711 -0.0193777 45.2278 -0.0198512 45.0802C-0.0209934 44.6813 -0.0215685 44.2823 -0.0218998 43.8834C-0.0223872 43.4536 -0.0235845 43.0238 -0.0246764 42.594C-0.0271483 41.5555 -0.0284053 40.517 -0.0295174 39.4786C-0.030065 38.9899 -0.0307359 38.5012 -0.031391 38.0125C-0.0335176 36.3886 -0.0353295 34.7647 -0.0362346 33.1408C-0.0364734 32.7193 -0.0367134 32.2977 -0.0369579 31.8762C-0.0370183 31.7714 -0.0370788 31.6667 -0.0371411 31.5587C-0.0381793 29.8604 -0.0413474 28.1621 -0.0454054 26.4637C-0.0495351 24.7212 -0.0517904 22.9788 -0.0521902 21.2363C-0.0524612 20.2575 -0.0535601 19.2787 -0.0567478 18.2998C-0.0594555 17.4665 -0.0604702 16.6331 -0.0592519 15.7998C-0.0586822 15.3744 -0.0589302 14.949 -0.0613471 14.5237C-0.0635426 14.0629 -0.0626832 13.6023 -0.0610305 13.1415C-0.0624017 13.0065 -0.0637728 12.8715 -0.0651855 12.7323C-0.0641129 12.6091 -0.0630403 12.4859 -0.0619352 12.359C-0.0620573 12.2526 -0.0621794 12.1462 -0.0623052 12.0366C0.0948558 11.3119 0.580732 11.1871 1.25309 11.1867Z" fill="#FEBF6C"/>
<path d="M45.5 22.4997C48.2611 22.4842 48.2611 22.4842 51.0781 22.4685C51.9488 22.4616 51.9488 22.4616 52.8372 22.4547C53.5479 22.4524 53.5479 22.4524 53.881 22.452C54.1128 22.4512 54.3447 22.4495 54.5765 22.4469C54.9284 22.4433 55.2802 22.4428 55.6321 22.443C55.7348 22.4412 55.8375 22.4394 55.9433 22.4375C56.9335 22.4446 57.455 22.9241 58.1414 23.6068C58.2007 23.6654 58.2599 23.724 58.3209 23.7844C58.5146 23.9763 58.7072 24.1691 58.8999 24.362C59.0352 24.4969 59.1705 24.6317 59.3059 24.7665C59.5886 25.0483 59.8709 25.3305 60.1528 25.6131C60.5132 25.9742 60.875 26.3339 61.2372 26.6932C61.5168 26.971 61.7955 27.2496 62.074 27.5284C62.207 27.6614 62.3403 27.794 62.4739 27.9264C62.6609 28.1118 62.8466 28.2983 63.032 28.4852C63.1377 28.5909 63.2435 28.6965 63.3524 28.8054C64.0785 29.6561 64.0544 30.4088 64.0505 31.4856C64.0517 31.729 64.0517 31.729 64.0531 31.9773C64.0553 32.421 64.0552 32.8647 64.0544 33.3084C64.0541 33.6793 64.0548 34.0502 64.0556 34.4211C64.0573 35.2962 64.0571 36.1713 64.0557 37.0465C64.0543 37.9484 64.056 38.8503 64.0594 39.7522C64.0622 40.5276 64.063 41.3029 64.0623 42.0783C64.0618 42.541 64.0621 43.0036 64.0643 43.4663C64.0666 43.9822 64.0648 44.498 64.0627 45.0139C64.0645 45.243 64.0645 45.243 64.0663 45.4768C64.0594 46.2689 64.0459 46.7791 63.5 47.3747C63.0476 47.726 62.7246 47.7954 62.1577 47.7863C62.0243 47.7851 61.891 47.7839 61.7536 47.7827C61.6158 47.7795 61.4779 47.7764 61.3359 47.7732C61.1956 47.7715 61.0554 47.7698 60.9108 47.768C60.5655 47.7636 60.2203 47.7575 59.875 47.7497C59.8503 47.9781 59.8503 47.9781 59.8252 48.2111C59.6451 49.637 58.8498 50.8102 57.7441 51.7067C56.3007 52.6998 54.8372 52.9241 53.125 52.7497C51.7623 52.4344 50.4602 51.6893 49.6635 50.5202C49.121 49.623 48.8584 48.925 48.625 47.8747C38.1475 47.8747 27.67 47.8747 16.875 47.8747C16.7512 48.3697 16.6275 48.8647 16.5 49.3747C16.2603 49.8183 16.0332 50.2147 15.75 50.6247C15.6778 50.7356 15.6056 50.8464 15.5312 50.9607C14.4461 52.0759 13.0508 52.7524 11.4962 52.8237C9.90286 52.845 8.62386 52.4542 7.4023 51.3952C6.30686 50.3268 5.80318 49.2529 5.62496 47.7497C5.48499 47.753 5.34503 47.7563 5.20082 47.7596C4.67949 47.771 4.15816 47.7781 3.63674 47.784C3.41146 47.7872 3.18619 47.7914 2.96096 47.7969C2.63636 47.8045 2.31193 47.808 1.98726 47.8107C1.83722 47.8156 1.83722 47.8156 1.68414 47.8205C1.16709 47.8208 0.847399 47.7801 0.438251 47.449C0.0187188 47.0147 -0.0156181 46.8349 -0.0122496 46.2487C-0.0118467 46.1255 -0.0114439 46.0022 -0.0110289 45.8752C-0.0099815 45.7461 -0.00893413 45.6171 -0.00785503 45.4841C-0.00700909 45.289 -0.00700909 45.289 -0.00614605 45.09C-0.00466997 44.7683 -0.00261138 44.4465 -4.25326e-05 44.1247C0.0788918 44.1259 0.157828 44.1271 0.239154 44.1284C1.0646 44.1398 1.88974 44.1424 2.71526 44.14C3.02285 44.1402 3.33044 44.1427 3.63799 44.1474C5.36684 44.2743 5.36684 44.2743 6.9338 43.7296C7.20905 43.4165 7.41565 43.1089 7.62496 42.7497C8.00484 42.445 8.00484 42.445 8.32808 42.2497C8.48905 42.1492 8.48905 42.1492 8.65328 42.0466C9.50479 41.6244 10.3026 41.5791 11.2343 41.5778C11.3521 41.5748 11.4699 41.5717 11.5913 41.5686C12.9352 41.563 14.1162 42.1591 15.0937 43.07C15.1865 43.1706 15.2793 43.2711 15.375 43.3747C15.4703 43.4649 15.5657 43.5552 15.664 43.6482C15.875 43.8747 15.875 43.8747 15.875 44.1247C25.6512 44.1247 35.4275 44.1247 45.5 44.1247C45.5 36.9885 45.5 29.8522 45.5 22.4997Z" fill="#62AEF3"/>
<path d="M49.3751 22.4996C50.3237 22.488 51.2723 22.4791 52.221 22.4737C52.6616 22.4711 53.1021 22.4675 53.5426 22.4619C54.0496 22.4554 54.5566 22.453 55.0636 22.4508C55.221 22.4482 55.3785 22.4456 55.5407 22.4429C55.6883 22.4429 55.8359 22.4429 55.988 22.4428C56.182 22.4412 56.182 22.4412 56.3799 22.4395C57.1263 22.5607 57.6224 23.0903 58.1416 23.6067C58.2008 23.6653 58.2601 23.7239 58.3211 23.7843C58.5147 23.9762 58.7074 24.169 58.9 24.3619C59.0353 24.4967 59.1707 24.6315 59.3061 24.7663C59.5888 25.0481 59.8711 25.3304 60.153 25.613C60.5134 25.9741 60.8752 26.3338 61.2374 26.6931C61.517 26.9708 61.7957 27.2494 62.0741 27.5283C62.2071 27.6612 62.3405 27.7939 62.4741 27.9262C62.661 28.1116 62.8467 28.2982 63.0322 28.4851C63.1379 28.5908 63.2436 28.6964 63.3525 28.8052C64.0786 29.6559 64.0546 30.4087 64.0506 31.4854C64.0515 31.6477 64.0523 31.81 64.0532 31.9772C64.0555 32.4209 64.0553 32.8645 64.0546 33.3082C64.0542 33.6791 64.055 34.05 64.0557 34.4209C64.0575 35.2961 64.0573 36.1712 64.0559 37.0463C64.0544 37.9483 64.0562 38.8501 64.0596 39.752C64.0623 40.5274 64.0631 41.3028 64.0624 42.0782C64.062 42.5409 64.0623 43.0035 64.0644 43.4662C64.0667 43.9821 64.065 44.4979 64.0628 45.0137C64.064 45.1665 64.0653 45.3192 64.0665 45.4766C64.0596 46.2687 64.0461 46.779 63.5001 47.3746C63.0477 47.7258 62.7247 47.7953 62.1578 47.7862C62.0245 47.785 61.8912 47.7838 61.7538 47.7825C61.6159 47.7794 61.4781 47.7763 61.3361 47.773C61.1958 47.7713 61.0555 47.7696 60.911 47.7679C60.5657 47.7635 60.2204 47.7573 59.8751 47.7496C59.8629 47.6092 59.8506 47.4689 59.838 47.3243C59.7 45.8499 59.7 45.8499 59.1251 44.4996C59.071 44.4052 59.0168 44.3107 58.9611 44.2134C58.4299 43.3503 57.7841 42.7041 56.8751 42.2496C56.8751 40.1458 56.8751 38.0421 56.8751 35.8746C56.3485 35.8804 55.822 35.8862 55.2794 35.8922C54.8592 35.8954 54.4391 35.8981 54.0189 35.9005C53.5755 35.9031 53.1321 35.9066 52.6888 35.9123C52.1799 35.9188 51.6711 35.9212 51.1622 35.9234C51.0035 35.926 50.8448 35.9286 50.6812 35.9312C50.4598 35.9313 50.4598 35.9313 50.2339 35.9313C50.104 35.9325 49.9741 35.9336 49.8402 35.9347C49.5001 35.8746 49.5001 35.8746 49.2082 35.6737C48.9306 35.2747 48.9375 35.0163 48.9374 34.532C48.9364 34.4066 48.9364 34.4066 48.9354 34.2787C48.9338 34.0032 48.9359 33.7278 48.9381 33.4522C48.9381 33.2605 48.9379 33.0687 48.9376 32.8769C48.9374 32.4754 48.939 32.074 48.9418 31.6725C48.9454 31.1577 48.945 30.643 48.9434 30.1282C48.9425 29.7323 48.9435 29.3366 48.9451 28.9408C48.9456 28.7509 48.9457 28.5611 48.9452 28.3713C48.9448 28.1061 48.9469 27.8411 48.9496 27.576C48.9503 27.4251 48.951 27.2742 48.9517 27.1187C49.0001 26.7496 49.0001 26.7496 49.1652 26.5138C49.5096 26.2854 49.8866 26.3144 50.2867 26.3106C50.375 26.3084 50.4632 26.3061 50.5542 26.3038C50.8356 26.2971 51.1171 26.2928 51.3986 26.2886C51.5896 26.2845 51.7806 26.2802 51.9716 26.2757C52.4394 26.2651 52.9072 26.2567 53.3751 26.2496C53.2989 26.1733 53.2226 26.0971 53.1441 26.0185C50.7501 23.6246 50.7501 23.6246 50.4238 23.2865C50.0986 22.9741 49.7857 22.806 49.3751 22.6246C49.3751 22.5833 49.3751 22.5421 49.3751 22.4996Z" fill="#399AE9"/>
<path d="M38.25 11.25C40.4362 11.25 42.6225 11.25 44.875 11.25C45.4912 11.8662 45.4912 11.8662 45.5155 12.237C45.5155 12.3345 45.5154 12.432 45.5154 12.5325C45.5156 12.6449 45.5159 12.7573 45.5161 12.8731C45.5156 13.0595 45.5156 13.0595 45.515 13.2497C45.5151 13.3811 45.5152 13.5124 45.5154 13.6478C45.5156 14.091 45.5149 14.5342 45.5142 14.9774C45.5142 15.2939 45.5142 15.6104 45.5142 15.927C45.5143 16.6099 45.5139 17.2929 45.5132 17.9759C45.5122 18.9633 45.5119 19.9508 45.5117 20.9382C45.5114 22.5402 45.5106 24.1422 45.5094 25.7441C45.5083 27.3006 45.5074 28.857 45.5069 30.4135C45.5068 30.5093 45.5068 30.6052 45.5068 30.704C45.5066 31.1851 45.5064 31.6661 45.5063 32.1472C45.505 36.1398 45.5027 40.1324 45.5 44.125C43.1075 44.125 40.715 44.125 38.25 44.125C38.25 42.7637 38.25 41.4025 38.25 40C39.3438 39.9531 39.3438 39.9531 39.6859 39.9402C39.8211 39.9336 39.8211 39.9336 39.959 39.9268C40.0506 39.9228 40.1423 39.9189 40.2367 39.9149C40.536 39.8696 40.7425 39.7829 41 39.625C41.1949 39.2352 41.1701 38.9284 41.125 38.5C40.5908 38.0378 40.0073 38.0578 39.3359 38.0391C38.7984 38.0197 38.7984 38.0197 38.25 38C38.25 36.8038 38.25 35.6075 38.25 34.375C39.4766 34.3359 39.4766 34.3359 39.8617 34.3265C39.9623 34.3224 40.0629 34.3182 40.1665 34.314C40.2693 34.3107 40.372 34.3074 40.4779 34.304C40.8116 34.2378 40.9257 34.148 41.125 33.875C41.1974 33.2835 41.1974 33.2835 40.9531 32.7656C40.0782 32.1599 39.7592 32.4588 38.25 32.375C38.25 25.4037 38.25 18.4325 38.25 11.25Z" fill="#ECA558"/>
<path d="M17.125 11.25C20.6312 11.25 24.1375 11.25 27.75 11.25C27.765 14.0738 27.765 14.0738 27.7683 15.2751C27.7705 16.0957 27.7732 16.9162 27.7782 17.7368C27.7823 18.3981 27.7846 19.0595 27.7855 19.7209C27.7862 19.9735 27.7876 20.2261 27.7896 20.4787C27.7923 20.8319 27.7927 21.185 27.7925 21.5382C27.7939 21.6433 27.7952 21.7483 27.7966 21.8565C27.7928 22.5691 27.7928 22.5691 27.5857 22.8392C27.2406 23.1025 26.8488 23.0542 26.4318 23.0525C26.3361 23.0535 26.2403 23.0546 26.1416 23.0557C25.8249 23.0586 25.5081 23.0587 25.1914 23.0586C24.9714 23.0595 24.7514 23.0604 24.5315 23.0615C24.0704 23.0632 23.6093 23.0634 23.1482 23.0626C22.5567 23.0619 21.9654 23.0657 21.3739 23.0708C20.9197 23.074 20.4655 23.0744 20.0112 23.0739C19.7931 23.0741 19.575 23.0753 19.3569 23.0775C19.0522 23.0803 18.7478 23.0791 18.4431 23.0769C18.3527 23.0786 18.2623 23.0802 18.1691 23.0819C17.7549 23.0749 17.5509 23.052 17.2562 22.751C17.0839 22.2575 17.0755 21.7987 17.0824 21.2828C17.0823 21.1742 17.0823 21.0656 17.0822 20.9537C17.0825 20.5959 17.0854 20.2382 17.0883 19.8804C17.089 19.6318 17.0896 19.3833 17.0899 19.1348C17.0914 18.4815 17.0951 17.8282 17.0992 17.175C17.1037 16.3907 17.1054 15.6064 17.1076 14.8221C17.1113 13.6314 17.1184 12.4407 17.125 11.25Z" fill="#FF4C4C"/>
<path d="M11.2343 41.5777C11.411 41.5731 11.411 41.5731 11.5913 41.5684C12.9342 41.5628 14.0984 42.1586 15.0859 43.0542C15.1813 43.1599 15.2767 43.2656 15.375 43.3746C15.5296 43.537 15.5296 43.537 15.6875 43.7027C16.6612 44.8828 16.8993 46.3936 16.875 47.8746C16.7516 48.929 16.348 49.7588 15.75 50.6246C15.6778 50.7354 15.6056 50.8463 15.5312 50.9605C14.4461 52.0757 13.0508 52.7522 11.4962 52.8236C9.90286 52.8448 8.62386 52.454 7.4023 51.3951C6.30686 50.3266 5.80318 49.2528 5.62496 47.7496C5.48499 47.7528 5.34503 47.7561 5.20082 47.7595C4.67949 47.7708 4.15816 47.778 3.63674 47.7839C3.41146 47.787 3.18619 47.7913 2.96096 47.7967C2.63636 47.8043 2.31193 47.8078 1.98726 47.8106C1.83722 47.8154 1.83722 47.8154 1.68414 47.8204C1.16709 47.8206 0.847399 47.7799 0.438251 47.4489C0.0187188 47.0146 -0.0156181 46.8347 -0.0122496 46.2486C-0.0118467 46.1253 -0.0114439 46.002 -0.0110289 45.875C-0.0099815 45.746 -0.00893413 45.6169 -0.00785503 45.4839C-0.00729107 45.3539 -0.0067271 45.2239 -0.00614605 45.0899C-0.00466997 44.7681 -0.00261138 44.4463 -4.25326e-05 44.1246C0.0788918 44.1258 0.157826 44.127 0.239152 44.1282C1.0646 44.1396 1.88974 44.1422 2.71526 44.1398C3.02285 44.1401 3.33044 44.1425 3.63799 44.1473C5.36684 44.2741 5.36684 44.2741 6.9338 43.7294C7.20905 43.4163 7.41565 43.1087 7.62496 42.7496C8.00484 42.4449 8.00484 42.4449 8.32808 42.2496C8.4354 42.1825 8.54271 42.1155 8.65328 42.0464C9.50479 41.6243 10.3026 41.5789 11.2343 41.5777Z" fill="#3D6687"/>
<path d="M16 44.25C25.6938 44.25 35.3875 44.25 45.375 44.25C45.375 45.405 45.375 46.56 45.375 47.75C35.9288 47.75 26.4825 47.75 16.75 47.75C16.7087 47.1313 16.6675 46.5125 16.625 45.875C16.4188 45.3388 16.2125 44.8025 16 44.25Z" fill="#3999E9"/>
<path d="M57.7881 42.7145C58.9961 43.709 59.7035 44.9448 59.875 46.5001C59.9878 48.1938 59.7187 49.5475 58.625 50.8751C57.6693 51.8895 56.3876 52.7114 54.9644 52.7965C53.1443 52.8434 51.6571 52.4781 50.25 51.2501C49.2257 50.1671 48.6445 48.7902 48.6167 47.3072C48.673 45.6339 49.2478 44.0751 50.4844 42.9029C52.6968 41.15 55.4958 41.0088 57.7881 42.7145Z" fill="#3D6687"/>
<path d="M54.6809 26.1454C57.0919 26.6789 59.1875 29.5312 60.4999 31.4998C60.5481 32.0133 60.541 32.5269 60.5393 33.0425C60.5389 33.2949 60.5419 33.5471 60.545 33.7996C60.5451 33.9594 60.5452 34.1192 60.5453 34.2839C60.5457 34.4301 60.546 34.5763 60.5464 34.727C60.495 35.1667 60.3953 35.4017 60.1249 35.7498C59.6692 35.9017 59.2489 35.8952 58.7743 35.8969C58.6751 35.8977 58.5759 35.8985 58.4736 35.8994C58.1453 35.9018 57.817 35.9033 57.4886 35.9045C57.3765 35.905 57.2644 35.9056 57.1489 35.9061C56.5559 35.9087 55.9628 35.9105 55.3698 35.9116C54.7568 35.913 54.1438 35.9173 53.5308 35.9223C53.0597 35.9256 52.5887 35.9266 52.1176 35.9271C51.8916 35.9277 51.6655 35.9291 51.4395 35.9314C51.1235 35.9345 50.8076 35.9344 50.4916 35.9335C50.3981 35.9351 50.3047 35.9367 50.2084 35.9383C49.797 35.9342 49.5394 35.9006 49.1918 35.6737C48.9355 35.2744 48.9372 35.0057 48.9372 34.5322C48.9361 34.4068 48.9361 34.4068 48.9351 34.2789C48.9336 34.0033 48.9356 33.7279 48.9379 33.4524C48.9378 33.2606 48.9377 33.0689 48.9373 32.8771C48.9371 32.4756 48.9387 32.0741 48.9416 31.6726C48.9451 31.1578 48.9448 30.6431 48.9432 30.1283C48.9423 29.7325 48.9433 29.3367 48.9448 28.9409C48.9454 28.7511 48.9454 28.5613 48.9449 28.3714C48.9446 28.1063 48.9466 27.8413 48.9494 27.5761C48.95 27.4253 48.9507 27.2744 48.9514 27.1189C48.9999 26.7498 48.9999 26.7498 49.1574 26.518C50.4433 25.671 53.2344 25.9337 54.6809 26.1454Z" fill="#33D7DD"/>
<path d="M30.8086 32.4215C30.9152 32.4206 31.0217 32.4197 31.1315 32.4188C31.4836 32.4167 31.8354 32.4191 32.1875 32.4218C32.4322 32.4217 32.6769 32.4213 32.9216 32.4208C33.4344 32.4205 33.9472 32.4223 34.46 32.4258C35.1174 32.43 35.7747 32.4293 36.4322 32.4269C36.9375 32.4256 37.4427 32.4267 37.948 32.4286C38.1904 32.4292 38.4329 32.4292 38.6753 32.4284C39.014 32.4277 39.3526 32.4303 39.6914 32.4337C39.8418 32.4325 39.8418 32.4325 39.9953 32.4312C40.4372 32.4388 40.7 32.4641 41.0623 32.7272C41.338 33.1285 41.3179 33.4004 41.25 33.8754C41.0615 34.1487 41.0615 34.1487 40.75 34.3754C40.3852 34.4247 40.0676 34.4438 39.7029 34.4401C39.5449 34.4414 39.5449 34.4414 39.3837 34.4427C39.0357 34.4449 38.6878 34.4435 38.3398 34.4418C38.0979 34.4421 37.856 34.4426 37.6141 34.4432C37.1072 34.444 36.6003 34.4429 36.0934 34.4406C35.4436 34.4377 34.7938 34.4393 34.1439 34.4423C33.6444 34.4441 33.145 34.4436 32.6454 34.4423C32.4058 34.4419 32.1662 34.4424 31.9266 34.4435C31.5917 34.4448 31.257 34.4429 30.9221 34.4401C30.7735 34.4416 30.7735 34.4416 30.6218 34.4431C30.1802 34.4363 29.9253 34.4132 29.5674 34.1443C29.3139 33.7899 29.25 33.5616 29.25 33.1254C29.6358 32.4298 30.0721 32.4107 30.8086 32.4215Z" fill="#FEFEFE"/>
<path d="M30.8971 37.9372C31.0512 37.9361 31.0512 37.9361 31.2083 37.9351C31.5476 37.9336 31.8867 37.9356 32.226 37.9379C32.462 37.9378 32.698 37.9377 32.934 37.9373C33.4286 37.9371 33.9232 37.9387 34.4178 37.9416C35.0514 37.9451 35.6849 37.9448 36.3185 37.9432C36.8059 37.9423 37.2933 37.9433 37.7807 37.9448C38.0142 37.9454 38.2478 37.9454 38.4814 37.9449C38.8082 37.9446 39.1348 37.9466 39.4616 37.9494C39.5579 37.9488 39.6542 37.9482 39.7534 37.9477C40.3692 37.9562 40.8062 38.0561 41.2499 38.4999C41.3224 39.2679 41.3224 39.2679 41.0638 39.6498C40.6213 39.9671 40.2138 39.9439 39.6893 39.9376C39.5826 39.9383 39.4758 39.9389 39.3658 39.9396C39.0132 39.9412 38.6607 39.9391 38.308 39.9369C38.063 39.9369 37.818 39.9371 37.573 39.9374C37.0597 39.9376 36.5464 39.936 36.0331 39.9332C35.3745 39.9296 34.716 39.93 34.0575 39.9316C33.5517 39.9325 33.0459 39.9315 32.54 39.9299C32.2972 39.9294 32.0543 39.9293 31.8114 39.9298C31.4724 39.9302 31.1334 39.9281 30.7943 39.9254C30.6432 39.9262 30.6432 39.9262 30.4891 39.9271C29.8173 39.9181 29.8173 39.9181 29.5006 39.715C29.2819 39.3406 29.2744 38.9121 29.3749 38.4999C29.7924 37.9242 30.2343 37.9289 30.8971 37.9372Z" fill="#FEFEFD"/>
<path d="M-4.4018e-05 44.125C2.14496 44.125 4.28996 44.125 6.49996 44.125C6.29371 44.62 6.08746 45.115 5.87496 45.625C5.7994 46.0241 5.74098 46.3818 5.71089 46.7812C5.69724 46.9231 5.69724 46.9231 5.68331 47.0679C5.66174 47.2951 5.64302 47.5225 5.62496 47.75C4.96223 47.7655 4.2996 47.7768 3.63674 47.7843C3.41146 47.7875 3.18619 47.7917 2.96095 47.7971C2.63636 47.8048 2.31193 47.8083 1.98726 47.811C1.83722 47.8159 1.83722 47.8159 1.68414 47.8208C1.16709 47.8211 0.847397 47.7804 0.438249 47.4493C-0.533109 46.4438 -4.4018e-05 46.1696 -4.4018e-05 44.125Z" fill="#3C9AE7"/>
<path d="M12.0328 45.077C12.6141 45.3284 12.9654 45.6696 13.2691 46.2245C13.5285 46.8998 13.4596 47.5101 13.1719 48.1644C12.8421 48.7536 12.3845 49.0389 11.7501 49.2504C11.136 49.3148 10.6464 49.3222 10.086 49.0472C9.97514 48.9493 9.86428 48.8513 9.75006 48.7504C9.63147 48.6498 9.51288 48.5493 9.39069 48.4457C8.99695 47.9474 9.04742 47.367 9.07233 46.7587C9.16473 46.087 9.45997 45.7708 9.95319 45.3363C10.5896 44.8841 11.283 44.8737 12.0328 45.077Z" fill="#CAC9C9"/>
<path d="M55.2891 45.1408C55.8048 45.5006 56.1722 45.8919 56.375 46.5002C56.4576 47.1336 56.5196 47.7399 56.2017 48.3122C55.7278 48.8723 55.3302 49.1941 54.5938 49.2849C53.8993 49.3283 53.4057 49.2363 52.8369 48.8264C52.3199 48.3356 52.1021 47.7677 52.0547 47.0627C52.0877 46.4262 52.3303 45.9721 52.75 45.5002C53.475 44.8469 54.3967 44.8377 55.2891 45.1408Z" fill="#CAC9C9"/>
</g>
<defs>
<clipPath id="clip0_440_439">
<rect width="64" height="64" fill="white"/>
</clipPath>
</defs>
</svg>
