<svg width="64" height="64" viewBox="0 0 64 64" fill="none" xmlns="http://www.w3.org/2000/svg">
<g clip-path="url(#clip0_440_454)">
<path d="M31.5815 -0.0390652C31.95 -0.0386717 32.3185 -0.0416092 32.687 -0.044772C34.3607 -0.050349 35.9747 0.0998627 37.625 0.375394C37.8382 0.410667 37.8382 0.410667 38.0556 0.446653C38.3801 0.504932 38.7016 0.569774 39.0234 0.641019C39.197 0.679389 39.197 0.679389 39.3742 0.718534C44.9305 2.01051 50.0224 4.79903 54.125 8.75039C54.2486 8.86892 54.2486 8.86892 54.3747 8.98983C55.5608 10.1329 56.6533 11.2951 57.625 12.6254C57.7322 12.7693 57.8395 12.9132 57.9468 13.057C58.7015 14.0807 59.3743 15.1436 60 16.2504C60.0503 16.3388 60.1005 16.4272 60.1523 16.5183C61.9965 19.7939 63.1877 23.4111 63.75 27.1254C63.7722 27.2652 63.7943 27.4051 63.8172 27.5492C64.0273 29.0144 64.0447 30.4673 64.039 31.9457C64.0388 32.0733 64.0385 32.2008 64.0382 32.3322C64.032 34.1607 64.0011 35.9545 63.625 37.7504C63.5877 37.9332 63.5877 37.9332 63.5497 38.1197C62.2847 44.1674 59.5451 49.6659 55.25 54.1254C55.171 54.2078 55.092 54.2902 55.0105 54.3751C53.8675 55.5612 52.7053 56.6537 51.375 57.6254C51.2311 57.7327 51.0872 57.8399 50.9433 57.9472C49.9196 58.7019 48.8568 59.3747 47.75 60.0004C47.6616 60.0507 47.5732 60.1009 47.4821 60.1527C44.5902 61.7809 41.4438 62.8745 38.1953 63.5395C38.1054 63.5579 38.0156 63.5763 37.923 63.5953C35.9908 63.9625 34.0793 64.0471 32.1172 64.0395C31.9931 64.0392 31.869 64.0389 31.7412 64.0386C29.8879 64.0322 28.0731 63.9911 26.25 63.6254C26.126 63.6006 26.002 63.5757 25.8743 63.5501C19.8313 62.2935 14.3283 59.5396 9.87499 55.2504C9.79257 55.1714 9.71015 55.0924 9.62523 55.011C8.4392 53.8679 7.34671 52.7057 6.37499 51.3754C6.26773 51.2315 6.16047 51.0876 6.05321 50.9438C5.29851 49.92 4.62566 48.8572 3.99999 47.7504C3.94971 47.662 3.89944 47.5736 3.84764 47.4825C2.21946 44.5906 1.12586 41.4442 0.460924 38.1957C0.442504 38.1058 0.424085 38.016 0.405107 37.9234C0.0333749 35.9676 -0.0466392 34.0334 -0.0390762 32.0473C-0.0388069 31.92 -0.0385375 31.7928 -0.0382599 31.6617C-0.0320511 29.8356 -0.00068897 28.044 0.374986 26.2504C0.399821 26.1285 0.424655 26.0067 0.450243 25.8811C1.68322 19.9869 4.31093 14.5968 8.44872 10.203C8.75142 9.88184 8.75142 9.88184 9.01171 9.54532C9.22604 9.28004 9.43516 9.07052 9.6953 8.85196C10.0993 8.50803 10.4881 8.15248 10.875 7.78946C15.3475 3.72852 21.1788 1.15063 27.125 0.250394C27.2647 0.228228 27.4045 0.206062 27.5485 0.183225C28.8937 -0.00981362 30.2237 -0.0420805 31.5815 -0.0390652Z" fill="#008CDE"/>
<path d="M29.5664 -0.0830078C30.0873 0.0167076 30.1289 0.106376 30.4189 0.530273C30.5586 0.763044 30.6949 0.997867 30.8281 1.23438C30.9306 1.40646 30.9306 1.40646 31.0351 1.58203C32.5805 4.20687 32.5805 4.20687 32.375 5.75C32.1969 6.34342 31.9759 6.9118 31.7367 7.48297C31.6242 7.75184 31.5154 8.02204 31.4067 8.29248C30.907 9.51163 30.475 10.4689 29.229 11.0342C28.505 11.3213 27.8097 11.2827 27.039 11.2891C26.8941 11.2927 26.7492 11.2963 26.5998 11.3C25.5188 11.308 24.8479 11.1661 24.0337 10.4497C23.7448 10.1191 23.4767 9.77902 23.2109 9.42969C22.5961 8.66701 21.9654 8.25187 20.9829 8.07764C19.7817 7.99118 18.8856 8.56042 17.875 9.125C17.6788 9.23134 17.4825 9.33746 17.2861 9.44336C15.4961 10.2903 15.4961 10.2903 14.125 11.625C14.0186 12.3132 14.0384 12.9352 14.3281 13.5703C14.8013 14.056 15.2176 14.2683 15.8935 14.29C16.5563 14.2816 17.0362 14.0475 17.6172 13.75C18.6077 13.2776 19.3193 13.0498 20.3984 13.3672C21.3338 14.0532 21.9356 15.1976 22.5469 16.1641C22.6253 16.286 22.7038 16.4079 22.7847 16.5334C22.8593 16.6508 22.9339 16.7682 23.0107 16.8892C23.0778 16.9946 23.1449 17.1 23.214 17.2086C23.5237 17.7693 23.5965 18.3666 23.5 19C23.2186 19.7796 22.7503 20.1109 22.0268 20.4563C21.0859 20.8513 20.1062 21.1495 19.1354 21.4619C16.9041 22.1725 16.9041 22.1725 15.375 23.875C15.0303 24.7617 14.8239 25.6861 14.6118 26.6113C14.4438 27.3132 14.2923 27.888 13.7109 28.3594C13.2592 28.5485 13.0912 28.5364 12.625 28.375C12.3228 28.1625 12.0388 27.9373 11.7563 27.6992C11.2362 27.295 10.6614 27.3108 10.0264 27.3154C9.18948 27.4396 8.56297 28.0137 8.0078 28.625C7.33441 29.6045 7.26062 30.4234 7.45311 31.5625C7.68496 32.4724 8.15227 33.154 8.95311 33.6484C9.17538 33.7688 9.39948 33.8858 9.62499 34C9.81472 34.1008 9.81472 34.1008 10.0083 34.2036C11.189 34.8169 12.0778 35.0355 13.3989 35.0342C13.6718 35.0367 13.9446 35.0393 14.2175 35.042C14.6449 35.0448 15.0722 35.0469 15.4996 35.0476C15.914 35.0488 16.3283 35.053 16.7427 35.0576C16.87 35.057 16.9974 35.0564 17.1286 35.0557C17.8765 35.0661 18.3042 35.1293 18.875 35.625C19.3158 36.1254 19.5034 36.42 19.539 37.0781C19.5986 37.703 19.728 38.2519 20.125 38.75C20.884 39.3686 21.8285 39.6085 22.7463 39.9116C23.8498 40.3009 24.7632 40.8587 25.3203 41.9219C25.6701 42.8616 25.5892 43.7178 25.1865 44.623C24.6899 45.6267 24.1574 46.612 23.63 47.5997C23.3616 48.1025 23.0951 48.6062 22.8304 49.1109C22.7414 49.2796 22.6519 49.4481 22.5618 49.6162C21.849 50.9464 21.2984 52.2527 21.3125 53.7891C21.3129 53.8819 21.3134 53.9748 21.3138 54.0705C21.3636 55.8301 21.9043 57.573 22.3691 59.2607C22.5401 59.8894 22.6917 60.5228 22.8437 61.1562C22.8716 61.2711 22.8995 61.3859 22.9282 61.5042C22.9538 61.6117 22.9794 61.7193 23.0058 61.8301C23.0403 61.9742 23.0403 61.9742 23.0755 62.1212C23.125 62.375 23.125 62.375 23.125 62.75C18.8779 62.323 14.4162 59.2056 11.25 56.5C11.1564 56.4204 11.0628 56.3408 10.9663 56.2588C9.27934 54.7816 7.69554 53.1893 6.37499 51.375C6.26792 51.2313 6.16083 51.0875 6.0537 50.9438C5.29869 49.9201 4.62578 48.857 3.99999 47.75C3.94971 47.6616 3.89944 47.5732 3.84764 47.4821C2.21946 44.5902 1.12586 41.4438 0.460924 38.1953C0.442504 38.1055 0.424085 38.0156 0.405107 37.923C0.0333749 35.9672 -0.0466392 34.033 -0.0390762 32.0469C-0.0388069 31.9196 -0.0385375 31.7924 -0.0382599 31.6613C-0.0320511 29.8352 -0.00068897 28.0437 0.374986 26.25C0.399821 26.1281 0.424655 26.0063 0.450243 25.8807C1.68322 19.9865 4.31093 14.5964 8.44872 10.2026C8.75142 9.88145 8.75142 9.88145 9.01171 9.54492C9.22604 9.27964 9.43516 9.07012 9.6953 8.85156C10.0993 8.50764 10.4881 8.15209 10.875 7.78906C16.2781 2.88318 22.6182 1.22362 29.5664 -0.0830078Z" fill="#97DA7C"/>
<path d="M42.3749 1.75C43.1911 1.79424 43.87 2.10746 44.6093 2.4375C44.7368 2.49402 44.8643 2.55053 44.9957 2.60876C48.3848 4.1286 51.4475 6.17124 54.1249 8.75C54.2486 8.86852 54.2486 8.86852 54.3747 8.98944C55.5607 10.1325 56.6532 11.2947 57.6249 12.625C57.7322 12.7689 57.8394 12.9128 57.9467 13.0566C58.7014 14.0803 59.3743 15.1432 59.9999 16.25C60.0753 16.3826 60.0753 16.3826 60.1523 16.5179C61.808 19.4587 62.9141 22.6599 63.5624 25.9688C63.584 26.0782 63.6056 26.1876 63.6278 26.3004C63.6462 26.4017 63.6646 26.503 63.6835 26.6074C63.7076 26.7398 63.7076 26.7398 63.7321 26.8749C63.7524 27.1595 63.7215 27.3567 63.6249 27.625C62.427 28.8565 61.3321 29.3854 59.6327 29.4453C59.4749 29.4468 59.4749 29.4468 59.3139 29.4483C59.2143 29.45 59.1147 29.4518 59.0121 29.4536C58.9226 29.4537 58.833 29.4538 58.7407 29.4539C58.4263 29.5141 58.3162 29.6219 58.1249 29.875C58.0484 30.5795 58.224 31.1388 58.4374 31.7969C58.9949 33.6574 58.8927 35.312 57.9867 37.0405C57.912 37.179 57.912 37.179 57.8359 37.3203C57.782 37.4215 57.7281 37.5227 57.6726 37.627C57.1604 38.5788 56.6144 39.5103 56.0657 40.4414C55.5077 41.3903 54.9689 42.3486 54.4374 43.3125C53.7642 44.5327 53.0742 45.7413 52.3669 46.9421C52.0333 47.5096 51.7041 48.0782 51.3891 48.6562C51.3335 48.7583 51.2778 48.8604 51.2205 48.9655C51.1198 49.1518 51.0199 49.3386 50.9212 49.5259C50.5226 50.2638 50.0771 50.9262 49.3515 51.3672C48.6324 51.5676 47.916 51.6685 47.207 51.3813C46.4291 50.9213 45.9834 50.3788 45.7499 49.5C45.715 49.098 45.7161 48.698 45.718 48.2947C45.7176 48.1755 45.7171 48.0563 45.7166 47.9335C45.7158 47.6755 45.7155 47.4175 45.7156 47.1595C45.7158 46.7506 45.7141 46.3418 45.712 45.9329C45.7062 44.7708 45.7031 43.6086 45.7023 42.4464C45.7017 41.7347 45.6987 41.0231 45.6942 40.3114C45.6929 40.0408 45.6926 39.7702 45.6933 39.4996C45.6942 39.1206 45.692 38.7416 45.6892 38.3626C45.6907 38.1962 45.6907 38.1962 45.6923 38.0264C45.6809 37.1613 45.45 36.5183 44.8969 35.8491C44.82 35.7829 44.7432 35.7167 44.664 35.6484C44.5887 35.5806 44.5135 35.5128 44.436 35.4429C43.5724 34.9074 42.7131 34.8324 41.7187 34.8281C39.8669 34.7751 38.3975 34.1773 37.0893 32.8311C35.7457 31.2488 35.3645 29.5361 35.4999 27.5C35.7371 25.9737 36.6937 24.5847 37.8749 23.625C39.5281 22.4415 41.2048 22.1759 43.1776 22.1893C43.511 22.1915 43.8442 22.1905 44.1776 22.1887C44.884 22.1856 45.5904 22.1863 46.2968 22.1875C47.119 22.1889 47.9411 22.1888 48.7633 22.1845C49.0902 22.1836 49.4169 22.1857 49.7437 22.1879C49.9452 22.1872 50.1468 22.1863 50.3483 22.1853C50.4378 22.1867 50.5273 22.1881 50.6195 22.1896C51.2871 22.1816 51.8215 22.0045 52.3749 21.625C52.8308 21.1076 52.9577 20.5842 52.9228 19.9009C52.8109 19.2557 52.512 18.8563 51.9921 18.4531C51.4497 18.153 51.0629 18.1076 50.4505 18.1009C50.3699 18.0999 50.2894 18.0988 50.2064 18.0978C49.9402 18.0947 49.6739 18.0926 49.4076 18.0908C49.3165 18.0902 49.2254 18.0895 49.1315 18.0888C48.6492 18.0855 48.167 18.083 47.6847 18.0812C47.2861 18.0796 46.8876 18.0761 46.4891 18.071C46.0072 18.0648 45.5254 18.0617 45.0435 18.0608C44.8603 18.06 44.677 18.0581 44.4938 18.0551C43.3827 17.9925 43.3827 17.9925 42.3997 18.4155C42.0962 18.7769 42.0962 18.7769 41.8364 19.1675C41.7925 19.2407 41.7486 19.3139 41.7034 19.3893C41.6595 19.4645 41.6155 19.5397 41.5702 19.6172C41.073 20.4288 40.5496 21.1433 39.6249 21.5C38.4877 21.6229 37.4468 21.6601 36.4858 20.9634C35.8253 20.3658 35.5483 19.6837 35.4721 18.8032C35.4306 17.5108 35.772 16.5904 36.6249 15.625C37.3824 14.859 38.26 14.3498 39.1952 13.8281C39.3413 13.7455 39.4872 13.6627 39.6331 13.5798C39.9187 13.4175 40.2045 13.2555 40.4904 13.0938C41.2523 12.6602 42.0011 12.2057 42.7499 11.75C42.9019 11.6591 43.0539 11.5683 43.206 11.4775C43.3535 11.3887 43.5009 11.2998 43.6484 11.2109C43.7765 11.1341 43.9046 11.0572 44.0365 10.978C44.5065 10.6614 44.8187 10.4188 44.9999 9.875C45.0481 9.27654 45.0696 8.70475 44.8749 8.13281C44.3982 7.64115 43.8688 7.41047 43.1952 7.3125C42.7893 7.36948 42.5698 7.44868 42.2109 7.625C41.5952 7.91918 41.0492 7.98873 40.3749 7.875C39.7105 7.54277 39.2371 7.08661 38.9999 6.375C38.9701 6.09131 38.9701 6.09131 38.9609 5.77344C38.9562 5.66951 38.9515 5.56558 38.9467 5.4585C39.078 4.63578 39.7538 4.10091 40.3437 3.57031C40.4599 3.46415 40.4599 3.46415 40.5784 3.35583C41.0735 2.90477 41.573 2.45863 42.0805 2.02148C42.1815 1.93417 42.2805 1.8444 42.3749 1.75Z" fill="#97DA7C"/>
<path d="M63.625 27.5C64.1044 28.3688 64.0206 29.4231 64.0254 30.3916C64.0263 30.5099 64.0272 30.6282 64.0281 30.7501C64.0566 35.6896 64.0566 35.6896 63.625 37.75C63.5877 37.9328 63.5877 37.9328 63.5497 38.1193C62.2847 44.167 59.5451 49.6655 55.25 54.125C55.171 54.2074 55.092 54.2898 55.0106 54.3748C53.8675 55.5608 52.7053 56.6533 51.375 57.625C51.2311 57.7323 51.0872 57.8395 50.9434 57.9468C49.9197 58.7015 48.8568 59.3743 47.75 60C47.6616 60.0503 47.5732 60.1005 47.4821 60.1523C44.5902 61.7805 41.4438 62.8741 38.1953 63.5391C38.1055 63.5575 38.0156 63.5759 37.923 63.5949C35.9909 63.9621 34.0794 64.0467 32.1172 64.0391C31.9931 64.0388 31.869 64.0385 31.7412 64.0382C28.7488 64.0278 26.0239 63.6371 23.125 62.875C23.0014 62.3779 22.8795 61.8804 22.7578 61.3828C22.7231 61.2432 22.6884 61.1036 22.6526 60.9597C22.4628 60.1799 22.317 59.425 22.25 58.625C22.356 58.6238 22.462 58.6227 22.5711 58.6215C30.1699 58.5172 37.6523 56.6952 43.625 51.75C43.8114 51.5992 43.8114 51.5992 44.0015 51.4453C44.4881 51.0503 44.9701 50.6509 45.4453 50.2422C45.75 50 45.75 50 46 50C46.1621 50.2056 46.1621 50.2056 46.3438 50.4766C46.6876 50.9425 46.9296 51.2028 47.5 51.375C48.2467 51.4656 48.9727 51.4666 49.6306 51.0668C50.5493 50.3459 51.0876 49.0522 51.6328 48.0469C51.7973 47.7463 51.9625 47.4461 52.1279 47.146C52.1902 47.033 52.1902 47.033 52.2536 46.9177C52.6641 46.1746 53.0924 45.4423 53.5234 44.7109C54.1447 43.655 54.7425 42.5891 55.3245 41.511C55.7541 40.7165 56.1974 39.931 56.6484 39.1484C57.1168 38.3334 57.5789 37.5158 58.0234 36.6875C58.0703 36.6015 58.1171 36.5155 58.1654 36.4268C58.9226 34.9997 58.7678 33.3014 58.3125 31.7969C58.2828 31.7052 58.253 31.6136 58.2224 31.5192C58.0413 30.9561 57.9246 30.4741 58 29.875C58.1787 29.5742 58.1787 29.5742 58.5 29.375C58.8804 29.3102 59.2555 29.3122 59.6406 29.3125C61.4074 29.2592 62.3419 28.6553 63.625 27.5Z" fill="#0069CF"/>
<path d="M3.24999 17.75C3.29124 17.75 3.33249 17.75 3.37499 17.75C3.49001 18.526 3.60455 19.302 3.71874 20.0781C3.73577 20.1939 3.75281 20.3096 3.77036 20.4289C4.01504 22.0944 4.24986 23.7607 4.46324 25.4305C4.54351 26.0512 4.62898 26.6677 4.74559 27.2827C4.85394 27.8566 4.9371 28.4324 5.01415 29.0112C5.03894 29.1936 5.06376 29.376 5.08861 29.5583C5.12661 29.8376 5.16402 30.117 5.19954 30.3966C5.45011 32.3558 5.92045 33.935 7.52733 35.2222C7.6957 35.3456 7.86445 35.4685 8.03368 35.5908C8.44394 35.8927 8.69489 36.1313 8.81005 36.6406C8.87702 37.4696 8.63046 38.0978 8.31249 38.8438C7.76101 40.1565 7.62144 41.3018 8.12499 42.6797C8.54926 43.5611 9.1515 44.1071 9.91405 44.6978C9.98858 44.7555 10.0631 44.8133 10.1399 44.8728C10.2853 44.9841 10.4317 45.0941 10.5795 45.2022C11.9224 46.2121 12.6571 47.4416 13.3281 48.9453C13.4145 49.1344 13.5012 49.3233 13.588 49.5122C13.8102 49.997 14.0298 50.483 14.2485 50.9694C14.4435 51.402 14.6405 51.8338 14.8374 52.2656C15.0637 52.7621 15.2896 53.2588 15.5143 53.756C15.9662 54.7557 16.4239 55.7524 16.8867 56.7471C16.9409 56.8636 16.9951 56.9801 17.0509 57.1001C17.318 57.6742 17.5856 58.248 17.8539 58.8216C17.9516 59.0313 18.0493 59.241 18.147 59.4507C18.1917 59.5458 18.2364 59.6409 18.2824 59.739C18.5131 60.2352 18.7138 60.7256 18.875 61.25C15.5226 60.2512 12.3596 57.6431 9.87499 55.25C9.79257 55.171 9.71015 55.092 9.62523 55.0106C8.4392 53.8675 7.34671 52.7053 6.37499 51.375C6.26773 51.2311 6.16047 51.0872 6.05321 50.9434C5.29851 49.9197 4.62566 48.8568 3.99999 47.75C3.94971 47.6616 3.89944 47.5732 3.84764 47.4821C2.21946 44.5902 1.12586 41.4438 0.460924 38.1953C0.442504 38.1055 0.424085 38.0156 0.405107 37.923C0.0333749 35.9672 -0.0466392 34.033 -0.0390762 32.0469C-0.0388069 31.9196 -0.0385375 31.7924 -0.0382599 31.6613C-0.0320511 29.8352 -0.00068897 28.0437 0.374986 26.25C0.399821 26.1281 0.424655 26.0063 0.450243 25.8807C1.86036 19.1396 1.86036 19.1396 3.24999 17.75Z" fill="#008CDE"/>
<path d="M45.625 3C46.3188 3.19871 46.9189 3.51983 47.5469 3.86719C47.657 3.9281 47.7672 3.989 47.8807 4.05176C50.1614 5.33313 52.2425 6.93692 54.125 8.75C54.2074 8.82902 54.2898 8.90803 54.3748 8.98944C55.5608 10.1325 56.6533 11.2947 57.625 12.625C57.7323 12.7689 57.8395 12.9128 57.9468 13.0566C58.7015 14.0803 59.3743 15.1432 60 16.25C60.0754 16.3826 60.0754 16.3826 60.1523 16.5179C61.808 19.4587 62.9142 22.6599 63.5625 25.9688C63.5841 26.0782 63.6056 26.1876 63.6278 26.3004C63.6462 26.4017 63.6646 26.503 63.6836 26.6074C63.7076 26.7398 63.7076 26.7398 63.7322 26.8749C63.7525 27.1595 63.7215 27.3567 63.625 27.625C62.427 28.8565 61.3321 29.3854 59.6328 29.4453C59.475 29.4468 59.475 29.4468 59.3139 29.4483C59.2144 29.45 59.1148 29.4518 59.0122 29.4536C58.9226 29.4537 58.833 29.4538 58.7408 29.4539C58.4264 29.5141 58.3162 29.6219 58.125 29.875C58.0485 30.5795 58.2241 31.1388 58.4375 31.7969C58.9949 33.6574 58.8928 35.312 57.9867 37.0405C57.937 37.1329 57.8872 37.2252 57.8359 37.3203C57.7821 37.4215 57.7282 37.5227 57.6727 37.627C57.1605 38.5788 56.6144 39.5103 56.0658 40.4414C55.5078 41.3903 54.969 42.3486 54.4375 43.3125C53.7643 44.5327 53.0742 45.7413 52.3669 46.9421C52.0334 47.5096 51.7041 48.0782 51.3892 48.6562C51.3335 48.7583 51.2779 48.8604 51.2206 48.9655C51.1198 49.1518 51.02 49.3386 50.9212 49.5259C50.5227 50.2638 50.0771 50.9262 49.3516 51.3672C48.6324 51.5676 47.9161 51.6685 47.207 51.3813C46.6429 51.0477 46.1074 50.6367 45.9253 49.981C45.9087 49.9047 45.8921 49.8285 45.875 49.75C45.9298 49.7057 45.9846 49.6614 46.041 49.6157C50.9602 45.4864 54.3595 38.646 55.375 32.375C55.3919 32.2739 55.4088 32.1729 55.4263 32.0687C56.0042 28.4515 56.0559 24.4785 55.375 20.875C55.3549 20.7646 55.3348 20.6542 55.314 20.5405C54.1032 14.1025 50.8112 8.1797 46.1266 3.62476C45.9575 3.4601 45.7909 3.29282 45.625 3.125C45.625 3.08375 45.625 3.0425 45.625 3Z" fill="#76CB7D"/>
<path d="M17.375 58C18.1244 58.0685 18.8708 58.1544 19.6172 58.25C20.4101 58.3514 21.2031 58.4358 22 58.5C22.0413 58.3762 22.0825 58.2525 22.125 58.125C22.2478 58.6429 22.3701 59.161 22.492 59.6791C22.5334 59.855 22.575 60.0309 22.6167 60.2068C22.677 60.4609 22.7367 60.715 22.7964 60.9692C22.8324 61.1218 22.8684 61.2743 22.9055 61.4314C22.9989 61.8697 23.067 62.3058 23.125 62.75C22.3204 62.676 21.6139 62.4209 20.8594 62.1406C20.6764 62.0746 20.6764 62.0746 20.4897 62.0073C18.8993 61.4236 18.8993 61.4236 18.4858 60.5342C18.3873 60.3254 18.3873 60.3254 18.2869 60.1123C18.2206 59.967 18.1543 59.8216 18.0859 59.6719C18.0172 59.5256 17.9485 59.3793 17.8777 59.2285C17.375 58.152 17.375 58.152 17.375 58Z" fill="#75CB7D"/>
<path d="M10.5 55.75C10.9161 55.8236 11.2861 55.9256 11.6758 56.0884C11.8294 56.1516 11.8294 56.1516 11.9862 56.2162C12.0939 56.2609 12.2015 56.3055 12.3125 56.3516C13.0225 56.64 13.7296 56.9254 14.4609 57.1562C14.649 57.2164 14.649 57.2164 14.8408 57.2778C15.1701 57.356 15.4353 57.3899 15.7686 57.4058C16.3654 57.4544 16.8831 57.5102 17.375 57.875C17.9977 58.7135 18.875 60.1769 18.875 61.25C16.1175 60.4284 13.564 58.4351 11.375 56.625C11.2757 56.5435 11.1765 56.4619 11.0742 56.3779C10.8791 56.2146 10.6887 56.0457 10.5 55.875C10.5 55.8337 10.5 55.7925 10.5 55.75Z" fill="#0069CF"/>
</g>
<defs>
<clipPath id="clip0_440_454">
<rect width="64" height="64" fill="white"/>
</clipPath>
</defs>
</svg>
