<svg width="100" height="100" viewBox="0 0 100 100" fill="none" xmlns="http://www.w3.org/2000/svg">
<g clip-path="url(#clip0_423_1727)">
<path d="M18.7623 96.1116C18.6999 97.1465 18.9381 98.2433 18.1799 99.1385C17.8999 99.4691 17.5794 99.7654 17.3301 100.136C12.561 100.195 7.73923 100.195 2.82591 100.195C2.72391 100.092 2.75289 99.9351 2.69717 99.8947C1.55549 99.0669 1.36192 97.8762 1.36298 96.5815C1.37085 86.9488 1.35376 77.3161 1.38369 67.6836C1.38761 66.424 1.57204 65.133 3.0396 64.6204C3.36274 64.5076 3.72458 64.4609 4.06882 64.4599C8.00646 64.4491 11.9453 64.5078 15.8813 64.4286C17.6908 64.3921 18.6785 65.5772 18.7473 67.3024C18.7667 67.7898 18.7544 68.2785 18.7395 68.9327C18.6735 69.4468 18.5825 69.7947 18.5822 70.1428C18.5742 78.4589 18.5738 86.7751 18.5839 95.0912C18.5843 95.4314 18.7002 95.7715 18.7623 96.1116ZM13.2119 89.6498C12.2144 88.2063 10.7648 87.8489 9.17133 88.1636C7.56596 88.4807 6.72614 89.6214 6.39478 91.2004C6.04203 92.8814 6.93044 94.758 8.45587 95.4214C10.1703 96.1669 12.2556 95.5957 13.2267 94.122C14.1743 92.6842 14.0137 91.2337 13.2119 89.6498Z" fill="#2882B0"/>
<path d="M43.7419 4.66573C44.5267 2.59989 46.1065 1.30559 47.9165 0.246601C49.353 0.195312 50.8545 0.195312 52.4475 0.195313C52.6233 0.331074 52.6759 0.538527 52.7966 0.591842C54.6053 1.39087 55.8016 2.76988 56.5886 4.68419C56.6051 6.21972 56.6286 7.61125 56.6522 9.00278C56.201 9.73101 55.7499 10.4592 55.2074 11.2766C53.5626 12.8646 51.7315 13.6416 49.5516 13.4641C47.7032 13.3137 46.2717 12.3246 44.9587 11.1151C44.5704 10.4537 44.1822 9.79228 43.7939 8.98471C43.7765 7.44759 43.7592 6.05666 43.7419 4.66573Z" fill="#FDBB4F"/>
<path d="M18.8308 96.1273C18.7002 95.7715 18.5843 95.4315 18.5839 95.0913C18.5738 86.7751 18.5742 78.459 18.5822 70.1428C18.5825 69.7948 18.6735 69.4468 18.7523 69.0221C20.6834 67.7821 22.5739 66.601 24.4884 65.4601C26.7744 64.0978 28.8789 62.3983 31.5893 61.8323C33.2458 61.4863 34.914 61.4183 36.5093 61.8333C43.8385 63.7404 51.1437 65.74 58.4554 67.7144C59.9087 68.1068 61.3751 68.4708 62.7914 68.9725C63.512 69.2277 64.1345 69.7597 64.8301 70.3081C64.9599 70.8924 65.1054 71.3305 65.1538 71.779C65.29 73.0418 65.4395 74.3179 64.5308 75.4058C63.5159 76.6209 62.2222 77.3663 60.6917 77.7487C57.2943 78.5977 53.863 78.4803 50.4446 78.0211C47.5882 77.6374 44.7553 77.0784 41.9125 76.5934C41.235 76.4778 40.768 76.7261 40.5321 77.3733C40.2826 78.0578 40.7316 78.4075 41.2239 78.6947C41.4396 78.8206 41.711 78.8626 41.9632 78.9123C43.4906 79.214 45.012 79.5585 46.5499 79.793C50.9431 80.4629 55.3556 81.1077 59.7861 80.2411C61.3271 79.9397 62.8773 79.4417 64.2843 78.7505C66.9982 77.4171 67.9807 74.8269 67.3712 71.2664C71.0499 69.1357 74.7258 67 78.4084 64.8759C81.74 62.9543 85.0164 60.9242 88.4306 59.1616C92.7247 56.9448 97.7075 59.2938 98.7291 64.0118C99.416 67.1841 98.4181 70.0542 95.125 71.9674C90.6222 74.5833 86.1242 77.2077 81.6115 79.8065C78.7967 81.4275 75.9496 82.9925 73.1334 84.6111C69.9875 86.4192 66.8625 88.2638 63.7239 90.0846C61.0487 91.6366 58.3684 93.1799 55.6876 94.7221C54.2386 95.5557 52.7969 96.4035 51.3239 97.1925C50.8695 97.4359 50.323 97.6354 49.818 97.637C41.4862 97.664 33.1537 97.7055 24.8226 97.621C22.7827 97.6003 20.7337 97.1954 18.8308 96.1273Z" fill="#FFC3A1"/>
<path d="M44.9445 11.2068C46.2717 12.3245 47.7032 13.3136 49.5516 13.4641C51.7315 13.6415 53.5626 12.8645 55.173 11.3348C55.2445 11.7253 55.2715 12.1465 55.2716 12.5678C55.2742 25.042 55.2741 37.5162 55.1852 50.0918C51.7043 50.1841 48.3126 50.1751 44.9209 50.166C44.924 37.2102 44.9272 24.2544 44.9445 11.2068Z" fill="#B05F3B"/>
<path d="M39.7011 33.2186C40.0259 33.2136 40.3512 33.1958 40.6756 33.2062C41.5311 33.2336 41.9309 33.6922 41.9972 34.5389C42.2713 38.0393 41.0147 40.8026 37.9485 42.5636C37.0161 43.0991 35.8658 43.4564 34.7957 43.511C32.1704 43.6447 29.5312 43.4829 26.9021 43.5728C23.5941 43.6859 20.1371 41.0592 19.3662 37.5812C19.1393 36.5578 19.1461 35.4677 19.1614 34.4099C19.1754 33.4385 19.6798 33.1936 21.4244 33.2574C23.2397 33.2605 24.8997 33.2158 26.6512 33.1836C29.3503 33.1905 31.958 33.1848 34.6416 33.2097C36.3788 33.2331 38.0399 33.2258 39.7011 33.2186Z" fill="#B05F3B"/>
<path d="M78.955 33.217C79.3454 33.2139 79.8026 33.0807 80.1101 33.2388C80.5448 33.4623 81.1441 33.8625 81.1986 34.2533C81.8957 39.2501 78.2408 43.5574 73.62 43.555C70.9843 43.5536 68.3485 43.556 65.7128 43.5544C63.0398 43.5528 59.8837 41.2434 58.9611 38.7227C58.5308 37.5469 58.3544 36.3754 58.3871 35.1337C58.4324 33.4086 58.5994 33.21 60.5131 33.244C62.3815 33.2514 64.0989 33.2159 65.9081 33.1893C68.6088 33.1895 71.2178 33.1808 73.902 33.2042C75.6365 33.23 77.2958 33.2235 78.955 33.217Z" fill="#B05F3B"/>
<path d="M62.3047 56.0548C64.9071 56.0548 67.4119 56.053 69.9167 56.0554C71.3173 56.0568 72.026 56.7281 72.07 58.0848C72.1164 59.5189 71.3739 60.4261 70.0536 60.5422C69.8922 60.5564 69.7285 60.5466 69.5659 60.5466C56.6516 60.5467 43.7373 60.5482 30.8231 60.5452C28.6503 60.5447 27.6276 58.7705 28.6862 56.8994C29.0791 56.205 29.6627 56.0475 30.393 56.0488C36.2158 56.0595 42.0386 56.0548 47.8614 56.0548C52.6433 56.0548 57.4252 56.0548 62.3047 56.0548Z" fill="white"/>
<path d="M44.8297 50.177C48.3126 50.1751 51.7043 50.1842 55.187 50.1818C58.4651 50.1787 61.6522 50.1865 64.8392 50.1955C66.3541 50.1998 67.1721 50.918 67.1874 52.2542C67.2048 53.7643 66.3312 54.6834 64.829 54.6843C55.0717 54.6899 45.3144 54.6966 35.5571 54.6798C33.3928 54.6761 32.875 53.0546 33.295 51.4119C33.5072 50.5817 34.2436 50.1804 35.1765 50.1865C38.3637 50.2072 41.5512 50.1904 44.8297 50.177Z" fill="white"/>
<path d="M43.6512 4.67383C43.7592 6.05669 43.7765 7.44762 43.7659 8.92043C40.1476 9.0023 36.5574 9.0023 32.8136 9.0023C32.8136 11.5002 32.8136 13.9466 32.7388 16.4856C31.2193 15.9591 29.7719 16.0687 28.3231 16.562C28.3231 14.0923 28.3231 11.6226 28.3231 8.98423C27.4052 8.98423 26.5428 8.98835 25.6805 8.9833C24.2583 8.97496 23.6275 8.29223 23.6329 6.77616C23.6379 5.36142 24.2954 4.69016 25.7026 4.68896C31.6552 4.68389 37.6078 4.68381 43.6512 4.67383Z" fill="white"/>
<path d="M56.7427 8.99588C56.6286 7.61118 56.6051 6.21966 56.6158 4.74773C62.596 4.67404 68.5442 4.77323 74.4869 4.6348C76.4363 4.58938 77.3077 6.58332 76.4501 8.08946C76.2009 8.52724 75.5005 8.86037 74.9601 8.94572C74.0743 9.08563 73.1503 8.98359 72.0713 8.98359C72.0713 11.4877 72.0713 13.9402 71.9964 16.4857C70.4775 15.9655 69.0305 16.0626 67.5819 16.5606C67.5819 14.0906 67.5819 11.6206 67.5819 8.98906C63.9578 8.98906 60.3956 8.98906 56.7427 8.99588Z" fill="white"/>
<path d="M78.9333 33.1464C77.2958 33.2235 75.6365 33.2299 73.8977 33.1351C72.51 30.5022 71.2019 27.9706 69.7896 25.2371C68.3953 28.0244 67.1058 30.6025 65.8163 33.1805C64.0989 33.2159 62.3815 33.2514 60.5958 33.2408C62.2824 29.8538 64.0373 26.5127 65.8813 23.1333C68.226 25.7731 71.1472 25.8242 73.4733 23.2315C73.5523 23.1434 73.6875 23.1058 73.7966 23.0447C74.9058 25.2158 76.0158 27.3865 77.1238 29.5582C77.7215 30.7298 78.3158 31.9032 78.9333 33.1464Z" fill="#F7FAFC"/>
<path d="M39.6781 33.148C38.0399 33.2258 36.3788 33.233 34.6392 33.1399C33.2539 30.5054 31.9469 27.9713 30.5342 25.2323C29.1415 28.0141 27.8506 30.5926 26.5598 33.171C24.8997 33.2157 23.2397 33.2604 21.5071 33.2614C23.1441 29.8728 24.8538 26.5279 26.6382 23.1375C29.0468 25.7946 31.8021 25.8195 34.2823 23.1649C34.3421 23.1009 34.4521 23.0839 34.5388 23.0449C35.7631 25.4072 36.9937 27.7662 38.2088 30.1332C38.7081 31.1058 39.174 32.0956 39.6781 33.148Z" fill="#F7FAFC"/>
<path d="M67.3002 71.2766C67.9807 74.8269 66.9982 77.4172 64.2843 78.7505C62.8773 79.4417 61.3271 79.9398 59.7861 80.2412C55.3556 81.1077 50.9431 80.4629 46.5499 79.793C45.012 79.5585 43.4906 79.214 41.9632 78.9124C41.711 78.8626 41.4396 78.8206 41.2239 78.6948C40.7316 78.4075 40.2826 78.0579 40.5321 77.3734C40.768 76.7261 41.235 76.4778 41.9125 76.5934C44.7553 77.0784 47.5882 77.6374 50.4446 78.0211C53.863 78.4803 57.2943 78.5977 60.6917 77.7487C62.2222 77.3663 63.5159 76.6209 64.5308 75.4058C65.4395 74.3179 65.29 73.0418 65.1538 71.7791C65.1054 71.3305 64.9599 70.8925 64.8566 70.3699C65.1569 70.5699 65.5044 70.815 65.7519 71.1369C66.2135 71.7375 66.6804 71.7907 67.3002 71.2766Z" fill="#FDB294"/>
<path d="M73.8121 22.9678C73.6875 23.1058 73.5523 23.1434 73.4733 23.2315C71.1472 25.8242 68.226 25.7731 65.911 23.0702C64.6841 20.7274 65.1674 17.9642 67.5139 16.5792C69.0305 16.0626 70.4775 15.9656 71.9977 16.5754C74.0288 17.5412 74.9573 20.2615 73.8121 22.9678Z" fill="#FCBB4F"/>
<path d="M34.5542 22.9683C34.4521 23.0839 34.3421 23.1009 34.2823 23.1649C31.8021 25.8195 29.0468 25.7946 26.6536 23.0684C25.3468 20.5511 26.0582 17.9238 28.2547 16.5792C29.7719 16.0686 31.2193 15.959 32.7402 16.5752C34.665 17.4203 35.801 20.1727 34.5542 22.9683Z" fill="#FCBB4F"/>
<path d="M13.2529 89.7111C14.0137 91.2337 14.1743 92.6842 13.2267 94.1221C12.2556 95.5958 10.1703 96.167 8.45587 95.4214C6.93044 94.758 6.04203 92.8815 6.39478 91.2005C6.72614 89.6215 7.56596 88.4807 9.17133 88.1637C10.7648 87.849 12.2144 88.2063 13.2529 89.7111Z" fill="#20698F"/>
</g>
<defs>
<clipPath id="clip0_423_1727">
<rect width="100" height="100" fill="white"/>
</clipPath>
</defs>
</svg>
