<svg width="100" height="100" viewBox="0 0 100 100" fill="none" xmlns="http://www.w3.org/2000/svg">
<g clip-path="url(#clip0_429_2034)">
<path d="M52.9488 18.882C53.173 18.9631 53.173 18.9631 53.4018 19.0457C53.7277 19.1637 54.0533 19.2826 54.3786 19.4023C54.9117 19.5985 55.4456 19.7923 55.9797 19.9856C56.763 20.2692 57.546 20.5536 58.3287 20.8386C60.2541 21.5385 62.1841 22.2256 64.1137 22.9138C64.803 23.1597 65.4923 23.4059 66.1815 23.6521C69.5247 24.8464 72.8702 26.0343 76.2163 27.2203C80.2282 28.6423 84.2382 30.0692 88.2446 31.5064C88.4509 31.5804 88.6572 31.6544 88.8697 31.7306C89.0694 31.8023 89.2692 31.874 89.475 31.9478C89.6712 32.0182 89.8675 32.0886 90.0697 32.1612C90.4547 32.2995 90.8396 32.438 91.2244 32.5768C92.2502 32.9466 93.2773 33.3119 94.3065 33.6719C94.528 33.75 94.7495 33.8281 94.9777 33.9086C95.4024 34.0583 95.8274 34.2067 96.253 34.3537C97.8552 34.921 99.1975 35.5045 100 37.1094C100.133 38.5512 100.153 39.6758 99.2188 40.8204C97.9215 41.7749 96.481 42.2695 94.973 42.7885C94.5519 42.9335 94.1318 43.0812 93.7119 43.2294C91.666 43.9454 91.666 43.9454 91.2109 43.9454C91.3809 44.2082 91.3809 44.2082 91.5543 44.4764C94.0479 48.4199 95.0922 52.7503 95.1447 57.4052C95.1475 57.6118 95.1475 57.6118 95.1504 57.8225C95.166 58.9788 95.166 58.9788 95.1661 59.5404C95.1211 61.6672 95.1211 61.6672 96.0424 63.5234C96.7599 64.5236 96.7421 65.6431 96.7453 66.8214C96.7466 66.9903 96.7479 67.1593 96.7492 67.3334C96.7512 67.6893 96.7521 68.0451 96.7521 68.401C96.7529 68.9437 96.76 69.4861 96.7674 70.0287C96.7686 70.3756 96.7693 70.7225 96.7697 71.0694C96.7739 71.3111 96.7739 71.3111 96.7782 71.5578C96.77 72.6039 96.5886 73.1915 95.8984 74.0235C95.142 74.6899 94.6869 75.0222 93.6839 75.0346C93.5084 75.0371 93.333 75.0396 93.1523 75.0422C92.962 75.0437 92.7718 75.0451 92.5758 75.0466C92.3802 75.0482 92.1846 75.0498 91.983 75.0514C91.5681 75.0541 91.1532 75.0562 90.7383 75.0577C90.106 75.0611 89.4739 75.0696 88.8416 75.0783C88.4384 75.0802 88.0352 75.0819 87.632 75.0832C87.4438 75.0866 87.2555 75.0901 87.0616 75.0936C85.8636 75.0898 85.1558 74.9276 84.1797 74.2188C83.3589 73.1604 83.1706 72.3476 83.1566 71.0404C83.155 70.8999 83.1534 70.7593 83.1518 70.6145C83.1491 70.316 83.147 70.0176 83.1455 69.7191C83.1432 69.4183 83.1393 69.1176 83.1335 68.8169C83.0479 64.3913 83.0479 64.3913 84.3962 62.7932C84.8396 62.2069 84.8639 61.9131 84.8625 61.1863C84.8631 60.9704 84.8637 60.7545 84.8643 60.5321C84.8599 60.3034 84.8556 60.0746 84.8511 59.8389C84.8484 59.6035 84.8456 59.3681 84.8428 59.1255C84.775 55.8049 84.5337 51.9017 82.0313 49.4141C81.699 49.1936 81.3594 48.9837 81.0143 48.7839C80.8388 48.6816 80.6634 48.5792 80.4826 48.4737C80.3491 48.3973 80.2157 48.3209 80.0781 48.2422C80.0799 48.4728 80.0816 48.7034 80.0834 48.9409C80.0993 51.119 80.1109 53.297 80.1186 55.4751C80.1227 56.5948 80.1282 57.7144 80.1371 58.834C80.1456 59.9155 80.1502 60.997 80.1522 62.0785C80.1537 62.4901 80.1565 62.9017 80.1607 63.3133C80.1664 63.892 80.1672 64.4706 80.1668 65.0493C80.1696 65.2176 80.1724 65.3859 80.1753 65.5593C80.1648 67.1324 79.732 68.5257 78.6621 69.7022C77.3655 70.9795 75.6727 71.2894 73.9502 71.6309C66.6477 73.1773 59.9031 75.898 53.9062 80.3589C52.3665 81.482 50.8443 82.0562 48.9037 81.7574C47.421 81.3677 46.3229 80.5389 45.1088 79.6364C39.2653 75.3316 32.386 72.9725 25.3565 71.4234C23.6949 71.052 22.2995 70.718 21.1426 69.3848C21.0348 69.265 20.9271 69.1451 20.816 69.0217C19.97 67.7401 19.8372 66.5504 19.8554 65.0578C19.8552 64.7774 19.8552 64.7774 19.8551 64.4914C19.8555 63.8784 19.8601 63.2656 19.8647 62.6526C19.8658 62.2257 19.8666 61.7988 19.8672 61.3719C19.8694 60.252 19.8752 59.132 19.8816 58.0121C19.8877 56.8678 19.8903 55.7235 19.8933 54.5792C19.8995 52.3367 19.9095 50.0942 19.9219 47.8516C19.8031 47.826 19.6843 47.8004 19.5619 47.7741C19.4051 47.7398 19.2483 47.7056 19.0867 47.6704C18.8541 47.6199 18.8541 47.6199 18.6169 47.5684C17.9854 47.4186 17.3861 47.2074 16.777 46.9842C16.6483 46.9374 16.5196 46.8906 16.3869 46.8423C15.9616 46.6875 15.537 46.5311 15.1123 46.3746C14.6516 46.206 14.1908 46.0377 13.73 45.8694C13.4003 45.7489 13.0706 45.6283 12.7409 45.5076C11.3865 45.0123 10.0286 44.5268 8.67005 44.043C8.04463 43.8196 7.41927 43.5959 6.79394 43.3722C6.3841 43.2259 5.97408 43.0802 5.56387 42.9349C4.98485 42.7297 4.40658 42.5226 3.82843 42.315C3.65599 42.2544 3.48355 42.1939 3.30588 42.1315C2.00823 41.6623 0.80354 41.1802 0.135806 39.8812C-0.233115 38.7185 -0.197176 37.5184 0.329592 36.4258C1.37084 35.3002 2.42775 34.85 3.84674 34.34C4.05346 34.2641 4.26019 34.1883 4.47317 34.1101C5.12966 33.8704 5.78723 33.6338 6.44531 33.3985C6.65163 33.3247 6.85795 33.2509 7.07052 33.1748C8.32418 32.7279 9.57982 32.2868 10.8363 31.8478C11.9935 31.4435 13.15 31.0373 14.3066 30.6313C14.5375 30.5503 14.7684 30.4693 15.0063 30.3858C16.869 29.7319 18.7294 29.0719 20.5882 28.407C21.0686 28.2352 21.5491 28.0637 22.0296 27.8922C23.6749 27.3046 25.319 26.7137 26.9614 26.1181C27.9675 25.7533 28.9741 25.3898 29.9809 25.0269C30.601 24.8034 31.2208 24.5792 31.8399 24.3532C32.5308 24.1015 33.2224 23.8521 33.9142 23.6031C34.1213 23.527 34.3285 23.4508 34.5419 23.3724C36.3913 22.7116 36.3913 22.7116 37.3047 22.8516C37.5283 23.0571 37.5283 23.0571 37.7564 23.2667C38.2318 23.6782 38.2318 23.6782 38.6986 23.6115C39.506 23.4354 40.2521 23.166 41.0156 22.8516C41.209 22.8516 41.4023 22.8516 41.6016 22.8516C41.5814 22.6462 41.5613 22.4407 41.5405 22.2291C41.6016 21.4844 41.6016 21.4844 42.0071 20.9845C42.6453 20.4518 43.1796 20.2201 43.9636 19.9494C44.0943 19.9036 44.225 19.8577 44.3597 19.8105C44.7741 19.6659 45.1897 19.5254 45.6055 19.3848C45.8845 19.2877 46.1635 19.1903 46.4424 19.0926C48.8805 18.2469 50.5042 17.9687 52.9488 18.882Z" fill="#262626"/>
<path d="M53.4187 22.7828C53.7148 22.8895 53.7148 22.8895 54.0168 22.9983C54.6679 23.2332 55.3186 23.4696 55.9692 23.7059C56.4317 23.873 56.8942 24.04 57.3567 24.2069C58.0793 24.4675 58.8019 24.7283 59.5243 24.9894C61.1671 25.5832 62.8114 26.1725 64.4569 26.7585C64.6802 26.838 64.9034 26.9174 65.1334 26.9993C65.584 27.1598 66.0346 27.3202 66.4853 27.4807C70.5947 28.9441 74.6969 30.4264 78.7948 31.9215C82.4093 33.2398 86.0314 34.5351 89.6606 35.812C91.9427 36.6155 94.2167 37.438 96.4844 38.2811C95.9258 38.8397 95.24 39.0136 94.5091 39.2722C94.2728 39.3566 94.2728 39.3566 94.0318 39.4427C93.6982 39.5613 93.3644 39.6793 93.0304 39.7968C92.5202 39.9768 92.0115 40.1605 91.5028 40.3445C91.1785 40.4593 90.8541 40.5739 90.5296 40.6882C90.3778 40.7435 90.226 40.7989 90.0696 40.8559C89.2759 41.1304 88.7148 41.3099 87.8906 41.0155C87.4283 40.7386 87.4283 40.7386 86.9385 40.393C84.1336 38.5644 81.1076 38.0882 77.8496 37.6265C77.4842 37.5745 77.1188 37.5226 76.7534 37.4706C76.5625 37.4434 76.3717 37.4163 76.175 37.3884C75.1757 37.2462 74.1765 37.1033 73.1773 36.9605C72.7486 36.8992 72.32 36.838 71.8913 36.7768C70.2292 36.5393 68.5672 36.3019 66.9051 36.0645C66.6579 36.0291 66.4106 35.9938 66.1558 35.9574C65.9074 35.9219 65.6589 35.8864 65.403 35.8499C65.154 35.8143 64.905 35.7787 64.6484 35.7421C64.146 35.6703 63.6435 35.5985 63.1411 35.5267C62.8938 35.4914 62.6465 35.4561 62.3917 35.4197C61.1786 35.2464 59.9655 35.0731 58.7524 34.8998C58.5274 34.8676 58.3023 34.8355 58.0704 34.8024C57.6319 34.7397 57.1935 34.6771 56.755 34.6144C56.3367 34.5547 55.9183 34.495 55.5 34.4354C54.5106 34.2944 53.5215 34.1522 52.5327 34.0071C52.3462 33.98 52.1596 33.9528 51.9674 33.9248C51.6208 33.8743 51.2743 33.8233 50.9278 33.7717C48.7478 33.455 46.9736 33.3575 45.0806 34.5824C44.1768 35.4143 43.6478 36.4872 43.4669 37.6952C43.4077 39.298 43.774 40.4836 44.751 41.7479C46.4262 43.059 48.1135 43.3676 50.1953 43.5912C50.704 43.6504 51.2126 43.7101 51.7212 43.7705C51.9652 43.7992 52.2091 43.8278 52.4605 43.8574C53 43.9287 53.5215 44.0171 54.0527 44.1321C55.6132 44.4657 57.2071 44.6246 58.7891 44.8241C62.4452 45.2851 62.4452 45.2851 63.4712 45.5077C64.3901 45.7063 65.3148 45.8235 66.2468 45.941C66.4086 45.9615 66.5705 45.9819 66.7372 46.003C67.4137 46.0879 68.0903 46.1719 68.7671 46.2543C69.2659 46.3154 69.7644 46.3783 70.2629 46.4415C70.4161 46.4597 70.5693 46.4778 70.7271 46.4964C71.4364 46.5875 71.8561 46.667 72.4609 47.0702C72.223 47.1544 71.985 47.2386 71.7398 47.3254C68.8549 48.3464 65.9703 49.3682 63.0859 50.3905C62.8778 50.4643 62.6696 50.5381 62.4552 50.6141C61.268 51.0349 60.081 51.456 58.8941 51.8774C58.529 52.007 58.1639 52.1366 57.7987 52.2661C57.2832 52.4489 56.7677 52.632 56.2523 52.8151C56.0079 52.9016 56.0079 52.9016 55.7585 52.9898C54.9246 53.2862 54.0948 53.5909 53.2689 53.909C53.1019 53.9727 52.9348 54.0364 52.7627 54.1021C52.4476 54.2228 52.1333 54.3452 51.8198 54.4699C50.4429 54.9954 49.3834 55.0079 47.9866 54.4852C47.8668 54.4412 47.747 54.3972 47.6236 54.3518C47.3575 54.2538 47.0919 54.1547 46.8266 54.0549C46.2205 53.8268 45.6126 53.6039 45.0048 53.3804C44.6571 53.2525 44.3095 53.1244 43.962 52.996C41.6311 52.1355 39.2914 51.2993 36.9527 50.4605C36.1381 50.1683 35.3236 49.8758 34.5091 49.5831C30.0881 47.9945 25.6662 46.4088 21.2438 44.8242C19.6907 44.2677 18.1377 43.7109 16.5848 43.154C10.0517 40.8112 10.0517 40.8112 3.51562 38.4764C3.51562 38.3475 3.51562 38.2186 3.51562 38.0858C3.61743 38.05 3.71923 38.0142 3.82412 37.9773C8.97293 36.1662 14.1176 34.3443 19.2537 32.4975C23.1216 31.1072 26.9971 29.7392 30.8768 28.382C32.0438 27.9735 33.2099 27.5622 34.375 27.1483C34.5402 27.0899 34.7053 27.0314 34.8755 26.9712C35.3184 26.8137 35.7605 26.6539 36.2022 26.493C36.442 26.4063 36.6817 26.3196 36.9287 26.2304C37.4506 25.9984 37.7432 25.8393 38.0859 25.3905C38.1973 24.9919 38.1973 24.9919 38.2202 24.5726C38.2504 24.204 38.2504 24.204 38.2812 23.828C38.7157 23.6581 39.1509 23.4919 39.5874 23.3275C39.7096 23.2793 39.8319 23.2311 39.9578 23.1814C40.709 22.9022 41.2263 22.7764 41.9922 23.0468C42.0768 23.1475 42.1614 23.2482 42.2485 23.3519C42.6924 23.7301 43.0659 23.7153 43.6343 23.7053C45.0018 23.5092 46.3107 22.8544 47.5872 22.3395C47.8212 22.2501 48.0552 22.1608 48.2964 22.0687C48.5063 21.9848 48.7163 21.9009 48.9326 21.8145C50.4617 21.5096 51.9961 22.2628 53.4187 22.7828Z" fill="#514D6C"/>
<path d="M23.2422 49.0234C24.4396 49.3735 25.6227 49.7461 26.796 50.1701C27.0203 50.2505 27.0203 50.2505 27.2492 50.3325C27.7447 50.5101 28.24 50.6884 28.7353 50.8667C29.0907 50.9942 29.4461 51.1216 29.8015 51.249C30.3751 51.4546 30.9487 51.6603 31.5222 51.8661C33.0806 52.4255 34.6397 52.9828 36.1992 53.5393C36.4376 53.6244 36.676 53.7094 36.9216 53.7971C37.868 54.1348 38.8143 54.4725 39.7607 54.8102C40.2066 54.9694 40.6525 55.1286 41.0983 55.2878C41.5328 55.4429 41.9673 55.5977 42.402 55.7522C43.505 56.145 44.6053 56.5441 45.7023 56.9536C45.9236 57.0355 46.145 57.1174 46.3731 57.2017C46.7928 57.3573 47.2119 57.5145 47.6303 57.6738C49.5332 58.3756 50.7359 58.2227 52.61 57.5371C52.9053 57.432 52.9053 57.432 53.2065 57.3248C53.8515 57.0947 54.4953 56.8616 55.1392 56.6284C55.5897 56.467 56.0402 56.3059 56.4909 56.1449C57.4064 55.8175 58.3215 55.4889 59.2362 55.1593C60.4105 54.7362 61.5858 54.3162 62.7617 53.8979C65.3055 52.9923 67.8483 52.0839 70.3879 51.1668C71.103 50.9086 71.8182 50.6508 72.5333 50.3929C73.0365 50.2113 73.5394 50.0289 74.0423 49.8465C74.3453 49.7371 74.6482 49.6278 74.9512 49.5186C75.0897 49.4681 75.2282 49.4176 75.3709 49.3656C76.3228 49.0234 76.3228 49.0234 76.7578 49.0234C76.7623 50.4716 76.7658 51.9198 76.7679 53.3679C76.7689 54.0403 76.7703 54.7127 76.7725 55.3851C76.7751 56.1573 76.776 56.9296 76.7769 57.7019C76.7779 57.9444 76.7789 58.1869 76.7799 58.4367C76.78 58.7711 76.78 58.7711 76.78 59.1121C76.7804 59.3095 76.7808 59.5068 76.7813 59.7101C76.7578 60.1562 76.7578 60.1562 76.5625 60.3516C76.0665 60.4404 75.5713 60.52 75.0732 60.5957C66.8859 61.9182 58.7441 64.592 51.6242 68.9036C51.478 68.9891 51.3317 69.0746 51.181 69.1627C51.0558 69.2389 50.9306 69.315 50.8017 69.3934C50.058 69.6428 49.4274 69.4309 48.7329 69.1148C48.5737 69.0231 48.4146 68.9314 48.2506 68.837C48.0682 68.7341 47.8859 68.6312 47.698 68.5253C47.503 68.4141 47.3079 68.303 47.1069 68.1885C41.4491 65.0638 35.226 62.7325 28.9062 61.3281C28.7771 61.2994 28.6479 61.2706 28.5148 61.241C26.9888 60.9078 25.4558 60.65 23.909 60.4355C23.4375 60.3516 23.4375 60.3516 23.2422 60.1562C23.2239 59.8086 23.2192 59.4602 23.22 59.1121C23.22 58.8892 23.22 58.6664 23.2201 58.4367C23.2211 58.1942 23.2221 57.9517 23.2231 57.7019C23.2234 57.455 23.2237 57.2082 23.2239 56.9539C23.2249 56.2966 23.2266 55.6394 23.2288 54.9821C23.2308 54.3118 23.2317 53.6415 23.2326 52.9713C23.2348 51.6553 23.2381 50.3394 23.2422 49.0234Z" fill="#43415D"/>
<path d="M23.2422 63.6718C24.4744 63.6248 25.5491 63.7888 26.7456 64.0747C27.0238 64.1399 27.0238 64.1399 27.3076 64.2064C33.9546 65.7942 40.4189 67.9687 46.3638 71.3867C48.2688 72.5376 48.2688 72.5376 50.4204 72.8149C51.7353 72.4397 52.9142 71.7567 54.1016 71.0937C60.3478 67.6287 69.3975 63.2212 76.7578 63.6718C76.8773 65.9095 76.8773 65.9095 76.4771 66.9189C75.3852 67.9309 73.702 68.1032 72.2887 68.4267C64.8889 70.121 57.5404 72.8922 51.6235 77.7771C50.846 78.376 50.1778 78.4277 49.2188 78.3203C48.6238 78.0012 48.1113 77.591 47.583 77.1728C45.9186 75.9152 44.2127 74.8277 42.3828 73.8281C42.1997 73.7275 42.1997 73.7275 42.013 73.6249C38.6223 71.7862 34.9534 70.3958 31.25 69.3359C31.0322 69.2687 30.8144 69.2015 30.5901 69.1322C29.5708 68.824 28.5574 68.5563 27.5108 68.3601C27.3359 68.3273 27.161 68.2944 26.9808 68.2606C26.6361 68.1976 26.2908 68.1373 25.9451 68.0801C24.8191 67.877 24.0703 67.6052 23.378 66.6351C23.1887 66.0437 23.2054 65.5117 23.2178 64.8925C23.2231 64.5496 23.2231 64.5496 23.2285 64.1998C23.233 64.0256 23.2375 63.8514 23.2422 63.6718Z" fill="#F3BD12"/>
<path d="M53.894 37.2802C54.3106 37.3411 54.7271 37.4019 55.1437 37.4625C56.3017 37.6315 57.4594 37.8025 58.617 37.9738C59.4017 38.0898 60.1865 38.2051 60.9713 38.3202C61.1066 38.3401 61.2419 38.3599 61.3813 38.3804C61.9375 38.462 62.4937 38.5435 63.0499 38.625C64.6119 38.8541 66.1737 39.0838 67.7352 39.3154C68.2975 39.3987 68.8598 39.482 69.4222 39.5652C69.5599 39.5856 69.6976 39.6059 69.8395 39.6269C71.7269 39.9059 73.6156 40.174 75.5058 40.4334C76.1465 40.5224 76.7871 40.6117 77.4277 40.701C77.8209 40.7552 78.2143 40.8082 78.6078 40.8599C82.5491 41.3783 85.6565 42.5542 88.2813 45.703C90.8548 49.3867 91.6471 53.4258 91.6138 57.8368C91.6129 58.0609 91.612 58.285 91.6111 58.5158C91.6088 59.0626 91.6053 59.6094 91.6016 60.1561C90.5059 60.1561 89.4102 60.1561 88.2813 60.1561C88.2703 59.6784 88.2703 59.6784 88.2591 59.191C88.1362 54.7833 87.7249 50.7494 84.6802 47.3144C82.3668 45.2831 80.2352 44.8096 77.2472 44.4059C76.5391 44.3045 75.8373 44.1744 75.1343 44.0429C73.6572 43.7716 72.1735 43.5741 70.6827 43.394C69.544 43.2533 68.415 43.0776 67.2844 42.884C65.2413 42.5356 63.189 42.2753 61.133 42.016C58.0062 41.6201 58.0062 41.6201 56.5439 41.3055C55.4218 41.0884 54.2827 40.9648 53.1494 40.8202C51.7238 40.6372 50.2983 40.4535 48.8777 40.2343C48.6941 40.2061 48.5104 40.1779 48.3212 40.1488C47.6894 40.001 47.3082 39.7357 46.875 39.2577C46.5929 38.6935 46.6061 38.3209 46.6797 37.6952C47.9616 35.6619 51.89 36.9815 53.894 37.2802Z" fill="#F3BD12"/>
<path d="M91.4307 63.5987C92.3778 64.1154 93.0127 64.7803 93.3594 65.8203C93.3757 66.2664 93.3803 66.7129 93.3784 67.1593C93.378 67.3958 93.3775 67.6322 93.377 67.8758C93.3752 68.1764 93.3734 68.477 93.3716 68.7866C93.3676 69.7414 93.3635 70.6961 93.3594 71.6797C91.168 71.6797 88.9766 71.6797 86.7188 71.6797C86.7026 70.7049 86.6865 69.73 86.6699 68.7256C86.6628 68.4202 86.6557 68.1148 86.6484 67.8001C86.6464 67.5571 86.6445 67.3142 86.6425 67.0639C86.6384 66.8164 86.6343 66.5689 86.6301 66.3139C86.7626 65.2845 87.2938 64.5452 88.0981 63.9038C89.1585 63.1142 90.2325 63.0528 91.4307 63.5987Z" fill="#F1A114"/>
</g>
<defs>
<clipPath id="clip0_429_2034">
<rect width="100" height="100" fill="white"/>
</clipPath>
</defs>
</svg>
