<svg width="100" height="100" viewBox="0 0 100 100" fill="none" xmlns="http://www.w3.org/2000/svg">
<g clip-path="url(#clip0_423_1781)">
<path d="M100.195 94.8325C99.1963 95.0522 98.1974 95.2957 97.1983 95.2963C65.5257 95.3163 33.853 95.3153 2.1804 95.294C1.56813 95.2935 0.956038 95.0127 0.269587 94.8923C0.195313 94.2655 0.195312 93.609 0.195312 92.863C1.29275 92.0313 2.53886 92.1906 3.75743 92.1886C5.69382 92.1853 7.63021 92.1861 9.71922 92.2358C9.99843 92.3099 10.125 92.3537 10.2516 92.3538C14.6964 92.3583 19.1412 92.3622 23.5859 92.3508C23.862 92.3501 24.1378 92.2242 24.4138 92.1566C26.8222 92.1659 29.2307 92.1752 31.7945 92.2305C32.1078 92.3038 32.2658 92.3549 32.4239 92.355C36.8349 92.3597 41.2459 92.3628 45.6569 92.3507C45.9328 92.35 46.2084 92.2238 46.4842 92.156C48.8936 92.1654 51.303 92.1747 53.8699 92.2254C54.1841 92.2996 54.341 92.3607 54.4979 92.3609C58.9452 92.3665 63.3925 92.369 67.8398 92.3582C68.0835 92.3576 68.327 92.2376 68.5706 92.1732C70.9743 92.1779 73.3779 92.1826 75.9478 92.2195C76.3026 92.2886 76.4911 92.3578 76.6796 92.358C81.091 92.3647 85.5023 92.3669 89.9136 92.3562C90.1565 92.3556 90.399 92.2364 90.6417 92.1723C93.1309 92.1775 95.6214 92.1389 98.1083 92.2175C98.7628 92.2382 99.4059 92.6216 100.125 92.806C100.195 93.43 100.195 94.0865 100.195 94.8325Z" fill="#407093"/>
<path d="M76.0092 88.865C75.9982 88.5078 75.9777 88.1506 75.9777 87.7935C75.9761 72.9545 75.9762 58.1155 75.9765 43.2766C75.9765 41.0432 76.8125 40.476 78.7845 40.4431C81.8751 40.3916 84.9672 40.4256 88.0586 40.4313C89.4123 40.4338 90.652 41.0597 90.6468 42.9959C90.6063 58.2253 90.6226 73.4548 90.5174 88.775C85.612 88.8656 80.8106 88.8653 76.0092 88.865Z" fill="#8BCAFF"/>
<path d="M15.2203 48.62C17.1581 47.953 19.1202 47.3485 21.0283 46.6054C24.5448 45.236 28.068 43.8723 31.5188 42.3484C37.1179 39.8756 42.4977 36.9704 47.505 33.4381C50.1098 31.6006 52.612 29.6107 55.0872 27.5993C56.6616 26.3199 58.1564 24.9295 59.5899 23.4921C62.3301 20.7445 64.7897 17.761 66.8598 14.3193C65.5658 13.4395 64.25 12.6091 63.0169 11.6701C62.6059 11.357 62.2566 10.7901 62.1745 10.2907C62.1336 10.0421 62.7086 9.55132 63.0947 9.40181C63.9772 9.06012 64.9108 8.84563 65.8307 8.60673C70.2491 7.45927 74.6705 6.32333 79.0894 5.17775C80.4216 4.8324 80.9598 5.30435 81.0725 6.6786C81.2633 9.00564 81.571 11.323 81.8198 13.6454C81.9632 14.984 82.1045 16.3231 82.2161 17.6645C82.3654 19.4588 82.5244 21.2541 82.5856 23.0522C82.5986 23.4353 82.2999 23.9797 81.9777 24.177C81.7094 24.3413 81.1176 24.2277 80.805 24.0262C79.4695 23.1653 78.1844 22.2262 76.7841 21.2317C76.202 20.7708 75.7257 20.3815 75.2294 20.0196C74.5205 19.5028 73.9179 19.6495 73.364 20.3098C71.5921 22.4219 69.8012 24.5181 68.0204 26.6228C65.296 29.8428 62.0461 32.4855 58.6933 34.998C55.3563 37.4985 51.7553 39.5686 47.9842 41.3616C44.3276 43.1002 40.5575 44.5402 36.6361 45.484C32.7628 46.4161 28.8397 47.1935 24.9001 47.7815C21.703 48.2587 18.4491 48.3549 15.2203 48.62Z" fill="#82D361"/>
<path d="M53.939 88.8627C53.928 88.4403 53.9076 88.0179 53.9075 87.5955C53.9058 76.3337 53.9059 65.072 53.9063 53.8102C53.9064 51.932 54.6541 51.1724 56.5029 51.1719C59.6926 51.1711 62.8824 51.17 66.0721 51.1724C67.7468 51.1736 68.5538 51.9696 68.5538 53.6274C68.5539 65.3123 68.5514 76.9972 68.4465 88.7734C63.5418 88.864 58.7404 88.8634 53.939 88.8627Z" fill="#98DB7C"/>
<path d="M31.8686 88.8652C31.8577 82.031 31.8465 75.1968 31.8363 68.3626C31.8342 66.963 31.8338 65.5635 31.8366 64.1639C31.8394 62.7315 32.6414 61.9164 34.0576 61.9151C37.4425 61.912 40.8275 61.9129 44.2124 61.9147C45.6552 61.9155 46.4807 62.7657 46.4826 64.2736C46.4878 68.5048 46.4849 72.736 46.4842 76.9672C46.4836 80.8729 46.4817 84.7786 46.3766 88.7751C41.4714 88.8657 36.67 88.8655 31.8686 88.8652Z" fill="#FFBA57"/>
<path d="M9.79853 88.8633C9.78757 84.1154 9.76502 79.3675 9.77301 74.6196C9.77529 73.2685 10.6441 72.4934 12.2571 72.4731C15.4766 72.4324 18.7017 72.3559 21.9152 72.501C23.7927 72.5858 24.3614 73.116 24.3929 75.2176C24.4601 79.7051 24.411 84.1943 24.3055 88.7737C19.4004 88.8642 14.5995 88.8637 9.79853 88.8633Z" fill="#FFE27A"/>
<path d="M15.1476 48.6273C18.449 48.3547 21.703 48.2585 24.9001 47.7813C28.8397 47.1933 32.7628 46.4159 36.636 45.4838C40.5575 44.54 44.3276 43.1 47.9842 41.3614C51.7553 39.5684 55.3562 37.4983 58.6933 34.9978C62.0461 32.4853 65.296 29.8426 68.0204 26.6226C69.8012 24.5179 71.592 22.4217 73.364 20.3096C73.9179 19.6493 74.5205 19.5026 75.2293 20.0194C75.7257 20.3813 76.202 20.7706 76.7212 21.2019C75.0297 23.351 73.3728 25.5076 71.5565 27.5204C70.1718 29.0549 68.6385 30.4688 67.0748 31.8252C64.9979 33.6268 62.8941 35.4118 60.6772 37.0335C58.6032 38.5506 56.4111 39.9212 54.1924 41.2224C49.0387 44.2449 43.5763 46.6048 37.8313 48.2302C33.897 49.3433 29.9166 50.3382 25.9045 51.1163C22.9617 51.6871 19.9339 51.8178 16.9448 52.1522C16.5987 52.1909 16.2593 52.3239 15.9145 52.3336C15.0713 52.3572 14.225 51.6929 14.0693 50.9342C13.8277 49.7564 14.1107 49.1093 15.1476 48.6273Z" fill="#0BBB6C"/>
<path d="M53.9252 88.9535C58.7404 88.8635 63.5418 88.8641 68.4326 88.8638C68.5338 89.9061 68.5456 90.9493 68.564 92.0829C68.327 92.2375 68.0835 92.3575 67.8398 92.3581C63.3925 92.3689 58.9452 92.3664 54.4979 92.3608C54.3409 92.3606 54.1841 92.2995 53.9604 92.2191C53.8995 91.129 53.9054 90.0866 53.9252 88.9535Z" fill="#82D361"/>
<path d="M9.78397 88.9539C14.5995 88.8638 19.4004 88.8643 24.2908 88.864C24.3914 89.9018 24.4027 90.9404 24.4138 92.0677C24.1378 92.2241 23.862 92.35 23.5859 92.3507C19.1412 92.3621 14.6964 92.3582 10.2516 92.3537C10.125 92.3536 9.99842 92.3098 9.80949 92.2313C9.75458 91.1323 9.76199 90.0884 9.78397 88.9539Z" fill="#F9CF58"/>
<path d="M31.8543 88.9557C36.67 88.8655 41.4714 88.8657 46.3622 88.8655C46.4626 89.9027 46.4734 90.9404 46.4843 92.067C46.2084 92.2237 45.9328 92.3499 45.6569 92.3506C41.2459 92.3627 36.8349 92.3596 32.4239 92.355C32.2658 92.3548 32.1079 92.3037 31.8849 92.2249C31.8266 91.131 31.8333 90.0886 31.8543 88.9557Z" fill="#FFAC3E"/>
<path d="M75.9947 88.9555C80.8106 88.8653 85.612 88.8656 90.5028 88.8655C90.6038 89.9074 90.6153 90.9497 90.6342 92.0822C90.399 92.2363 90.1565 92.3555 89.9136 92.3561C85.5023 92.3668 81.0909 92.3646 76.6796 92.358C76.491 92.3577 76.3025 92.2886 76.0385 92.2185C75.9687 91.139 75.9744 90.0925 75.9947 88.9555Z" fill="#6CC4FF"/>
</g>
<defs>
<clipPath id="clip0_423_1781">
<rect width="100" height="100" fill="white"/>
</clipPath>
</defs>
</svg>
