<svg width="24" height="28" viewBox="0 0 24 28" fill="none" xmlns="http://www.w3.org/2000/svg">
<path d="M12.192 26C11.928 26 11.688 25.88 11.52 25.688C10.656 24.704 3 15.992 3 11.192C3 6.128 7.128 2 12.192 2C17.256 2 21.384 6.128 21.384 11.192C21.384 15.968 13.728 24.704 12.864 25.688C12.696 25.88 12.456 26 12.192 26ZM12.192 3.824C8.136 3.824 4.824 7.136 4.824 11.192C4.824 14.36 9.648 20.672 12.192 23.696C14.736 20.696 19.56 14.36 19.56 11.192C19.56 7.136 16.248 3.824 12.192 3.824Z" fill="#418DFF"/>
<path d="M12.192 15.9199C9.64798 15.9199 7.58398 13.8559 7.58398 11.3119C7.58398 8.76786 9.64798 6.70386 12.192 6.70386C14.736 6.70386 16.8 8.76786 16.8 11.3119C16.8 13.8559 14.736 15.9199 12.192 15.9199ZM12.192 8.52786C10.656 8.52786 9.40799 9.77586 9.40799 11.3119C9.40799 12.8479 10.656 14.0959 12.192 14.0959C13.728 14.0959 14.976 12.8479 14.976 11.3119C14.976 9.77586 13.728 8.52786 12.192 8.52786Z" fill="#418DFF"/>
</svg>
