<svg width="100" height="100" viewBox="0 0 100 100" fill="none" xmlns="http://www.w3.org/2000/svg">
<path d="M54.1013 83.7828C53.777 83.7966 53.4527 83.8225 53.1284 83.8226C39.7199 83.8246 26.3115 83.8245 12.9031 83.8241C11.4991 83.8241 11.4977 83.8227 11.4977 82.4305C11.4972 74.0339 11.4962 65.6374 11.4995 57.2408C11.4998 56.5367 11.4408 55.9922 10.662 55.5587C10.3718 55.3973 10.3164 54.0029 10.648 53.6829C11.7747 52.5958 11.8202 52.2739 10.3731 51.4947C10.3731 50.9886 10.3731 50.4708 10.3731 49.8472C11.4156 49.7317 11.5484 48.9904 11.5071 48.0924C11.4639 47.1506 11.5161 46.2048 11.4918 45.2616C11.4755 44.6293 11.7667 44.3669 12.3711 44.3844C12.5662 44.39 12.7616 44.3843 12.9568 44.3843C32.2559 44.3842 51.5549 44.3841 70.8539 44.3844C72.3531 44.3844 72.3551 44.3857 72.3544 45.9139C72.3519 51.3162 72.348 56.7186 72.2385 62.214C70.3426 62.7086 68.4933 62.9407 66.7744 63.5441C62.0913 65.1883 58.5749 68.2747 56.2492 72.6717C54.4086 76.1516 53.8847 79.8987 54.1013 83.7828ZM54.8841 60.0412C54.8873 59.4391 54.9623 58.8271 54.8809 58.2366C54.5694 55.9757 53.2905 54.4412 51.1566 53.6938C48.9328 52.9149 46.9343 53.4137 45.2511 55.0513C43.6663 56.5932 42.1057 58.1607 40.5646 59.7462C40.1625 60.1598 39.8724 60.6823 39.5187 61.1716C39.024 60.7475 38.8325 60.5818 38.6392 60.418C37.4447 59.4055 36.1482 58.7253 34.5005 58.7731C32.1106 58.8424 30.1619 60.1633 29.1977 62.5155C28.4161 64.4221 28.9509 66.9275 30.4783 68.4643C31.9454 69.9404 33.4974 71.3405 34.8747 72.8957C37.1318 75.4442 41.1413 75.4609 43.6082 72.9173C46.6417 69.7897 49.7494 66.7336 52.8465 63.6683C53.8398 62.6851 54.6037 61.5958 54.8841 60.0412ZM36.0352 80.6881C30.5019 80.6881 24.9685 80.6864 19.4352 80.6923C19.0814 80.6926 18.6499 80.639 18.3944 80.8143C18.1021 81.0148 17.7877 81.4582 17.8134 81.7687C17.8387 82.0735 18.2412 82.3998 18.5511 82.6082C18.733 82.7304 19.0572 82.6457 19.3174 82.6457C30.0585 82.6465 40.7997 82.6465 51.5408 82.6458C51.8011 82.6458 52.1206 82.7312 52.3083 82.6123C52.6245 82.412 53.0456 82.097 53.0731 81.798C53.1024 81.4814 52.7942 81.0291 52.5019 80.8195C52.2525 80.6407 51.8167 80.693 51.4633 80.6925C46.3857 80.6861 41.3081 80.6881 36.0352 80.6881ZM70.378 45.5416C69.4993 45.5589 69.191 46.0942 69.1892 46.8798C69.1834 49.3479 69.1801 51.8161 69.1916 54.2842C69.1948 54.9876 69.3948 55.6548 70.2423 55.6359C71.0829 55.6171 71.2519 54.9429 71.2537 54.2419C71.2599 51.8062 71.2935 49.3695 71.2231 46.9359C71.2097 46.4759 70.7677 46.0283 70.378 45.5416ZM70.218 60.7361C71.2506 60.3801 71.6808 58.642 70.8958 57.9027C70.4151 57.45 69.8844 57.4861 69.4627 57.9992C68.8429 58.7533 69.186 60.2344 70.218 60.7361ZM13.8226 82.6463C14.1476 82.6449 14.5268 82.7494 14.7848 82.6173C15.1631 82.4235 15.6465 82.1019 15.7214 81.756C15.7793 81.4887 15.3437 80.9792 15.0085 80.8002C14.6718 80.6203 14.1867 80.6837 13.7686 80.6987C13.2074 80.7189 12.7313 80.9102 12.6873 81.5769C12.643 82.2491 12.9601 82.62 13.8226 82.6463Z" fill="#EEBF27"/>
<path d="M18.3928 41.0041C18.4394 35.2812 18.1994 29.5383 18.5966 23.8398C19.2763 14.0896 27.1156 5.52909 36.7449 3.52656C38.0136 3.26274 39.3149 3.1577 40.5987 2.96385C40.8792 2.92152 41.3234 2.89019 41.3966 2.72377C41.8788 1.62768 42.8055 2.01055 43.3674 1.97401C43.8861 2.43598 44.2182 2.94358 44.6456 3.04352C44.971 3.11961 45.4174 2.6781 45.7069 2.27381C46.041 2.29715 46.3963 2.25761 46.7034 2.36113C47.0237 2.46912 47.4993 2.66947 47.5534 2.90921C47.705 3.5813 48.1436 3.75998 48.6987 3.93633C58.923 7.18439 65.4269 16.0554 65.4581 26.7843C65.4658 29.4148 65.4593 32.0453 65.4593 34.7331C62.9923 34.7331 60.5759 34.7331 58.0722 34.7331C58.0722 32.096 58.0516 29.5003 58.0778 26.905C58.106 24.1232 57.5394 21.4916 56.2495 19.0183C52.9931 12.7747 46.084 9.37429 39.0794 10.5758C32.2804 11.742 26.8701 17.3614 25.9485 24.2428C25.8324 25.1096 25.7841 25.9912 25.7809 26.8663C25.7642 31.5186 25.7718 36.1711 25.6698 40.9218C23.1766 41.0148 20.7847 41.0094 18.3928 41.0041Z" fill="#EDEDED"/>
<path d="M61.4969 71.4618C65.6885 66.9024 70.7566 65.1952 76.7872 66.3698C77.1429 66.4391 77.5976 66.419 77.9023 66.2515C78.7804 65.7687 80.1603 66.0542 80.7449 66.9044C80.8813 67.1026 81.0694 67.3215 81.2822 67.4006C81.991 67.6641 82.7219 67.8683 83.5289 68.1218C83.0088 69.137 83.4111 69.6685 84.0046 70.2401C90.5988 76.5912 90.5334 86.7694 83.8804 92.9909C83.6528 93.2037 83.4063 93.3963 82.9948 93.7461C83.1986 88.9504 81.4021 85.4439 77.1814 83.3535C80.3223 79.9008 80.5204 76.2009 77.7234 73.5517C75.2554 71.2141 71.3263 71.2402 68.8981 73.6104C66.1566 76.2864 66.382 79.9792 69.5096 83.3445C65.3215 85.437 63.4786 88.8846 63.6898 93.5119C58.4935 90.34 54.629 79.74 61.4969 71.4618ZM84.9614 82.1015C84.9111 83.8191 84.4544 85.4306 83.6666 86.9486C83.3456 87.5669 83.2227 88.1608 83.9447 88.5345C84.6708 88.9104 85.0662 88.4538 85.3931 87.8391C88.0158 82.907 87.2095 76.5127 83.4328 72.409C77.8828 66.3782 68.4067 66.5017 62.9866 72.6848C62.5816 73.1468 62.217 73.6525 61.8926 74.1746C61.5695 74.6947 61.5478 75.2612 62.1128 75.6361C62.6386 75.9849 63.1048 75.7624 63.4671 75.2972C63.5667 75.1694 63.645 75.0252 63.7425 74.8956C66.483 71.2561 70.1569 69.4772 74.6644 69.9855C80.8569 70.6838 85.1703 75.9042 84.9614 82.1015ZM61.3251 77.4448C60.9372 77.6904 60.3031 77.869 60.214 78.196C60.0431 78.8233 60.1346 79.5428 60.246 80.2022C60.2615 80.2935 61.1086 80.4265 61.4003 80.2532C62.1469 79.8098 62.1306 78.1044 61.3251 77.4448Z" fill="#71C0E6"/>
<path d="M80.8168 95.1896C76.0197 97.6717 71.2465 97.7548 66.4202 95.5052C65.853 95.2408 65.5639 94.9367 65.626 94.2614C65.7239 93.1973 65.617 92.1074 65.7828 91.0578C66.419 87.0305 69.7453 84.3896 73.8524 84.5686C77.6058 84.7322 80.76 87.8795 80.9992 91.7848C81.0673 92.897 80.9254 94.0221 80.8168 95.1896Z" fill="#F95B3C"/>
<path d="M69.7473 75.6315C71.2271 73.8477 73.1942 73.317 75.0926 74.141C76.887 74.9198 77.9363 76.7406 77.7219 78.7037C77.5119 80.6264 76.0016 82.2248 73.9888 82.5307C72.2278 82.7983 70.7655 82.1524 69.7542 80.7061C68.6169 79.0797 68.6469 77.3729 69.7473 75.6315Z" fill="#FBB39D"/>
<path d="M54.1905 83.801C53.8846 79.8986 54.4086 76.1515 56.2492 72.6716C58.5749 68.2746 62.0913 65.1882 66.7744 63.544C68.4933 62.9406 70.3426 62.7085 72.2158 62.3027C72.3284 62.8435 72.3575 63.3885 72.3915 64.0248C67.3472 64.4558 63.1387 66.4646 59.9128 70.3177C56.6769 74.1827 55.4501 78.6838 55.9454 83.8193C55.3552 83.8193 54.8174 83.8193 54.1905 83.801Z" fill="#E4A323"/>
<path d="M18.3787 41.0924C20.7847 41.0095 23.1766 41.0149 25.6576 41.012C25.7466 41.4224 25.7466 41.8412 25.7466 42.3374C23.315 42.3374 20.885 42.3374 18.3646 42.3374C18.3646 41.939 18.3646 41.5598 18.3787 41.0924Z" fill="#B1B1B1"/>
<path d="M83.3373 55.9727C82.9619 56.594 82.5394 57.1601 82.1157 57.7278C81.5533 57.1931 81.0136 56.6799 80.4934 56.1853C81.0072 55.6148 81.4963 55.0718 81.9931 54.5203C82.4257 54.9862 82.858 55.4519 83.3373 55.9727Z" fill="#E4B71E"/>
<path d="M52.525 92.9664C52.7335 93.1662 52.8949 93.3183 53.0655 93.4791C52.585 94.0214 52.1194 94.5467 51.6353 95.0929C51.1447 94.6002 50.6353 94.0887 50.1071 93.5583C50.6168 92.9839 51.1155 92.4217 51.6179 91.8555C51.9168 92.225 52.1973 92.5718 52.525 92.9664Z" fill="#E5B81F"/>
<path d="M54.8787 60.1219C54.6037 61.5956 53.8398 62.6849 52.8464 63.6681C49.7494 66.7335 46.6417 69.7895 43.6082 72.9171C41.1413 75.4607 37.1318 75.444 34.8747 72.8956C33.4974 71.3404 31.9454 69.9402 30.4783 68.4641C28.9509 66.9274 28.4161 64.4219 29.1977 62.5153C30.1619 60.1632 32.1106 58.8422 34.5004 58.7729C36.1482 58.7252 37.4447 59.4053 38.6392 60.4178C38.8325 60.5816 39.024 60.7474 39.5187 61.1714C39.8724 60.6822 40.1625 60.1597 40.5646 59.746C42.1057 58.1605 43.6663 56.593 45.2511 55.0511C46.9342 53.4135 48.9328 52.9148 51.1566 53.6937C53.2905 54.4411 54.5694 55.9756 54.8809 58.2365C54.9623 58.8269 54.8873 59.439 54.8787 60.1219ZM44.1642 58.5196C42.5383 60.1516 40.9123 61.7836 39.1612 63.5413C38.5177 62.8486 37.9769 62.2017 37.3694 61.6251C35.737 60.0755 33.2932 60.1079 31.7561 61.6662C30.217 63.2264 30.2168 65.6533 31.7976 67.2794C33.2943 68.8191 34.8159 70.3351 36.3516 71.836C38.0593 73.5048 40.3984 73.5234 42.105 71.8383C45.4389 68.5464 48.7529 65.2339 52.043 61.8984C53.6389 60.2806 53.6238 57.8452 52.0912 56.2803C50.5238 54.68 48.0908 54.6753 46.4051 56.286C45.676 56.9826 44.9754 57.709 44.1642 58.5196Z" fill="#E4A323"/>
<path d="M36.1328 80.6881C41.3081 80.6881 46.3857 80.6861 51.4633 80.6925C51.8167 80.6929 52.2525 80.6407 52.5019 80.8195C52.7942 81.0291 53.1024 81.4814 53.0731 81.7979C53.0456 82.097 52.6245 82.412 52.3083 82.6123C52.1206 82.7312 51.8011 82.6458 51.5408 82.6458C40.7996 82.6465 30.0585 82.6465 19.3174 82.6457C19.0572 82.6456 18.733 82.7304 18.5511 82.6082C18.2412 82.3998 17.8387 82.0735 17.8134 81.7687C17.7876 81.4582 18.1021 81.0148 18.3944 80.8143C18.6499 80.639 19.0814 80.6926 19.4352 80.6923C24.9685 80.6864 30.5019 80.6881 36.1328 80.6881Z" fill="#F7E3AB"/>
<path d="M70.4507 45.5581C70.7677 46.0281 71.2097 46.4757 71.223 46.9357C71.2935 49.3693 71.2599 51.806 71.2537 54.2417C71.2519 54.9427 71.0829 55.6169 70.2423 55.6357C69.3948 55.6546 69.1948 54.9874 69.1915 54.284C69.1801 51.8159 69.1834 49.3477 69.1891 46.8796C69.191 46.094 69.4993 45.5587 70.4507 45.5581Z" fill="#F7E2AA"/>
<path d="M70.142 60.7307C69.186 60.2343 68.8429 58.7532 69.4627 57.9991C69.8844 57.4859 70.4151 57.4498 70.8958 57.9026C71.6808 58.6419 71.2506 60.3799 70.142 60.7307Z" fill="#F7E2AA"/>
<path d="M13.7357 82.645C12.9601 82.6199 12.643 82.2491 12.6873 81.5768C12.7313 80.9101 13.2074 80.7189 13.7687 80.6987C14.1867 80.6836 14.6718 80.6202 15.0085 80.8001C15.3437 80.9792 15.7793 81.4886 15.7214 81.7559C15.6465 82.1018 15.1631 82.4234 14.7848 82.6172C14.5268 82.7494 14.1476 82.6449 13.7357 82.645Z" fill="#F7E2AA"/>
<path d="M84.9621 82.0085C85.1703 75.9041 80.8569 70.6837 74.6644 69.9854C70.157 69.4771 66.483 71.256 63.7425 74.8955C63.645 75.0251 63.5667 75.1693 63.4671 75.2971C63.1048 75.7623 62.6386 75.9847 62.1128 75.6359C61.5478 75.261 61.5695 74.6946 61.8926 74.1745C62.217 73.6524 62.5816 73.1467 62.9866 72.6847C68.4067 66.5016 77.8828 66.3781 83.4328 72.4089C87.2095 76.5126 88.0158 82.9068 85.3931 87.839C85.0663 88.4537 84.6708 88.9103 83.9447 88.5344C83.2227 88.1607 83.3456 87.5668 83.6666 86.9485C84.4544 85.4305 84.9112 83.819 84.9621 82.0085Z" fill="#C2E3FD"/>
<path d="M61.391 77.4753C62.1306 78.1044 62.1469 79.8098 61.4003 80.2533C61.1086 80.4265 60.2615 80.2935 60.246 80.2022C60.1346 79.5428 60.0431 78.8233 60.214 78.1961C60.3031 77.869 60.9372 77.6905 61.391 77.4753Z" fill="#C1E3FC"/>
<path d="M44.2131 58.4708C44.9754 57.7091 45.676 56.9827 46.4051 56.286C48.0908 54.6754 50.5239 54.68 52.0912 56.2804C53.6238 57.8453 53.6389 60.2807 52.043 61.8985C48.7529 65.234 45.4389 68.5465 42.1051 71.8383C40.3984 73.5235 38.0593 73.5049 36.3516 71.8361C34.8159 70.3352 33.2943 68.8191 31.7976 67.2795C30.2168 65.6534 30.2171 63.2265 31.7561 61.6663C33.2933 60.108 35.737 60.0755 37.3694 61.6251C37.9769 62.2018 38.5177 62.8487 39.1612 63.5413C40.9124 61.7837 42.5383 60.1517 44.2131 58.4708ZM37.8037 70.5295C39.016 71.3968 39.8678 71.3252 40.9821 70.215C43.9545 67.2534 46.9172 64.2819 49.8819 61.3125C50.2033 60.9905 50.544 60.6806 50.821 60.3227C51.4136 59.5571 51.3509 58.3974 50.7182 57.716C50.0148 56.9585 48.9322 56.8395 48.0603 57.449C47.7964 57.6335 47.5678 57.8723 47.3382 58.1015C44.9671 60.4685 42.6022 62.8417 40.2287 65.2062C39.3836 66.0481 39.0591 66.0422 38.201 65.201C37.5738 64.5862 36.9635 63.9543 36.3348 63.3412C35.2815 62.3141 34.1217 62.2394 33.2425 63.1297C32.3612 64.0222 32.4446 65.1619 33.4923 66.2207C34.8879 67.6311 36.2963 69.0287 37.8037 70.5295Z" fill="#030301"/>
<path d="M37.7514 70.4806C36.2963 69.0286 34.8878 67.631 33.4923 66.2206C32.4446 65.1618 32.3612 64.0221 33.2425 63.1296C34.1217 62.2392 35.2815 62.314 36.3348 63.3411C36.9635 63.9542 37.5738 64.5861 38.2009 65.2009C39.0591 66.0421 39.3835 66.048 40.2287 65.2061C42.6022 62.8415 44.9671 60.4684 47.3382 58.1014C47.5678 57.8722 47.7964 57.6333 48.0603 57.4489C48.9322 56.8394 50.0148 56.9583 50.7182 57.7159C51.3508 58.3973 51.4136 59.557 50.8209 60.3226C50.5439 60.6805 50.2033 60.9904 49.8819 61.3124C46.9172 64.2818 43.9545 67.2533 40.9821 70.2149C39.8678 71.3251 39.016 71.3966 37.7514 70.4806Z" fill="#0BBB6C"/>
</svg>
