<svg width="26" height="26" viewBox="0 0 26 26" fill="none" xmlns="http://www.w3.org/2000/svg">
<path fill-rule="evenodd" clip-rule="evenodd" d="M2.66775 5.91824L2.80131 5.76798C3.29082 5.25611 4.02007 5 4.9884 5H21.5835C22.4961 5 23.1973 5.22272 23.6871 5.66781L23.7038 5.68451C23.804 5.77366 23.9045 5.87917 24.0043 6.00172C24.0043 6.01307 24.01 6.02409 24.021 6.03511L24.0377 6.0518C24.4054 6.50825 24.5887 7.15369 24.5887 7.98846V17.438C24.5776 19.4414 23.5759 20.4431 21.5835 20.4431H4.9884C2.99598 20.4321 1.99994 19.4304 1.99994 17.438V7.98846C1.99994 7.08691 2.22265 6.39673 2.66775 5.91824ZM22.1345 6.63614C21.9675 6.59173 21.7839 6.5747 21.5838 6.58605H4.9884C4.86585 6.57503 4.74899 6.58038 4.6378 6.60275L13.2359 15.3177L22.1345 6.63614ZM3.58599 7.80481C3.57497 7.86057 3.57497 7.92168 3.58599 7.98846V17.438C3.58599 18.3843 4.05346 18.8571 4.9884 18.8571H21.5835C22.5295 18.8571 23.0026 18.3843 23.0026 17.438V8.00515L13.7868 17.0039C13.6199 17.1599 13.4309 17.2377 13.2195 17.2377C12.9968 17.2266 12.8075 17.1485 12.6519 17.0039L3.58599 7.80481Z" fill="#418DFF"/>
<path fill-rule="evenodd" clip-rule="evenodd" d="M2.62625 6.39171C2.64862 6.35832 2.67634 6.32493 2.70973 6.29154C2.72108 6.26917 2.73744 6.25247 2.75981 6.24146L2.62625 6.39171Z" fill="#418DFF"/>
</svg>
