<svg width="24" height="24" viewBox="0 0 24 24" fill="none" xmlns="http://www.w3.org/2000/svg">
<g clip-path="url(#clip0_438_431)">
<path d="M12.8531 6.41989C14.0273 6.62145 15.1008 7.17692 15.9562 8.03004C16.807 8.88082 17.3648 9.95426 17.5664 11.1308C17.6437 11.5949 18.0422 11.93 18.5133 11.93C18.5742 11.93 18.6281 11.923 18.6656 11.916C18.668 11.916 18.6703 11.916 18.6727 11.9136C18.9281 11.8714 19.1508 11.7332 19.2984 11.5199C19.4461 11.3089 19.5023 11.0558 19.4578 10.805C19.1906 9.23473 18.45 7.80504 17.3133 6.66832C16.1719 5.5316 14.7398 4.79098 13.1719 4.52614H13.1695C12.6469 4.43942 12.1523 4.79332 12.0656 5.31364C11.9836 5.83864 12.3352 6.33317 12.8531 6.41989V6.41989Z" fill="#418DFF"/>
<path d="M18.7617 14.4656C18.2367 13.9195 17.6016 13.6312 16.9242 13.6312C16.2539 13.6312 15.6141 13.9148 15.0773 14.4539L13.7437 15.7875C13.7109 15.7711 13.6781 15.7547 13.6476 15.7383L13.5797 15.7055C13.4367 15.6328 13.2726 15.5508 13.1367 15.4664C11.768 14.5969 10.5187 13.4578 9.31405 11.9813C8.79843 11.332 8.43749 10.7813 8.17265 10.2328C8.5078 9.91641 8.81952 9.6 9.11249 9.3C9.17812 9.23437 9.24374 9.16641 9.31171 9.09844C9.37734 9.03047 9.4453 8.9625 9.51327 8.89453C10.0711 8.33672 10.3664 7.68984 10.3641 7.02422C10.3641 6.36094 10.0687 5.71641 9.51327 5.16328L8.21718 3.86719C8.14218 3.79219 8.06718 3.71719 7.99452 3.64219C7.92187 3.56719 7.84687 3.49219 7.77421 3.41953L7.67108 3.31406C7.41562 3.05391 7.15077 2.78438 6.88359 2.53828C6.36327 2.02031 5.7328 1.74609 5.06484 1.74609C4.39921 1.74609 3.76405 2.02031 3.22265 2.53828C3.2203 2.54063 3.21796 2.54062 3.21796 2.54297L1.59374 4.16484C0.93046 4.82812 0.553116 5.63672 0.471085 6.56719V6.56953C0.384366 7.67109 0.583585 8.83359 1.09921 10.2281C1.87968 12.3375 3.05155 14.2922 4.78359 16.3781C6.89765 18.8977 9.43593 20.8852 12.3258 22.2844H12.3281C13.4414 22.8164 14.9367 23.4398 16.6242 23.55C16.6266 23.55 16.6289 23.55 16.6312 23.55H16.643C16.7391 23.5547 16.8398 23.5594 16.9453 23.5594C18.1289 23.5594 19.1273 23.1305 19.9101 22.2844L19.9219 22.2727C19.9312 22.2633 19.9383 22.2563 19.9453 22.2469C20.1797 21.9656 20.4492 21.7055 20.7516 21.4148C20.9601 21.2156 21.1734 21.0117 21.3797 20.7914C21.9117 20.2359 22.193 19.5891 22.1906 18.9211C22.1883 18.2508 21.9023 17.6109 21.3633 17.0719L18.7617 14.4656V14.4656ZM18.5039 20.9977C18.0867 21.443 17.6086 21.6422 16.957 21.6422C16.8961 21.6422 16.8281 21.6375 16.7578 21.6328C15.4078 21.5461 14.1305 21.0117 13.1695 20.5547C10.5164 19.2773 8.1914 17.4586 6.2578 15.1477C4.67577 13.2422 3.60937 11.4656 2.9039 9.5625C2.48202 8.43047 2.32265 7.55391 2.38827 6.72656C2.43046 6.24375 2.61093 5.85938 2.95546 5.51953L4.56796 3.90703C4.73671 3.74531 4.91015 3.65859 5.07187 3.65859C5.22421 3.65859 5.38593 3.74297 5.55702 3.90938C5.55937 3.91172 5.56171 3.91406 5.56405 3.91641C5.84296 4.17891 6.11484 4.45547 6.40312 4.74609L6.41249 4.75547C6.55077 4.89844 6.71015 5.0625 6.87187 5.21953L8.16562 6.51328C8.54296 6.89062 8.54296 7.15547 8.16562 7.53281C8.02968 7.66875 7.8914 7.80703 7.75546 7.94766L7.65937 8.04609C7.29608 8.41406 6.9539 8.76094 6.58124 9.09141C6.57655 9.09609 6.56952 9.10078 6.56484 9.10781L6.5414 9.13125C6.1453 9.52734 6.03749 10.0008 6.22265 10.5352C6.22734 10.5492 6.23202 10.5609 6.23671 10.5727C6.23905 10.5797 6.2414 10.5867 6.24609 10.5938C6.59296 11.4305 7.08046 12.225 7.83046 13.1742C7.83046 13.1766 7.8328 13.1766 7.8328 13.1789C9.16405 14.8172 10.568 16.0969 12.1266 17.0859C12.3305 17.2148 12.5414 17.3227 12.7383 17.4211C12.8836 17.4937 13.0476 17.5781 13.1836 17.6602C13.193 17.6672 13.2023 17.6719 13.2117 17.6766L13.2187 17.6813C13.2328 17.6883 13.2469 17.6977 13.2633 17.7047C13.4672 17.8078 13.6687 17.857 13.8773 17.857C14.2336 17.857 14.5617 17.7094 14.8266 17.4305L16.4484 15.8086C16.5656 15.6914 16.7484 15.5508 16.9406 15.5508C17.1187 15.5508 17.2922 15.6891 17.4047 15.8063C17.407 15.8086 17.407 15.8086 17.4094 15.8109L20.0273 18.4289C20.2851 18.6867 20.4609 18.9914 20.0062 19.4695L20.0039 19.4719C19.8609 19.6266 19.7086 19.7742 19.5469 19.9313C19.5117 19.9641 19.4766 19.9992 19.4414 20.0344C19.1133 20.3414 18.7992 20.6461 18.5039 20.9977V20.9977Z" fill="#418DFF"/>
<path d="M23.5336 10.6174C23.1024 8.07909 21.9024 5.76347 20.0625 3.92362C18.2156 2.08143 15.9 0.881434 13.3594 0.452527C12.8367 0.365809 12.3422 0.719715 12.2555 1.24003C12.1688 1.76268 12.5227 2.25722 13.0406 2.34393C15.1899 2.70956 17.1469 3.72675 18.7031 5.28065C20.2594 6.8369 21.2742 8.79393 21.6399 10.9408C21.7172 11.4049 22.1156 11.74 22.5867 11.74C22.5891 11.74 22.5914 11.74 22.5938 11.74C22.6524 11.74 22.7016 11.733 22.7391 11.726C22.7414 11.726 22.7438 11.726 22.7461 11.7236C23.0016 11.6814 23.2242 11.5432 23.3719 11.3299C23.5219 11.1213 23.5781 10.8682 23.5336 10.6174V10.6174Z" fill="#418DFF"/>
</g>
<defs>
<clipPath id="clip0_438_431">
<rect width="24" height="24" fill="white"/>
</clipPath>
</defs>
</svg>
