<svg width="40" height="40" viewBox="0 0 40 40" fill="none" xmlns="http://www.w3.org/2000/svg">
<path d="M10.9096 20.9375H18.5686V28.5965C18.5686 29.375 19.209 30.0279 20 30.0279C20.791 30.0279 21.4314 29.375 21.4314 28.5965V20.9375H29.0904C29.8689 20.9375 30.5218 20.2972 30.5218 19.5061C30.5218 18.7151 29.8689 18.0748 29.0904 18.0748H21.4314V10.4157C21.4314 9.63728 20.791 8.98438 20 8.98438C19.209 8.98438 18.5686 9.63728 18.5686 10.4157V18.0748H10.9096C10.1311 18.0748 9.47824 18.7151 9.47824 19.5061C9.47824 20.2972 10.1311 20.9375 10.9096 20.9375Z" fill="#222222"/>
</svg>
