<svg width="100" height="100" viewBox="0 0 100 100" fill="none" xmlns="http://www.w3.org/2000/svg">
<path d="M10.9272 8.18183C11.0135 6.63207 10.656 5.02759 11.5673 3.5839C12.4912 2.12007 13.7503 1.18265 15.5176 1.18068C29.643 1.16491 43.7686 1.16581 57.894 1.1907C58.5682 1.19189 59.2419 1.46686 59.8739 1.70401C59.7459 2.05197 59.5855 2.31001 59.5847 2.56855C59.5698 7.4392 59.5821 12.3099 59.5646 17.1806C59.5621 17.8795 59.7926 18.1721 60.5208 18.1694C65.4239 18.1508 70.3271 18.1658 75.2301 18.1419C75.4822 18.1407 75.733 17.8828 75.9844 17.7443C76.1771 18.5192 76.5345 19.2934 76.5375 20.069C76.5743 29.5906 76.5594 39.1123 76.4908 48.6896C75.0141 46.7001 73.2967 44.9559 71.2887 43.41C71.2889 35.9349 71.2781 28.546 71.3045 21.1572C71.3074 20.3558 71.0829 20.0925 70.2626 20.1005C66.3895 20.1385 62.5156 20.0962 58.6425 20.1343C57.8214 20.1424 57.5934 19.8786 57.6007 19.0773C57.6362 15.2041 57.6021 11.3304 57.6289 7.45709C57.6339 6.7292 57.4749 6.42698 56.6595 6.42847C43.5092 6.45249 30.3589 6.45054 17.2087 6.43205C16.4604 6.431 16.1946 6.62078 16.1952 7.41513C16.2142 33.7808 16.2138 60.1465 16.1966 86.5122C16.1961 87.2798 16.4178 87.514 17.1927 87.5132C34.9 87.4939 52.6073 87.4936 70.3146 87.5139C71.102 87.5148 71.3113 87.2608 71.3036 86.5045C71.2695 83.1196 71.2881 79.7342 71.3491 76.3295C71.4931 76.333 71.5757 76.3559 71.6899 76.4368C72.8437 77.621 73.9836 78.7304 75.0809 79.8805C75.6722 80.5003 76.1904 81.1898 76.7151 81.9228C76.6572 82.595 76.626 83.1924 76.5948 83.7898C76.584 85.0575 76.5467 86.3255 76.5677 87.5927C76.6219 90.8715 74.2789 92.6717 71.379 92.7708C70.8267 92.7897 70.2733 92.7746 69.5708 92.7271C69.0037 92.6459 68.5862 92.5837 68.1687 92.5836C50.7212 92.5785 33.2737 92.5894 15.8263 92.5476C14.9661 92.5455 14.0305 92.2313 13.2624 91.8169C11.3259 90.7721 10.9499 88.8738 10.9489 86.8906C10.9375 64.2024 10.9423 41.5141 10.941 18.8259C10.9408 15.2779 10.932 11.7298 10.9272 8.18183Z" fill="#D2DDF2"/>
<path d="M10.8369 8.19141C10.932 11.7298 10.9408 15.2778 10.941 18.8258C10.9423 41.5141 10.9375 64.2023 10.9489 86.8906C10.9499 88.8738 11.3259 90.772 13.2624 91.8169C14.0305 92.2313 14.9661 92.5455 15.8263 92.5475C33.2737 92.5893 50.7212 92.5784 68.1687 92.5835C68.5862 92.5836 69.0037 92.6458 69.4808 92.7359C69.4093 93.9588 69.4024 95.1563 69.1177 96.2837C68.6936 97.9634 66.8691 99.2178 65.1329 99.2179C46.1974 99.2193 27.2618 99.2177 8.32629 99.2203C6.06304 99.2206 4.02061 97.2003 3.90692 94.8613C3.90218 94.764 3.90626 94.6661 3.90626 94.5685C3.90626 67.3365 3.91137 40.1045 3.8982 12.8724C3.89691 10.1982 6.14599 8.06668 8.59972 8.19721C9.31341 8.23518 10.0309 8.20173 10.8369 8.19141Z" fill="#B3C4F3"/>
<path d="M71.2885 43.4962C73.2967 44.9559 75.0141 46.7 76.4768 48.7792C78.0878 50.939 78.9763 53.349 79.4812 55.9074C79.6773 56.9014 79.8048 57.9157 79.8726 58.9269C80.0428 61.4693 79.5625 63.9322 78.781 66.313C78.5584 63.8161 77.0848 62.2379 74.9755 62.556C74.0966 62.6886 73.3076 63.4174 72.4746 63.7963C72.6597 62.6005 72.9866 61.4867 73.0138 60.3656C73.2221 51.7747 65.9142 45.4572 57.4292 46.8588C56.5076 47.011 55.6037 47.2703 54.7171 47.4142C55.3692 46.2887 55.7667 45.1974 55.2796 43.9562C54.5947 42.2106 53.214 41.6953 51.516 41.7295C51.6347 41.6036 51.7221 41.5269 51.8788 41.4331C52.1038 41.373 52.2638 41.3421 52.4142 41.2854C55.5034 40.1205 58.6801 39.5957 61.9746 40.031C63.1294 40.1836 64.2727 40.4233 65.4825 40.6599C67.4586 41.6298 69.3735 42.563 71.2885 43.4962Z" fill="#FFCA6F"/>
<path d="M75.9593 17.6828C75.733 17.8827 75.4822 18.1406 75.2301 18.1418C70.3271 18.1657 65.4239 18.1507 60.5208 18.1693C59.7926 18.172 59.5621 17.8794 59.5646 17.1805C59.5821 12.3098 59.5698 7.4391 59.5847 2.56845C59.5855 2.30991 59.7459 2.05186 59.9089 1.77197C60.5883 2.19759 61.2535 2.58125 61.7831 3.10266C64.6514 5.92685 67.4979 8.77342 70.3281 11.6359C72.076 13.4039 73.7838 15.2116 75.5021 17.0087C75.6729 17.1873 75.7914 17.4159 75.9593 17.6828Z" fill="#B4C5F3"/>
<path d="M72.4777 63.875C73.3076 63.4173 74.0966 62.6885 74.9755 62.556C77.0848 62.2379 78.5584 63.816 78.7137 66.3505C78.1641 67.7242 77.6226 69.0197 77.0518 70.3023C76.8625 70.7277 76.5981 71.1197 76.3074 71.609C76.0884 71.7939 75.9031 71.8712 75.7758 72.004C74.7557 73.069 73.7455 74.1435 72.7345 75.2172C72.3726 75.6014 72.0169 75.9914 71.6583 76.3788C71.5757 76.3558 71.4931 76.3329 71.2837 76.3486C70.1719 76.9108 69.1868 77.4343 68.1115 77.9496C67.7937 77.9394 67.5662 77.9383 67.3388 77.9351C64.905 77.9002 63.3538 75.4693 64.3671 73.2564C64.5529 72.8506 64.822 72.4829 65.1093 72.0599C65.835 71.6318 66.5204 71.2667 67.1702 70.8465C69.7744 69.1624 71.3779 66.7086 72.4777 63.875Z" fill="#FFA74E"/>
<path d="M71.6899 76.4367C72.0169 75.9914 72.3726 75.6015 72.7345 75.2172C73.7455 74.1435 74.7557 73.069 75.7758 72.004C75.9031 71.8712 76.0884 71.7939 76.3148 71.6807C78.096 73.3584 79.8093 75.0464 81.5732 76.8266C79.9965 78.5619 78.369 80.2049 76.7416 81.8478C76.1904 81.1898 75.6722 80.5002 75.0809 79.8804C73.9836 78.7303 72.8437 77.6209 71.6899 76.4367Z" fill="#F0824C"/>
<path d="M94.3528 87.4791C94.7516 87.8581 95.1314 88.2597 95.5528 88.6116C96.8404 89.6871 96.8427 90.7933 95.6679 92.0903C94.4248 93.4628 93.0882 94.7543 91.7458 96.0321C90.7829 96.9486 89.6506 96.9013 88.6602 95.9802C88.137 95.4935 87.6478 94.9703 87.1819 94.3961C87.5219 94.0928 87.8487 93.8832 88.1204 93.6172C90.2039 91.5773 92.2767 89.5265 94.3528 87.4791Z" fill="#FE4955"/>
<path d="M76.715 81.9227C78.369 80.2049 79.9964 78.5619 81.6342 76.854C83.6035 75.9349 84.4047 77.5856 85.509 78.6941C83.4941 80.8399 81.4667 82.8535 79.4841 84.9104C79.1817 85.224 79.0864 85.7372 78.8953 86.1581C78.1683 85.3864 77.4414 84.6147 76.6546 83.8164C76.626 83.1924 76.6572 82.595 76.715 81.9227Z" fill="#FE4A55"/>
<path d="M85.9317 93.199C85.1652 92.4486 84.3987 91.6981 83.6832 90.8499C86.0344 88.4256 88.3345 86.099 90.6347 83.7725C91.3362 84.4497 92.0376 85.1269 92.7364 85.9215C90.6754 88.1107 88.6115 90.177 86.5657 92.2611C86.3057 92.526 86.1407 92.8841 85.9317 93.199Z" fill="#FE4955"/>
<path d="M82.2226 89.4203C81.453 88.6936 80.6835 87.9669 79.9542 87.1671C80.2746 86.8831 80.5834 86.7014 80.8301 86.457C82.6991 84.6052 84.551 82.7361 86.4228 80.8871C86.6644 80.6484 86.9891 80.4938 87.2754 80.3003C87.9259 80.965 88.5765 81.6297 89.1947 82.3837C86.849 84.7888 84.5358 87.1046 82.2226 89.4203Z" fill="#FE4A55"/>
<path d="M85.9548 93.2574C86.1407 92.884 86.3057 92.5259 86.5657 92.261C88.6115 90.1769 90.6754 88.1106 92.7655 85.9802C93.2983 86.4015 93.7995 86.8813 94.3267 87.4201C92.2767 89.5265 90.2039 91.5773 88.1204 93.6171C87.8487 93.8831 87.5219 94.0928 87.1518 94.3375C86.7146 94.0029 86.3462 93.6594 85.9548 93.2574Z" fill="#E72035"/>
<path d="M87.2747 80.2324C86.9891 80.4937 86.6644 80.6483 86.4228 80.887C84.551 82.736 82.6991 84.6051 80.8301 86.4569C80.5834 86.7013 80.2746 86.883 79.9263 87.1073C79.858 87.1209 79.8727 87.1122 79.8551 87.0724C79.7817 86.9935 79.7259 86.9543 79.6701 86.9151C79.6701 86.9151 79.6866 86.9149 79.6644 86.8761C79.5864 86.7982 79.5306 86.759 79.4748 86.7198C79.4748 86.7198 79.4913 86.7195 79.4691 86.6808C79.3911 86.6029 79.3353 86.5637 79.2795 86.5245C79.2795 86.5245 79.296 86.5242 79.2738 86.4855C79.1958 86.4076 79.14 86.3684 79.0842 86.3291C79.0842 86.3291 79.1007 86.3289 79.0785 86.2902C79.0004 86.2123 78.9446 86.173 78.8888 86.1338C78.8888 86.1338 78.9028 86.1431 78.899 86.1506C79.0864 85.7372 79.1817 85.224 79.4841 84.9103C81.4667 82.8535 83.4941 80.8398 85.5376 78.7529C86.1369 79.1841 86.7055 79.6744 87.2747 80.2324Z" fill="#E72035"/>
<path d="M82.2828 89.4489C84.5358 87.1045 86.849 84.7888 89.2219 82.4438C89.7168 82.8271 90.152 83.2395 90.6109 83.7122C88.3346 86.099 86.0344 88.4256 83.68 90.7845C83.1983 90.3704 82.7706 89.924 82.2828 89.4489Z" fill="#E62035"/>
<path d="M78.9044 86.1858C78.9446 86.1731 79.0004 86.2123 79.0785 86.2985C79.0404 86.3096 78.9802 86.2737 78.9044 86.1858Z" fill="#FE4A55"/>
<path d="M79.0997 86.3811C79.14 86.3684 79.1958 86.4076 79.2738 86.4938C79.2357 86.5049 79.1755 86.469 79.0997 86.3811Z" fill="#FE4A55"/>
<path d="M79.295 86.5765C79.3353 86.5637 79.3911 86.6029 79.4691 86.6891C79.431 86.7002 79.3708 86.6643 79.295 86.5765Z" fill="#FE4A55"/>
<path d="M79.4903 86.7718C79.5306 86.759 79.5864 86.7982 79.6644 86.8844C79.6264 86.8955 79.5661 86.8596 79.4903 86.7718Z" fill="#FE4A55"/>
<path d="M79.6856 86.9671C79.7259 86.9543 79.7817 86.9935 79.8597 87.0797C79.8217 87.0908 79.7614 87.0549 79.6856 86.9671Z" fill="#FE4A55"/>
<path d="M68.2018 77.9579C69.1868 77.4344 70.1718 76.9109 71.2223 76.3682C71.2881 79.7342 71.2695 83.1197 71.3036 86.5045C71.3113 87.2608 71.102 87.5148 70.3146 87.5139C52.6073 87.4936 34.9 87.4939 17.1927 87.5132C16.4178 87.514 16.1961 87.2798 16.1966 86.5122C16.2138 60.1465 16.2142 33.7808 16.1952 7.41514C16.1946 6.62079 16.4604 6.43101 17.2087 6.43206C30.3589 6.45055 43.5092 6.45249 56.6595 6.42847C57.4749 6.42698 57.6339 6.72921 57.6289 7.4571C57.6021 11.3304 57.6362 15.2041 57.6007 19.0773C57.5934 19.8787 57.8214 20.1424 58.6425 20.1343C62.5156 20.0962 66.3895 20.1385 70.2626 20.1005C71.0829 20.0925 71.3074 20.3558 71.3045 21.1572C71.2781 28.546 71.2889 35.9349 71.2887 43.41C69.3735 42.5631 67.4586 41.6299 65.489 40.5846C65.4264 39.2231 64.4476 39.4006 63.6741 39.1827C63.6727 37.389 63.6721 35.6881 63.7493 33.9684C64.588 33.9362 65.4051 33.9173 65.4169 32.8868C65.4288 31.8479 64.6358 31.8048 63.8568 31.8274C63.7941 31.8293 63.7307 31.8109 63.669 31.7125C63.6708 29.5427 63.6916 27.4621 63.6659 25.382C63.6411 23.3767 62.1136 21.8767 60.1256 21.8762C48.4232 21.8727 36.7209 21.8729 25.0185 21.8759C23.2536 21.8764 21.7839 22.917 21.5139 24.6423C21.2752 26.1674 21.352 27.7419 21.2199 29.3188C19.4249 29.7183 18.7954 30.4866 18.7805 32.2384C18.7775 32.595 18.7794 32.9517 18.78 33.3084C18.7836 35.3364 19.3148 36.0131 21.2868 36.5939C21.29 39.2253 21.2917 41.7636 21.2191 44.319C19.5016 44.6526 18.8103 45.4623 18.7818 47.1104C18.7751 47.4973 18.7801 47.8844 18.7805 48.2714C18.7825 50.3743 19.2775 51.0197 21.287 51.6312C21.2892 53.151 21.1687 54.5921 21.3351 55.9993C21.4389 56.8769 21.9602 57.7102 22.3272 58.549C22.4517 58.8336 22.6773 59.074 22.7679 59.3512C22.2568 59.3696 21.8342 59.3659 21.4119 59.3744C19.8409 59.406 18.8562 60.3438 18.7878 61.907C18.7566 62.6205 18.7519 63.3385 18.7934 64.051C18.8747 65.4471 19.7446 66.3918 21.1175 66.4618C22.4452 66.5296 23.7804 66.4952 25.1108 66.4552C25.9931 66.4287 26.6422 65.9519 27.0479 65.1766C27.7563 63.8231 27.3589 60.8973 26.4257 59.7769C30.9298 59.7687 35.3403 59.7657 39.7703 59.8502C39.8017 60.5892 39.8137 61.2407 39.7358 61.8932C36.7841 61.8943 33.9222 61.9032 31.0604 61.8887C30.3084 61.8849 29.6603 61.9883 29.5923 62.9056C29.5385 63.6304 30.0422 63.986 31.0999 63.9869C34.1243 63.9895 37.1487 63.9817 40.1937 64.0584C40.5367 65.2215 40.8593 66.3041 41.0926 67.386C35.8009 67.3849 30.5985 67.3785 25.3961 67.3866C22.8652 67.3905 21.3119 68.9366 21.2917 71.4464C21.2838 72.4218 21.2927 73.3973 21.2195 74.3904C19.5432 74.6885 18.8164 75.5124 18.7838 77.1116C18.7699 77.7942 18.7484 78.4805 18.7999 79.1598C18.9044 80.536 19.8253 81.4301 21.1987 81.5037C21.9124 81.542 22.6295 81.5192 23.345 81.5194C26.7956 81.5204 27.1844 81.1541 27.4612 77.7318C28.204 77.7345 28.8586 77.7361 29.5385 77.8049C29.6179 78.8059 30.212 79.0333 31.0266 79.0314C34.8169 79.0226 38.6074 79.0192 42.3977 79.0338C43.2856 79.0372 43.8349 78.724 43.9602 77.7598C45.2449 77.7452 46.4339 77.7582 47.6217 77.7283C48.5415 77.7051 49.4599 77.6282 50.4446 77.5929C52.8358 78.8267 55.3064 79.5828 57.9179 79.8039C61.5027 80.1075 64.9575 79.5957 68.2018 77.9579Z" fill="#E6ECF2"/>
<path d="M21.2933 44.3019C21.2917 41.7635 21.29 39.2252 21.3764 36.5717C22.5382 36.4522 23.6128 36.4698 24.6858 36.438C26.3981 36.3873 27.3127 35.4416 27.3377 33.7349C27.3457 33.1818 27.3457 32.6284 27.3377 32.0752C27.3126 30.3322 26.3674 29.3847 24.6048 29.3442C23.4999 29.3188 22.3946 29.3104 21.2895 29.2944C21.352 27.7418 21.2752 26.1673 21.5139 24.6422C21.7839 22.917 23.2536 21.8763 25.0185 21.8758C36.7209 21.8728 48.4232 21.8726 60.1256 21.8761C62.1136 21.8767 63.6411 23.3766 63.6659 25.3819C63.6916 27.462 63.6708 29.5426 63.5786 31.7261C52.816 31.8305 42.145 31.8318 31.474 31.8331C30.0388 31.8333 29.509 32.1163 29.5973 32.915C29.7278 34.0969 30.6678 33.9368 31.4676 33.9372C41.8132 33.9419 52.1589 33.9398 62.5046 33.9423C62.8935 33.9423 63.2825 33.9714 63.6715 33.987C63.6721 35.688 63.6727 37.389 63.5848 39.2055C52.8331 39.3246 42.17 39.327 31.5068 39.3355C31.0872 39.3358 30.59 39.266 30.2699 39.4607C29.9502 39.6552 29.6373 40.1426 29.6402 40.499C29.6426 40.8017 30.0501 41.1836 30.3711 41.3742C30.615 41.519 31.0045 41.4257 31.3293 41.4261C38.156 41.4352 44.9827 41.4426 51.8094 41.4503C51.7221 41.5269 51.6347 41.6036 51.4493 41.7303C48.6151 42.8837 46.411 44.7 44.4048 46.8884C39.8919 46.8734 35.4668 46.876 31.0416 46.8577C30.2785 46.8545 29.6122 46.9783 29.6026 47.8924C29.5931 48.8053 30.2648 48.9717 31.0217 48.9666C32.128 48.9592 33.2344 48.9612 34.3407 48.9657C37.1706 48.9773 40.0004 48.9926 42.8143 49.0768C42.134 50.7004 41.4696 52.2536 40.7593 53.8533C40.6295 54.0481 40.5458 54.1964 40.3666 54.3429C37.346 54.3409 34.4209 54.3404 31.4958 54.3406C30.0703 54.3407 29.5719 54.6241 29.5873 55.423C29.6022 56.1925 30.0634 56.4477 31.4382 56.4486C34.2982 56.4503 37.1583 56.4524 40.0226 56.5366C39.9348 57.6669 39.8429 58.7148 39.7509 59.7627C35.3403 59.7657 30.9298 59.7686 26.3546 59.7571C25.0788 59.6066 23.9677 59.4706 22.8567 59.3346C22.6773 59.074 22.4517 58.8335 22.3272 58.5489C21.9602 57.7101 21.4389 56.8769 21.3351 55.9992C21.1687 54.592 21.2892 53.151 21.3766 51.6093C22.6 51.4861 23.7378 51.5226 24.8699 51.4584C26.4104 51.3711 27.296 50.4149 27.3352 48.8851C27.3519 48.2367 27.351 47.5872 27.3356 46.9387C27.2971 45.3236 26.3282 44.3671 24.6977 44.3364C23.5631 44.3151 22.4281 44.3128 21.2933 44.3019Z" fill="white"/>
<path d="M72.4746 63.7963C71.3779 66.7086 69.7744 69.1624 67.1701 70.8465C66.5204 71.2666 65.835 71.6318 65.036 72.06C58.9951 74.3281 52.8594 72.71 49.2431 67.8752C46.5814 64.3167 45.896 60.3439 47.1249 56.0053C47.9053 53.6873 49.0803 51.6818 50.9262 50.16C52.0416 49.2405 53.2991 48.4935 54.5429 47.6514C54.6282 47.5773 54.6634 47.5207 54.6927 47.4663C54.6869 47.4684 54.6915 47.4798 54.6915 47.4798C55.6037 47.2702 56.5076 47.011 57.4292 46.8587C65.9142 45.4571 73.2221 51.7746 73.0138 60.3656C72.9866 61.4866 72.6597 62.6004 72.4746 63.7963ZM65.7529 68.0072C68.3034 66.1044 69.7059 63.5248 69.8989 60.3909C70.2522 54.656 65.3937 49.7152 59.6627 49.7467C53.4816 49.7807 48.3666 55.8655 49.9105 62.1458C51.6998 69.4239 60.0199 72.168 65.7529 68.0072Z" fill="#E9ECEE"/>
<path d="M54.4927 47.669C53.2991 48.4935 52.0416 49.2405 50.9262 50.16C49.0803 51.6818 47.9053 53.6874 47.0565 56.0128C46.7799 56.173 46.6051 56.2589 46.4622 56.3818C44.962 57.6719 42.8966 57.5667 41.6993 56.0004C41.2366 55.3951 41.0938 54.5452 40.8053 53.8068C41.4696 52.2536 42.134 50.7004 42.8568 49.0336C43.4411 48.2463 43.9668 47.5726 44.4925 46.8989C46.411 44.7 48.6151 42.8837 51.4181 41.7796C53.214 41.6952 54.5947 42.2105 55.2796 43.9562C55.7667 45.1974 55.3692 46.2887 54.7171 47.4142C54.6915 47.4799 54.6869 47.4684 54.6487 47.4896C54.5713 47.5635 54.532 47.6163 54.4927 47.669Z" fill="#FFE391"/>
<path d="M51.8788 41.433C44.9827 41.4425 38.156 41.4351 31.3293 41.426C31.0045 41.4256 30.615 41.519 30.3711 41.3742C30.0501 41.1835 29.6426 40.8016 29.6402 40.499C29.6373 40.1426 29.9502 39.6551 30.2699 39.4606C30.59 39.266 31.0872 39.3358 31.5068 39.3354C42.17 39.327 52.8331 39.3245 63.5856 39.2981C64.4476 39.4004 65.4264 39.223 65.4278 40.5477C64.2727 40.4232 63.1294 40.1835 61.9746 40.0309C58.6801 39.5956 55.5034 40.1204 52.4142 41.2853C52.2638 41.342 52.1038 41.3729 51.8788 41.433Z" fill="#473D6C"/>
<path d="M40.7593 53.8533C41.0938 54.5452 41.2366 55.3951 41.6993 56.0004C42.8966 57.5667 44.962 57.6719 46.4622 56.3818C46.6051 56.2589 46.7799 56.173 47.0083 56.0625C45.896 60.3439 46.5814 64.3167 49.2431 67.8753C52.8594 72.71 58.9951 74.3282 64.9793 72.0977C64.822 72.4829 64.5529 72.8506 64.3671 73.2564C63.3538 75.4693 64.905 77.9002 67.3388 77.9351C67.5662 77.9383 67.7937 77.9394 68.1115 77.9496C64.9575 79.5956 61.5027 80.1074 57.9179 79.8038C55.3064 79.5827 52.8359 78.8266 50.3891 77.5529C47.5197 76.0072 45.2896 73.9277 43.3778 71.4021C42.9371 70.6773 42.5108 70.0191 42.0652 69.2886C41.7579 68.6064 41.4699 67.9965 41.1818 67.3866C40.8593 66.304 40.5367 65.2214 40.1881 63.9863C40.0499 63.1865 39.9378 62.5394 39.8257 61.8922C39.8137 61.2406 39.8017 60.589 39.7703 59.8501C39.8429 58.7148 39.9348 57.6669 40.0519 56.4661C40.2053 55.6571 40.3336 55.0009 40.462 54.3446C40.5458 54.1963 40.6295 54.0481 40.7593 53.8533Z" fill="#FFCA6F"/>
<path d="M41.0926 67.3859C41.4699 67.9965 41.7579 68.6064 41.9659 69.3026C38.2113 69.3912 34.5369 69.3932 30.8624 69.3961C30.16 69.3966 29.6081 69.6477 29.5988 70.429C29.5897 71.1878 30.0648 71.5009 30.8093 71.4979C35.0036 71.4811 39.1979 71.477 43.3922 71.4686C45.2896 73.9277 47.5197 76.0072 50.3235 77.5352C49.4599 77.6281 48.5415 77.705 47.6217 77.7282C46.4339 77.7581 45.2449 77.7451 43.9231 77.7014C43.5796 76.9924 43.0601 76.9289 42.4722 76.9302C38.652 76.939 34.8317 76.9484 31.0117 76.9222C30.3185 76.9174 29.8165 77.104 29.5133 77.7377C28.8586 77.736 28.204 77.7344 27.4466 77.6476C27.3156 75.1883 26.5141 74.4096 24.1057 74.4039C23.1685 74.4017 22.2312 74.3836 21.294 74.3727C21.2927 73.3972 21.2839 72.4217 21.2917 71.4463C21.3119 68.9365 22.8652 67.3904 25.3961 67.3865C30.5985 67.3784 35.8009 67.3848 41.0926 67.3859Z" fill="#FEFEFE"/>
<path d="M63.7493 33.9683C63.2825 33.9714 62.8935 33.9423 62.5046 33.9422C52.1589 33.9397 41.8132 33.9418 31.4676 33.9371C30.6678 33.9368 29.7278 34.0969 29.5973 32.915C29.509 32.1163 30.0388 31.8332 31.474 31.833C42.145 31.8317 52.816 31.8305 63.5773 31.8155C63.7307 31.8108 63.7941 31.8291 63.8568 31.8273C64.6358 31.8047 65.4288 31.8477 65.4169 32.8867C65.4051 33.9172 64.588 33.9361 63.7493 33.9683Z" fill="#423869"/>
<path d="M21.2191 44.3189C22.4281 44.3127 23.5631 44.315 24.6977 44.3364C26.3282 44.3671 27.2971 45.3236 27.3356 46.9387C27.351 47.5871 27.3519 48.2367 27.3352 48.8851C27.296 50.4149 26.4104 51.371 24.8699 51.4584C23.7378 51.5226 22.6 51.486 21.3751 51.5162C19.2775 51.0195 18.7825 50.3742 18.7805 48.2713C18.7801 47.8842 18.7751 47.4971 18.7818 47.1102C18.8103 45.4622 19.5016 44.6525 21.2191 44.3189ZM24.9998 49.3399C25.0528 48.432 25.1755 47.5164 25.0784 46.6248C25.0649 46.5013 23.9652 46.494 23.3678 46.438C23.2395 46.426 23.1089 46.4334 22.9795 46.4366C20.5212 46.4973 20.9619 45.984 20.8939 48.6383C20.8779 49.2637 21.1649 49.4164 21.7151 49.4041C22.7506 49.3808 23.7868 49.3916 24.9998 49.3399Z" fill="#403667"/>
<path d="M21.2199 29.3188C22.3946 29.3105 23.4999 29.3188 24.6048 29.3442C26.3674 29.3847 27.3126 30.3322 27.3377 32.0753C27.3457 32.6284 27.3457 33.1819 27.3377 33.735C27.3127 35.4417 26.3981 36.3874 24.6858 36.438C23.6128 36.4698 22.5382 36.4522 21.3749 36.4789C19.3148 36.0131 18.7836 35.3363 18.78 33.3084C18.7794 32.9517 18.7775 32.595 18.7805 32.2383C18.7954 30.4866 19.4249 29.7183 21.2199 29.3188ZM23.9092 31.431C23.5854 31.4326 23.2615 31.4329 22.9377 31.4359C20.7548 31.456 20.7696 31.4554 20.8931 33.6929C20.9204 34.1864 21.0725 34.3949 21.576 34.385C22.5796 34.3653 23.5848 34.4033 24.587 34.3611C24.8027 34.3521 25.179 34.1172 25.1901 33.9651C25.2502 33.1439 25.2186 32.316 25.2186 31.4255C24.7375 31.4255 24.4181 31.4255 23.9092 31.431Z" fill="#413768"/>
<path d="M21.2195 74.3903C22.2312 74.3836 23.1685 74.4017 24.1057 74.4039C26.5141 74.4096 27.3156 75.1883 27.3585 77.6466C27.1844 81.154 26.7956 81.5203 23.345 81.5193C22.6295 81.5191 21.9124 81.5419 21.1987 81.5036C19.8253 81.43 18.9044 80.5359 18.7999 79.1597C18.7484 78.4804 18.7699 77.7941 18.7838 77.1115C18.8164 75.5123 19.5432 74.6884 21.2195 74.3903ZM22.2834 76.5051C20.8911 76.4959 20.883 76.496 20.8925 77.8268C20.9052 79.5996 20.644 79.4483 22.4794 79.4565C22.8679 79.4583 23.2565 79.4568 23.645 79.4568C25.3098 79.4566 25.3098 79.4566 25.2208 77.5598C25.2208 77.2496 25.2208 76.9394 25.2208 76.5482C24.2296 76.5482 23.3424 76.5482 22.2834 76.5051Z" fill="#403667"/>
<path d="M22.7679 59.3511C23.9677 59.4706 25.0788 59.6066 26.261 59.7624C27.3589 60.8971 27.7563 63.823 27.0479 65.1765C26.6422 65.9518 25.9931 66.4286 25.1108 66.4551C23.7804 66.4951 22.4452 66.5295 21.1175 66.4617C19.7446 66.3916 18.8747 65.447 18.7934 64.0509C18.7519 63.3383 18.7566 62.6203 18.7878 61.9069C18.8562 60.3436 19.8409 59.4059 21.4119 59.3743C21.8342 59.3657 22.2568 59.3695 22.7679 59.3511ZM20.8915 63.7084C21.1099 63.9478 21.3138 64.3755 21.5493 64.3937C22.5476 64.4709 23.5577 64.4637 24.5577 64.399C24.7922 64.3838 25.1695 64.0463 25.201 63.8184C25.5152 61.544 25.4428 61.4767 23.2113 61.4767C23.1141 61.4767 23.017 61.4767 22.9198 61.4767C20.891 61.4767 20.891 61.4767 20.8915 63.7084Z" fill="#403667"/>
<path d="M29.5385 77.8048C29.8165 77.104 30.3185 76.9174 31.0117 76.9222C34.8317 76.9484 38.652 76.9391 42.4722 76.9302C43.0601 76.9289 43.5796 76.9925 43.8268 77.7106C43.8349 78.7239 43.2856 79.0371 42.3977 79.0337C38.6074 79.0192 34.8169 79.0225 31.0266 79.0313C30.212 79.0332 29.6179 78.8058 29.5385 77.8048Z" fill="#433A6A"/>
<path d="M39.7358 61.8932C39.9378 62.5394 40.0499 63.1866 40.1676 63.9058C37.1487 63.9816 34.1243 63.9894 31.0999 63.9868C30.0422 63.9859 29.5385 63.6304 29.5923 62.9056C29.6603 61.9882 30.3084 61.8848 31.0604 61.8886C33.9222 61.9031 36.7841 61.8943 39.7358 61.8932Z" fill="#443A6A"/>
<path d="M44.4048 46.8885C43.9668 47.5727 43.4411 48.2464 42.8728 48.9633C40.0004 48.9926 37.1706 48.9774 34.3407 48.9658C33.2344 48.9612 32.128 48.9592 31.0217 48.9667C30.2648 48.9717 29.5931 48.8054 29.6026 47.8925C29.6122 46.9784 30.2785 46.8546 31.0417 46.8577C35.4668 46.876 39.8919 46.8735 44.4048 46.8885Z" fill="#433A6A"/>
<path d="M40.3666 54.3429C40.3336 55.0009 40.2053 55.6571 40.0476 56.3838C37.1583 56.4524 34.2982 56.4503 31.4382 56.4486C30.0634 56.4478 29.6022 56.1925 29.5873 55.4231C29.5719 54.6241 30.0703 54.3407 31.4958 54.3406C34.4209 54.3404 37.346 54.3409 40.3666 54.3429Z" fill="#433969"/>
<path d="M65.6941 68.0453C60.0199 72.168 51.6998 69.4239 49.9105 62.1458C48.3666 55.8655 53.4816 49.7807 59.6627 49.7467C65.3937 49.7152 70.2522 54.656 69.8989 60.391C69.7059 63.5249 68.3034 66.1045 65.6941 68.0453ZM66.5893 56.2298C66.4011 55.7931 66.312 55.114 65.9977 54.9855C65.6579 54.8465 64.9934 55.098 64.6711 55.396C63.7423 56.255 62.9174 57.2258 62.0466 58.1479C60.741 59.5304 59.4312 60.9087 58.0876 62.3263C57.2115 61.3121 56.4061 60.3772 55.5978 59.4448C55.1539 58.9327 54.6169 58.7487 54.0633 59.2098C53.4714 59.7027 53.5637 60.2751 54.0414 60.8267C55.0846 62.0309 56.1144 63.2468 57.1639 64.4455C57.7242 65.0855 58.3553 65.093 58.9287 64.485C61.4718 61.7885 63.9983 59.0764 66.5893 56.2298Z" fill="#FEFFFF"/>
<path d="M54.5429 47.6515C54.532 47.6163 54.5713 47.5636 54.6545 47.4875C54.6634 47.5208 54.6282 47.5774 54.5429 47.6515Z" fill="#FFCA6F"/>
<path d="M43.3778 71.402C39.1979 71.477 35.0036 71.4811 30.8093 71.4979C30.0648 71.5009 29.5897 71.1878 29.5988 70.429C29.6081 69.6477 30.16 69.3966 30.8624 69.3961C34.5369 69.3932 38.2113 69.3912 41.9852 69.3749C42.5108 70.0191 42.9371 70.6773 43.3778 71.402Z" fill="#433A6A"/>
<path d="M24.9112 49.3641C23.7868 49.3916 22.7506 49.3808 21.7151 49.4041C21.1649 49.4164 20.8779 49.2637 20.8939 48.6383C20.9619 45.984 20.5212 46.4973 22.9795 46.4366C23.1089 46.4335 23.2395 46.426 23.3678 46.438C23.9652 46.494 25.0649 46.5013 25.0784 46.6248C25.1755 47.5164 25.0528 48.432 24.9112 49.3641Z" fill="#FBFBFC"/>
<path d="M24.0039 31.4282C24.4181 31.4254 24.7375 31.4254 25.2186 31.4254C25.2186 32.3159 25.2502 33.1438 25.1901 33.965C25.179 34.1172 24.8027 34.352 24.587 34.3611C23.5848 34.4032 22.5796 34.3653 21.576 34.385C21.0725 34.3949 20.9204 34.1864 20.8931 33.6928C20.7696 31.4553 20.7548 31.456 22.9377 31.4359C23.2615 31.4329 23.5854 31.4325 24.0039 31.4282Z" fill="#FCFDFE"/>
<path d="M25.1858 77.7327C25.3098 79.4566 25.3098 79.4566 23.645 79.4568C23.2565 79.4568 22.8679 79.4583 22.4794 79.4565C20.644 79.4483 20.9052 79.5996 20.8925 77.8268C20.883 76.496 20.8911 76.4959 22.3997 76.5876C23.2423 77.4355 24.151 77.7427 25.1858 77.7327Z" fill="#E2E8EF"/>
<path d="M25.2033 77.6462C24.151 77.7428 23.2423 77.4355 22.4856 76.6092C23.3424 76.5482 24.2296 76.5482 25.2208 76.5482C25.2208 76.9394 25.2208 77.2496 25.2033 77.6462Z" fill="#FEFEFE"/>
<path d="M20.8913 63.6169C20.891 61.4767 20.891 61.4767 22.9198 61.4767C23.017 61.4767 23.1141 61.4767 23.2113 61.4767C25.4428 61.4767 25.5152 61.544 25.201 63.8184C25.1695 64.0463 24.7922 64.3838 24.5577 64.399C23.5577 64.4637 22.5476 64.4709 21.5493 64.3937C21.3138 64.3755 21.1099 63.9478 20.8913 63.6169Z" fill="#E4E9F0"/>
<path d="M66.56 56.2998C63.9983 59.0764 61.4718 61.7885 58.9287 64.485C58.3553 65.093 57.7242 65.0855 57.1639 64.4455C56.1144 63.2468 55.0846 62.0309 54.0414 60.8267C53.5636 60.2751 53.4714 59.7027 54.0633 59.2098C54.6169 58.7487 55.1539 58.9327 55.5978 59.4448C56.4061 60.3772 57.2115 61.3121 58.0876 62.3263C59.4312 60.9087 60.741 59.5304 62.0466 58.1479C62.9174 57.2258 63.7423 56.255 64.6711 55.396C64.9934 55.098 65.6579 54.8465 65.9977 54.9855C66.312 55.114 66.4011 55.7931 66.56 56.2998Z" fill="#3EB880"/>
</svg>
